LXGWWenKaiMonoTC-Medium.ufo
<glyph name="exclam" format="2">
  <advance height="1000" width="500"/>
  <unicode hex="0021"/>
  <outline>
    <contour>
      <point x="260" y="159" type="qcurve" smooth="yes"/>
      <point x="246" y="159"/>
      <point x="212" y="173"/>
      <point x="212" y="188" type="qcurve" smooth="yes"/>
      <point x="214" y="208"/>
      <point x="214" y="227" type="qcurve" smooth="yes"/>
      <point x="208" y="636"/>
      <point x="203" y="695" type="qcurve"/>
      <point x="208" y="718"/>
      <point x="235" y="718" type="qcurve" smooth="yes"/>
      <point x="254" y="718"/>
      <point x="300" y="698"/>
      <point x="300" y="681" type="qcurve" smooth="yes"/>
      <point x="294" y="609" type="line"/>
      <point x="282" y="223"/>
      <point x="282" y="172" type="qcurve" smooth="yes"/>
      <point x="282" y="159"/>
    </contour>
    <contour>
      <point x="248" y="-15" type="qcurve" smooth="yes"/>
      <point x="224" y="-15"/>
      <point x="189" y="27"/>
      <point x="189" y="51" type="qcurve" smooth="yes"/>
      <point x="189" y="74"/>
      <point x="218" y="107"/>
      <point x="248" y="107" type="qcurve" smooth="yes"/>
      <point x="270" y="107"/>
      <point x="306" y="62"/>
      <point x="306" y="37" type="qcurve" smooth="yes"/>
      <point x="306" y="-15"/>
    </contour>
  </outline>
</glyph>
<glyph name="quotedbl" format="2">
  <advance height="1000" width="500"/>
  <unicode hex="0022"/>
  <outline>
    <contour>
      <point x="324" y="470" type="qcurve" smooth="yes"/>
      <point x="287" y="470"/>
      <point x="287" y="492" type="qcurve" smooth="yes"/>
      <point x="281" y="703" type="line" smooth="yes"/>
      <point x="281" y="718"/>
      <point x="310" y="731"/>
      <point x="324" y="731" type="qcurve" smooth="yes"/>
      <point x="339" y="731"/>
      <point x="367" y="718"/>
      <point x="367" y="703" type="qcurve" smooth="yes"/>
      <point x="361" y="492" type="line" smooth="yes"/>
      <point x="361" y="470"/>
    </contour>
    <contour>
      <point x="176" y="470" type="qcurve" smooth="yes"/>
      <point x="139" y="470"/>
      <point x="139" y="492" type="qcurve" smooth="yes"/>
      <point x="133" y="703" type="line" smooth="yes"/>
      <point x="133" y="718"/>
      <point x="162" y="731"/>
      <point x="176" y="731" type="qcurve" smooth="yes"/>
      <point x="191" y="731"/>
      <point x="219" y="718"/>
      <point x="219" y="703" type="qcurve" smooth="yes"/>
      <point x="213" y="492" type="line" smooth="yes"/>
      <point x="213" y="470"/>
    </contour>
  </outline>
</glyph>
<glyph name="numbersign" format="2">
  <advance height="1000" width="500"/>
  <unicode hex="0023"/>
  <outline>
    <contour>
      <point x="118" y="-13" type="qcurve" smooth="yes"/>
      <point x="81" y="-13"/>
      <point x="81" y="9" type="qcurve" smooth="yes"/>
      <point x="83" y="24"/>
      <point x="90" y="56"/>
      <point x="93" y="74" type="qcurve" smooth="yes"/>
      <point x="108" y="204" type="line"/>
      <point x="65" y="204"/>
      <point x="47" y="201" type="qcurve" smooth="yes"/>
      <point x="19" y="201"/>
      <point x="19" y="250" type="qcurve" smooth="yes"/>
      <point x="19" y="276"/>
      <point x="43" y="276" type="qcurve" smooth="yes"/>
      <point x="74" y="274"/>
      <point x="117" y="274" type="qcurve"/>
      <point x="139" y="459" type="line"/>
      <point x="89" y="459"/>
      <point x="71" y="456" type="qcurve" smooth="yes"/>
      <point x="55" y="456"/>
      <point x="42" y="487"/>
      <point x="42" y="501" type="qcurve" smooth="yes"/>
      <point x="42" y="531"/>
      <point x="65" y="531" type="qcurve" smooth="yes"/>
      <point x="96" y="529"/>
      <point x="148" y="529" type="qcurve"/>
      <point x="166" y="679"/>
      <point x="168" y="705" type="qcurve" smooth="yes"/>
      <point x="168" y="723"/>
      <point x="198" y="723" type="qcurve" smooth="yes"/>
      <point x="213" y="723"/>
      <point x="244" y="709"/>
      <point x="244" y="693" type="qcurve" smooth="yes"/>
      <point x="243" y="688"/>
      <point x="238" y="670"/>
      <point x="221" y="529" type="qcurve"/>
      <point x="318" y="529" type="line"/>
      <point x="335" y="681"/>
      <point x="337" y="705" type="qcurve" smooth="yes"/>
      <point x="337" y="723"/>
      <point x="368" y="723" type="qcurve" smooth="yes"/>
      <point x="384" y="723"/>
      <point x="414" y="709"/>
      <point x="414" y="693" type="qcurve"/>
      <point x="408" y="671"/>
      <point x="406" y="660" type="qcurve" smooth="yes"/>
      <point x="390" y="529" type="line"/>
      <point x="411" y="529"/>
      <point x="450" y="532" type="qcurve" smooth="yes"/>
      <point x="478" y="532"/>
      <point x="478" y="489" type="qcurve" smooth="yes"/>
      <point x="478" y="458"/>
      <point x="454" y="458" type="qcurve" smooth="yes"/>
      <point x="434" y="459"/>
      <point x="381" y="459" type="qcurve"/>
      <point x="359" y="274" type="line"/>
      <point x="390" y="274"/>
      <point x="426" y="277" type="qcurve" smooth="yes"/>
      <point x="455" y="277"/>
      <point x="455" y="234" type="qcurve" smooth="yes"/>
      <point x="455" y="203"/>
      <point x="431" y="203" type="qcurve" smooth="yes"/>
      <point x="412" y="204"/>
      <point x="351" y="204" type="qcurve"/>
      <point x="335" y="72"/>
      <point x="330" y="9" type="qcurve" smooth="yes"/>
      <point x="328" y="-1"/>
      <point x="303" y="-13"/>
      <point x="287" y="-13" type="qcurve" smooth="yes"/>
      <point x="251" y="-13"/>
      <point x="251" y="7" type="qcurve" smooth="yes"/>
      <point x="254" y="27" type="line"/>
      <point x="262" y="53"/>
      <point x="263" y="74" type="qcurve" smooth="yes"/>
      <point x="279" y="204" type="line"/>
      <point x="181" y="204" type="line"/>
      <point x="166" y="72"/>
      <point x="160" y="9" type="qcurve" smooth="yes"/>
      <point x="159" y="-1"/>
      <point x="133" y="-13"/>
    </contour>
    <contour>
      <point x="190" y="274" type="line"/>
      <point x="287" y="274" type="line"/>
      <point x="309" y="459" type="line"/>
      <point x="212" y="459" type="line"/>
    </contour>
  </outline>
</glyph>
<glyph name="parenleft" format="2">
  <advance height="1000" width="500"/>
  <unicode hex="0028"/>
  <outline>
    <contour>
      <point x="376" y="-165" type="qcurve" smooth="yes"/>
      <point x="365" y="-165"/>
      <point x="339" y="-144" type="qcurve" smooth="yes"/>
      <point x="280" y="-101"/>
      <point x="210" y="11" type="qcurve" smooth="yes"/>
      <point x="134" y="135"/>
      <point x="134" y="286" type="qcurve" smooth="yes"/>
      <point x="134" y="442"/>
      <point x="209" y="588" type="qcurve" smooth="yes"/>
      <point x="277" y="718"/>
      <point x="340" y="772" type="qcurve" smooth="yes"/>
      <point x="369" y="797"/>
      <point x="381" y="797" type="qcurve" smooth="yes"/>
      <point x="406" y="797"/>
      <point x="406" y="774" type="qcurve" smooth="yes"/>
      <point x="406" y="763"/>
      <point x="398" y="755" type="qcurve" smooth="yes"/>
      <point x="315" y="668"/>
      <point x="272" y="531" type="qcurve" smooth="yes"/>
      <point x="228" y="389"/>
      <point x="228" y="286" type="qcurve" smooth="yes"/>
      <point x="228" y="188"/>
      <point x="311" y="-50"/>
      <point x="384" y="-115" type="qcurve" smooth="yes"/>
      <point x="396" y="-125"/>
      <point x="396" y="-140" type="qcurve" smooth="yes"/>
      <point x="396" y="-150"/>
      <point x="384" y="-165"/>
    </contour>
  </outline>
</glyph>
<glyph name="parenright" format="2">
  <advance height="1000" width="500"/>
  <unicode hex="0029"/>
  <outline>
    <contour>
      <point x="124" y="-165" type="qcurve" smooth="yes"/>
      <point x="115" y="-165"/>
      <point x="104" y="-150"/>
      <point x="104" y="-140" type="qcurve" smooth="yes"/>
      <point x="104" y="-125"/>
      <point x="115" y="-115" type="qcurve" smooth="yes"/>
      <point x="189" y="-50"/>
      <point x="272" y="188"/>
      <point x="272" y="286" type="qcurve" smooth="yes"/>
      <point x="272" y="389"/>
      <point x="229" y="531" type="qcurve" smooth="yes"/>
      <point x="185" y="668"/>
      <point x="102" y="755" type="qcurve" smooth="yes"/>
      <point x="94" y="763"/>
      <point x="94" y="774" type="qcurve" smooth="yes"/>
      <point x="94" y="797"/>
      <point x="119" y="797" type="qcurve" smooth="yes"/>
      <point x="132" y="797"/>
      <point x="161" y="772" type="qcurve" smooth="yes"/>
      <point x="221" y="718"/>
      <point x="291" y="588" type="qcurve" smooth="yes"/>
      <point x="366" y="440"/>
      <point x="366" y="286" type="qcurve" smooth="yes"/>
      <point x="366" y="137"/>
      <point x="291" y="11" type="qcurve" smooth="yes"/>
      <point x="222" y="-101"/>
      <point x="162" y="-144" type="qcurve" smooth="yes"/>
      <point x="134" y="-165"/>
    </contour>
  </outline>
</glyph>
<glyph name="plus" format="2">
  <advance height="1000" width="500"/>
  <unicode hex="002B"/>
  <outline>
    <contour>
      <point x="251" y="85" type="qcurve" smooth="yes"/>
      <point x="236" y="85"/>
      <point x="210" y="102"/>
      <point x="210" y="117" type="qcurve" smooth="yes"/>
      <point x="213" y="162"/>
      <point x="213" y="310" type="qcurve"/>
      <point x="90" y="310"/>
      <point x="73" y="307" type="qcurve" smooth="yes"/>
      <point x="54" y="307"/>
      <point x="40" y="337"/>
      <point x="40" y="351" type="qcurve" smooth="yes"/>
      <point x="41" y="382"/>
      <point x="68" y="382" type="qcurve" smooth="yes"/>
      <point x="96" y="380"/>
      <point x="213" y="380" type="qcurve"/>
      <point x="213" y="538"/>
      <point x="211" y="569" type="qcurve" smooth="yes"/>
      <point x="211" y="595"/>
      <point x="243" y="595" type="qcurve" smooth="yes"/>
      <point x="257" y="595"/>
      <point x="286" y="579"/>
      <point x="286" y="564" type="qcurve" smooth="yes"/>
      <point x="283" y="518"/>
      <point x="283" y="380" type="qcurve"/>
      <point x="372" y="380"/>
      <point x="425" y="383" type="qcurve" smooth="yes"/>
      <point x="443" y="383"/>
      <point x="457" y="355"/>
      <point x="457" y="341" type="qcurve" smooth="yes"/>
      <point x="457" y="309"/>
      <point x="430" y="309" type="qcurve" smooth="yes"/>
      <point x="410" y="309"/>
      <point x="392" y="310" type="qcurve" smooth="yes"/>
      <point x="283" y="310" type="line"/>
      <point x="283" y="172"/>
      <point x="284" y="153" type="qcurve" smooth="yes"/>
      <point x="284" y="111" type="line" smooth="yes"/>
      <point x="284" y="85"/>
    </contour>
  </outline>
</glyph>
<glyph name="period" format="2">
  <advance height="1000" width="500"/>
  <unicode hex="002E"/>
  <outline>
    <contour>
      <point x="248" y="-32" type="qcurve" smooth="yes"/>
      <point x="219" y="-32"/>
      <point x="174" y="24"/>
      <point x="174" y="56" type="qcurve" smooth="yes"/>
      <point x="174" y="87"/>
      <point x="217" y="128"/>
      <point x="248" y="128" type="qcurve" smooth="yes"/>
      <point x="275" y="128"/>
      <point x="324" y="73"/>
      <point x="324" y="40" type="qcurve" smooth="yes"/>
      <point x="324" y="11"/>
      <point x="275" y="-32"/>
    </contour>
  </outline>
</glyph>
<glyph name="three" format="2">
  <advance height="1000" width="500"/>
  <unicode hex="0033"/>
  <outline>
    <contour>
      <point x="222" y="-24" type="qcurve" smooth="yes"/>
      <point x="108" y="-24"/>
      <point x="30" y="60" type="qcurve" smooth="yes"/>
      <point x="22" y="70"/>
      <point x="22" y="84" type="qcurve" smooth="yes"/>
      <point x="22" y="103"/>
      <point x="43" y="143"/>
      <point x="60" y="143" type="qcurve" smooth="yes"/>
      <point x="70" y="143"/>
      <point x="78" y="134" type="qcurve" smooth="yes"/>
      <point x="106" y="94"/>
      <point x="173" y="51"/>
      <point x="222" y="51" type="qcurve" smooth="yes"/>
      <point x="281" y="51"/>
      <point x="355" y="96"/>
      <point x="388" y="173"/>
      <point x="388" y="217" type="qcurve" smooth="yes"/>
      <point x="388" y="276"/>
      <point x="316" y="346"/>
      <point x="261" y="346" type="qcurve" smooth="yes"/>
      <point x="229" y="346"/>
      <point x="188" y="337" type="qcurve"/>
      <point x="168" y="337"/>
      <point x="148" y="374"/>
      <point x="148" y="388" type="qcurve" smooth="yes"/>
      <point x="148" y="411"/>
      <point x="167" y="411" type="qcurve" smooth="yes"/>
      <point x="278" y="423"/>
      <point x="334" y="484" type="qcurve" smooth="yes"/>
      <point x="360" y="513"/>
      <point x="360" y="551" type="qcurve" smooth="yes"/>
      <point x="360" y="645"/>
      <point x="264" y="645" type="qcurve" smooth="yes"/>
      <point x="184" y="645"/>
      <point x="121" y="568" type="qcurve" smooth="yes"/>
      <point x="110" y="551"/>
      <point x="94" y="551" type="qcurve" smooth="yes"/>
      <point x="89" y="551"/>
      <point x="69" y="565"/>
      <point x="54" y="587"/>
      <point x="54" y="600" type="qcurve" smooth="yes"/>
      <point x="54" y="616"/>
      <point x="65" y="626" type="qcurve" smooth="yes"/>
      <point x="145" y="719"/>
      <point x="262" y="719" type="qcurve" smooth="yes"/>
      <point x="343" y="719"/>
      <point x="441" y="633"/>
      <point x="441" y="558" type="qcurve" smooth="yes"/>
      <point x="441" y="434"/>
      <point x="347" y="398" type="qcurve"/>
      <point x="402" y="398"/>
      <point x="449" y="312" type="qcurve" smooth="yes"/>
      <point x="470" y="272"/>
      <point x="470" y="218" type="qcurve" smooth="yes"/>
      <point x="470" y="154"/>
      <point x="418" y="45"/>
      <point x="308" y="-24"/>
    </contour>
  </outline>
</glyph>
<glyph name="six" format="2">
  <advance height="1000" width="500"/>
  <unicode hex="0036"/>
  <outline>
    <contour>
      <point x="248" y="-23" type="qcurve" smooth="yes"/>
      <point x="180" y="-23"/>
      <point x="82" y="37"/>
      <point x="28" y="136"/>
      <point x="28" y="195" type="qcurve" smooth="yes"/>
      <point x="28" y="261"/>
      <point x="51" y="332" type="qcurve" smooth="yes"/>
      <point x="87" y="444"/>
      <point x="228" y="682" type="qcurve"/>
      <point x="232" y="692" type="line" smooth="yes"/>
      <point x="241" y="720"/>
      <point x="274" y="720" type="qcurve" smooth="yes"/>
      <point x="279" y="720"/>
      <point x="304" y="717"/>
      <point x="328" y="703"/>
      <point x="328" y="688" type="qcurve" smooth="yes"/>
      <point x="328" y="677"/>
      <point x="318" y="665" type="qcurve" smooth="yes"/>
      <point x="215" y="531"/>
      <point x="161" y="413" type="qcurve"/>
      <point x="175" y="442"/>
      <point x="265" y="442" type="qcurve" smooth="yes"/>
      <point x="379" y="442"/>
      <point x="443" y="337" type="qcurve" smooth="yes"/>
      <point x="469" y="288"/>
      <point x="469" y="227" type="qcurve" smooth="yes"/>
      <point x="469" y="161"/>
      <point x="422" y="48"/>
      <point x="324" y="-23"/>
    </contour>
    <contour>
      <point x="248" y="50" type="qcurve" smooth="yes"/>
      <point x="315" y="50"/>
      <point x="387" y="147"/>
      <point x="387" y="224" type="qcurve" smooth="yes"/>
      <point x="387" y="305"/>
      <point x="327" y="351" type="qcurve" smooth="yes"/>
      <point x="299" y="370"/>
      <point x="262" y="370" type="qcurve" smooth="yes"/>
      <point x="213" y="370"/>
      <point x="146" y="325"/>
      <point x="110" y="246"/>
      <point x="110" y="197" type="qcurve" smooth="yes"/>
      <point x="110" y="131"/>
      <point x="182" y="50"/>
    </contour>
  </outline>
</glyph>
<glyph name="nine" format="2">
  <advance height="1000" width="500"/>
  <unicode hex="0039"/>
  <outline>
    <contour>
      <point x="313" y="-19" type="qcurve" smooth="yes"/>
      <point x="279" y="-19"/>
      <point x="279" y="9" type="qcurve" smooth="yes"/>
      <point x="279" y="19"/>
      <point x="281" y="28" type="qcurve" smooth="yes"/>
      <point x="335" y="323"/>
      <point x="335" y="329" type="qcurve"/>
      <point x="333" y="321" type="line"/>
      <point x="325" y="311"/>
      <point x="236" y="254"/>
      <point x="184" y="254" type="qcurve" smooth="yes"/>
      <point x="139" y="254"/>
      <point x="67" y="300"/>
      <point x="25" y="385"/>
      <point x="25" y="442" type="qcurve" smooth="yes"/>
      <point x="25" y="545"/>
      <point x="92" y="631" type="qcurve"/>
      <point x="166" y="718"/>
      <point x="261" y="718" type="qcurve" smooth="yes"/>
      <point x="343" y="718"/>
      <point x="382" y="667" type="qcurve" smooth="yes"/>
      <point x="394" y="653" type="line"/>
      <point x="395" y="656"/>
      <point x="396" y="668" type="qcurve" smooth="yes"/>
      <point x="399" y="689"/>
      <point x="420" y="689" type="qcurve" smooth="yes"/>
      <point x="444" y="687"/>
      <point x="467" y="665" type="qcurve" smooth="yes"/>
      <point x="477" y="655"/>
      <point x="477" y="642" type="qcurve"/>
      <point x="457" y="582"/>
      <point x="408" y="306"/>
      <point x="370" y="48"/>
      <point x="365" y="8" type="qcurve" smooth="yes"/>
      <point x="361" y="-17"/>
    </contour>
    <contour>
      <point x="183" y="331" type="qcurve" smooth="yes"/>
      <point x="240" y="331"/>
      <point x="311" y="400"/>
      <point x="345" y="463" type="qcurve" smooth="yes"/>
      <point x="368" y="509"/>
      <point x="375" y="551" type="qcurve" smooth="yes"/>
      <point x="376" y="557"/>
      <point x="377" y="561" type="qcurve"/>
      <point x="376" y="561" type="line" smooth="yes"/>
      <point x="360" y="561"/>
      <point x="353" y="578" type="qcurve" smooth="yes"/>
      <point x="345" y="608"/>
      <point x="311" y="634" type="qcurve" smooth="yes"/>
      <point x="293" y="644"/>
      <point x="265" y="644" type="qcurve" smooth="yes"/>
      <point x="201" y="644"/>
      <point x="105" y="512"/>
      <point x="105" y="445" type="qcurve" smooth="yes"/>
      <point x="105" y="391"/>
      <point x="145" y="331"/>
    </contour>
  </outline>
</glyph>
<glyph name="semicolon" format="2">
  <advance height="1000" width="500"/>
  <unicode hex="003B"/>
  <outline>
    <contour>
      <point x="194" y="-19" type="qcurve" smooth="yes"/>
      <point x="182" y="-19"/>
      <point x="171" y="-4"/>
      <point x="171" y="4" type="qcurve" smooth="yes"/>
      <point x="171" y="17"/>
      <point x="181" y="24" type="qcurve" smooth="yes"/>
      <point x="204" y="39"/>
      <point x="242" y="84"/>
      <point x="246" y="101" type="qcurve"/>
      <point x="227" y="104"/>
      <point x="222" y="107" type="qcurve" smooth="yes"/>
      <point x="211" y="117"/>
      <point x="190" y="147"/>
      <point x="190" y="169" type="qcurve" smooth="yes"/>
      <point x="190" y="198"/>
      <point x="233" y="230"/>
      <point x="260" y="230" type="qcurve" smooth="yes"/>
      <point x="287" y="230"/>
      <point x="323" y="184"/>
      <point x="327" y="152" type="qcurve" smooth="yes"/>
      <point x="327" y="150"/>
      <point x="328" y="149" type="qcurve" smooth="yes"/>
      <point x="328" y="141" type="line" smooth="yes"/>
      <point x="328" y="98"/>
      <point x="258" y="8"/>
      <point x="204" y="-16" type="qcurve"/>
      <point x="204" y="-16"/>
      <point x="201" y="-19"/>
    </contour>
    <contour>
      <point x="261" y="454" type="qcurve" smooth="yes"/>
      <point x="233" y="454"/>
      <point x="192" y="507"/>
      <point x="192" y="532" type="qcurve" smooth="yes"/>
      <point x="192" y="564"/>
      <point x="232" y="596"/>
      <point x="261" y="596" type="qcurve" smooth="yes"/>
      <point x="287" y="596"/>
      <point x="330" y="543"/>
      <point x="330" y="515" type="qcurve" smooth="yes"/>
      <point x="330" y="489"/>
      <point x="297" y="454"/>
    </contour>
  </outline>
</glyph>
<glyph name="at" format="2">
  <advance height="1000" width="500"/>
  <unicode hex="0040"/>
  <outline>
    <contour>
      <point x="246" y="-23" type="qcurve" smooth="yes"/>
      <point x="115" y="-23"/>
      <point x="53" y="132" type="qcurve" smooth="yes"/>
      <point x="25" y="205"/>
      <point x="25" y="306" type="qcurve" smooth="yes"/>
      <point x="25" y="468"/>
      <point x="151" y="716"/>
      <point x="260" y="716" type="qcurve" smooth="yes"/>
      <point x="329" y="716"/>
      <point x="422" y="636"/>
      <point x="468" y="502"/>
      <point x="468" y="415" type="qcurve" smooth="yes"/>
      <point x="468" y="335"/>
      <point x="435" y="212"/>
      <point x="381" y="142"/>
      <point x="349" y="142" type="qcurve" smooth="yes"/>
      <point x="283" y="142"/>
      <point x="283" y="180" type="qcurve"/>
      <point x="281" y="180"/>
      <point x="231" y="143"/>
      <point x="208" y="143" type="qcurve" smooth="yes"/>
      <point x="166" y="143"/>
      <point x="118" y="227"/>
      <point x="118" y="298" type="qcurve" smooth="yes"/>
      <point x="118" y="439"/>
      <point x="185" y="527" type="qcurve" smooth="yes"/>
      <point x="217" y="566"/>
      <point x="258" y="566" type="qcurve" smooth="yes"/>
      <point x="304" y="566"/>
      <point x="307" y="558" type="qcurve" smooth="yes"/>
      <point x="306" y="547" type="line"/>
      <point x="308" y="557"/>
      <point x="323" y="557" type="qcurve" smooth="yes"/>
      <point x="339" y="557"/>
      <point x="376" y="528"/>
      <point x="376" y="510" type="qcurve" smooth="yes"/>
      <point x="365" y="448"/>
      <point x="350" y="268"/>
      <point x="350" y="233" type="qcurve" smooth="yes"/>
      <point x="350" y="219"/>
      <point x="352" y="219" type="qcurve" smooth="yes"/>
      <point x="356" y="219"/>
      <point x="376" y="260"/>
      <point x="393" y="348"/>
      <point x="393" y="412" type="qcurve" smooth="yes"/>
      <point x="393" y="521"/>
      <point x="319" y="646"/>
      <point x="259" y="646" type="qcurve" smooth="yes"/>
      <point x="201" y="646"/>
      <point x="101" y="456"/>
      <point x="101" y="313" type="qcurve" smooth="yes"/>
      <point x="101" y="181"/>
      <point x="182" y="49"/>
      <point x="246" y="49" type="qcurve" smooth="yes"/>
      <point x="297" y="49"/>
      <point x="385" y="124"/>
      <point x="416" y="185" type="qcurve" smooth="yes"/>
      <point x="426" y="202"/>
      <point x="441" y="202" type="qcurve" smooth="yes"/>
      <point x="464" y="202"/>
      <point x="464" y="178" type="qcurve" smooth="yes"/>
      <point x="464" y="173"/>
      <point x="456" y="151" type="qcurve" smooth="yes"/>
      <point x="440" y="104"/>
      <point x="391" y="44" type="qcurve" smooth="yes"/>
      <point x="331" y="-23"/>
    </contour>
    <contour>
      <point x="212" y="222" type="qcurve" smooth="yes"/>
      <point x="244" y="222"/>
      <point x="279" y="345"/>
      <point x="282" y="400" type="qcurve" smooth="yes"/>
      <point x="284" y="438" type="line" smooth="yes"/>
      <point x="284" y="494"/>
      <point x="264" y="494" type="qcurve" smooth="yes"/>
      <point x="225" y="494"/>
      <point x="204" y="401" type="qcurve" smooth="yes"/>
      <point x="195" y="358"/>
      <point x="195" y="302" type="qcurve" smooth="yes"/>
      <point x="195" y="253"/>
      <point x="203" y="222"/>
    </contour>
  </outline>
</glyph>
<glyph name="B" format="2">
  <advance height="1000" width="500"/>
  <unicode hex="0042"/>
  <outline>
    <contour>
      <point x="146" y="-16" type="qcurve" smooth="yes"/>
      <point x="20" y="-16"/>
      <point x="20" y="17" type="qcurve" smooth="yes"/>
      <point x="20" y="24"/>
      <point x="34" y="40"/>
      <point x="61" y="40"/>
      <point x="63" y="40" type="qcurve"/>
      <point x="63" y="622" type="line"/>
      <point x="54" y="626"/>
      <point x="31" y="656"/>
      <point x="31" y="668" type="qcurve" smooth="yes"/>
      <point x="31" y="697"/>
      <point x="161" y="713" type="qcurve" smooth="yes"/>
      <point x="199" y="717"/>
      <point x="230" y="717" type="qcurve" smooth="yes"/>
      <point x="298" y="717"/>
      <point x="382" y="675"/>
      <point x="420" y="602"/>
      <point x="420" y="557" type="qcurve" smooth="yes"/>
      <point x="420" y="515"/>
      <point x="389" y="449"/>
      <point x="340" y="405"/>
      <point x="332" y="401" type="qcurve"/>
      <point x="400" y="390"/>
      <point x="445" y="307" type="qcurve" smooth="yes"/>
      <point x="465" y="266"/>
      <point x="465" y="215" type="qcurve" smooth="yes"/>
      <point x="465" y="87"/>
      <point x="379" y="36" type="qcurve" smooth="yes"/>
      <point x="299" y="-11"/>
      <point x="213" y="-13" type="qcurve" smooth="yes"/>
      <point x="173" y="-16"/>
    </contour>
    <contour>
      <point x="138" y="45" type="line"/>
      <point x="311" y="45"/>
      <point x="372" y="139" type="qcurve" smooth="yes"/>
      <point x="390" y="168"/>
      <point x="390" y="212" type="qcurve" smooth="yes"/>
      <point x="390" y="265"/>
      <point x="368" y="295" type="qcurve" smooth="yes"/>
      <point x="328" y="350"/>
      <point x="252" y="352" type="qcurve" smooth="yes"/>
      <point x="189" y="352"/>
      <point x="138" y="346" type="qcurve"/>
    </contour>
    <contour>
      <point x="138" y="414" type="line"/>
      <point x="139" y="414" type="line" smooth="yes"/>
      <point x="279" y="414"/>
      <point x="325" y="487" type="qcurve" smooth="yes"/>
      <point x="345" y="519"/>
      <point x="345" y="556" type="qcurve" smooth="yes"/>
      <point x="345" y="644"/>
      <point x="221" y="644" type="qcurve" smooth="yes"/>
      <point x="180" y="644"/>
      <point x="138" y="629" type="qcurve"/>
    </contour>
  </outline>
</glyph>
<glyph name="H" format="2">
  <advance height="1000" width="500"/>
  <unicode hex="0048"/>
  <outline>
    <contour>
      <point x="114" y="-17" type="qcurve" smooth="yes"/>
      <point x="97" y="-17"/>
      <point x="57" y="1"/>
      <point x="57" y="17" type="qcurve" smooth="yes"/>
      <point x="57" y="29"/>
      <point x="58" y="55" type="qcurve" smooth="yes"/>
      <point x="59" y="81"/>
      <point x="59" y="327" type="qcurve"/>
      <point x="41" y="328"/>
      <point x="33" y="349" type="qcurve" smooth="yes"/>
      <point x="23" y="370"/>
      <point x="23" y="385" type="qcurve" smooth="yes"/>
      <point x="23" y="408"/>
      <point x="42" y="408" type="qcurve" smooth="yes"/>
      <point x="59" y="407" type="line"/>
      <point x="59" y="621"/>
      <point x="56" y="678"/>
      <point x="56" y="695" type="qcurve" smooth="yes"/>
      <point x="56" y="711"/>
      <point x="83" y="711" type="qcurve" smooth="yes"/>
      <point x="101" y="711"/>
      <point x="140" y="693"/>
      <point x="140" y="677" type="qcurve" smooth="yes"/>
      <point x="140" y="665"/>
      <point x="138" y="614"/>
      <point x="138" y="407" type="qcurve"/>
      <point x="286" y="414" type="line"/>
      <point x="366" y="422" type="line"/>
      <point x="366" y="621"/>
      <point x="363" y="678"/>
      <point x="363" y="695" type="qcurve" smooth="yes"/>
      <point x="363" y="711"/>
      <point x="390" y="711" type="qcurve" smooth="yes"/>
      <point x="407" y="711"/>
      <point x="447" y="693"/>
      <point x="447" y="677" type="qcurve" smooth="yes"/>
      <point x="447" y="640" type="line" smooth="yes"/>
      <point x="446" y="614"/>
      <point x="446" y="106" type="qcurve" smooth="yes"/>
      <point x="446" y="75"/>
      <point x="448" y="17"/>
      <point x="448" y="0" type="qcurve" smooth="yes"/>
      <point x="448" y="-16"/>
      <point x="421" y="-16" type="qcurve" smooth="yes"/>
      <point x="405" y="-16"/>
      <point x="364" y="2"/>
      <point x="364" y="18" type="qcurve" smooth="yes"/>
      <point x="364" y="30"/>
      <point x="366" y="82"/>
      <point x="366" y="341" type="qcurve"/>
      <point x="334" y="344"/>
      <point x="310" y="344" type="qcurve" smooth="yes"/>
      <point x="138" y="336" type="line"/>
      <point x="138" y="74"/>
      <point x="141" y="16"/>
      <point x="141" y="-1" type="qcurve" smooth="yes"/>
      <point x="141" y="-17"/>
    </contour>
  </outline>
</glyph>
<glyph name="J" format="2">
  <advance height="1000" width="500"/>
  <unicode hex="004A"/>
  <outline>
    <contour>
      <point x="239" y="-23" type="qcurve" smooth="yes"/>
      <point x="189" y="-23"/>
      <point x="118" y="15"/>
      <point x="77" y="68"/>
      <point x="56" y="115"/>
      <point x="56" y="122" type="qcurve" smooth="yes"/>
      <point x="56" y="136"/>
      <point x="74" y="161"/>
      <point x="100" y="179"/>
      <point x="112" y="179" type="qcurve" smooth="yes"/>
      <point x="130" y="179"/>
      <point x="133" y="162" type="qcurve" smooth="yes"/>
      <point x="151" y="86"/>
      <point x="187" y="69" type="qcurve" smooth="yes"/>
      <point x="213" y="55"/>
      <point x="235" y="55" type="qcurve" smooth="yes"/>
      <point x="323" y="55"/>
      <point x="323" y="180" type="qcurve" smooth="yes"/>
      <point x="323" y="623"/>
      <point x="321" y="695" type="qcurve" smooth="yes"/>
      <point x="321" y="711"/>
      <point x="349" y="711" type="qcurve" smooth="yes"/>
      <point x="366" y="711"/>
      <point x="407" y="693"/>
      <point x="407" y="677" type="qcurve" smooth="yes"/>
      <point x="407" y="665"/>
      <point x="405" y="614"/>
      <point x="405" y="177" type="qcurve" smooth="yes"/>
      <point x="405" y="-23"/>
    </contour>
  </outline>
</glyph>
<glyph name="K" format="2">
  <advance height="1000" width="500"/>
  <unicode hex="004B"/>
  <outline>
    <contour>
      <point x="109" y="-17" type="qcurve" smooth="yes"/>
      <point x="92" y="-17"/>
      <point x="51" y="1"/>
      <point x="51" y="17" type="qcurve" smooth="yes"/>
      <point x="51" y="29"/>
      <point x="53" y="84"/>
      <point x="53" y="351" type="qcurve" smooth="yes"/>
      <point x="53" y="587"/>
      <point x="50" y="695" type="qcurve" smooth="yes"/>
      <point x="50" y="711"/>
      <point x="77" y="711" type="qcurve" smooth="yes"/>
      <point x="95" y="711"/>
      <point x="135" y="693"/>
      <point x="135" y="677" type="qcurve" smooth="yes"/>
      <point x="135" y="665"/>
      <point x="133" y="614"/>
      <point x="133" y="438" type="qcurve"/>
      <point x="195" y="500"/>
      <point x="334" y="664"/>
      <point x="363" y="703" type="qcurve" smooth="yes"/>
      <point x="370" y="711"/>
      <point x="384" y="711" type="qcurve" smooth="yes"/>
      <point x="397" y="711"/>
      <point x="426" y="698"/>
      <point x="448" y="680"/>
      <point x="448" y="670" type="qcurve" smooth="yes"/>
      <point x="448" y="661"/>
      <point x="415" y="634" type="qcurve" smooth="yes"/>
      <point x="395" y="617"/>
      <point x="372" y="591" type="qcurve" smooth="yes"/>
      <point x="297" y="502"/>
      <point x="198" y="400" type="qcurve"/>
      <point x="398" y="104"/>
      <point x="463" y="44" type="qcurve" smooth="yes"/>
      <point x="483" y="27"/>
      <point x="483" y="20" type="qcurve" smooth="yes"/>
      <point x="483" y="7"/>
      <point x="441" y="-15"/>
      <point x="419" y="-15" type="qcurve" smooth="yes"/>
      <point x="392" y="-15"/>
      <point x="376" y="12" type="qcurve" smooth="yes"/>
      <point x="363" y="32" type="line" smooth="yes"/>
      <point x="342" y="58"/>
      <point x="146" y="345" type="qcurve"/>
      <point x="133" y="331" type="line"/>
      <point x="133" y="77"/>
      <point x="136" y="16"/>
      <point x="136" y="-1" type="qcurve" smooth="yes"/>
      <point x="136" y="-17"/>
    </contour>
  </outline>
</glyph>
<glyph name="L" format="2">
  <advance height="1000" width="500"/>
  <unicode hex="004C"/>
  <outline>
    <contour>
      <point x="107" y="-15" type="qcurve"/>
      <point x="80" y="-15"/>
      <point x="65" y="17" type="qcurve" smooth="yes"/>
      <point x="58" y="29"/>
      <point x="58" y="37" type="qcurve" smooth="yes"/>
      <point x="58" y="46"/>
      <point x="64" y="59"/>
      <point x="64" y="70" type="qcurve" smooth="yes"/>
      <point x="64" y="621"/>
      <point x="61" y="678"/>
      <point x="61" y="695" type="qcurve" smooth="yes"/>
      <point x="61" y="711"/>
      <point x="89" y="711" type="qcurve" smooth="yes"/>
      <point x="107" y="711"/>
      <point x="149" y="693"/>
      <point x="149" y="677" type="qcurve" smooth="yes"/>
      <point x="149" y="665"/>
      <point x="147" y="614"/>
      <point x="147" y="66" type="qcurve"/>
      <point x="213" y="70"/>
      <point x="349" y="70" type="qcurve" smooth="yes"/>
      <point x="411" y="70"/>
      <point x="424" y="71" type="qcurve" smooth="yes"/>
      <point x="442" y="71"/>
      <point x="462" y="28"/>
      <point x="462" y="12" type="qcurve" smooth="yes"/>
      <point x="462" y="-11"/>
      <point x="442" y="-11" type="qcurve" smooth="yes"/>
      <point x="408" y="-5"/>
      <point x="331" y="-5" type="qcurve" smooth="yes"/>
      <point x="142" y="-5"/>
    </contour>
  </outline>
</glyph>
<glyph name="P" format="2">
  <advance height="1000" width="500"/>
  <unicode hex="0050"/>
  <outline>
    <contour>
      <point x="112" y="-17" type="qcurve" smooth="yes"/>
      <point x="95" y="-17"/>
      <point x="55" y="1"/>
      <point x="55" y="17" type="qcurve" smooth="yes"/>
      <point x="55" y="29"/>
      <point x="57" y="88"/>
      <point x="57" y="612" type="qcurve"/>
      <point x="47" y="612"/>
      <point x="17" y="652"/>
      <point x="17" y="666" type="qcurve" smooth="yes"/>
      <point x="17" y="687"/>
      <point x="177" y="713" type="qcurve" smooth="yes"/>
      <point x="204" y="717"/>
      <point x="254" y="717" type="qcurve" smooth="yes"/>
      <point x="476" y="717"/>
      <point x="476" y="547" type="qcurve" smooth="yes"/>
      <point x="476" y="370"/>
      <point x="303" y="330" type="qcurve" smooth="yes"/>
      <point x="234" y="314"/>
      <point x="149" y="314" type="qcurve" smooth="yes"/>
      <point x="135" y="314"/>
      <point x="135" y="312" type="qcurve" smooth="yes"/>
      <point x="136" y="311" type="line"/>
      <point x="136" y="81"/>
      <point x="139" y="16"/>
      <point x="139" y="-1" type="qcurve" smooth="yes"/>
      <point x="139" y="-17"/>
    </contour>
    <contour>
      <point x="136" y="372" type="line"/>
      <point x="138" y="372" type="line"/>
      <point x="395" y="391"/>
      <point x="395" y="541" type="qcurve" smooth="yes"/>
      <point x="395" y="587"/>
      <point x="326" y="642"/>
      <point x="252" y="642" type="qcurve" smooth="yes"/>
      <point x="191" y="642"/>
      <point x="136" y="624" type="qcurve"/>
    </contour>
  </outline>
</glyph>
<glyph name="S" format="2">
  <advance height="1000" width="500"/>
  <unicode hex="0053"/>
  <outline>
    <contour>
      <point x="246" y="-24" type="qcurve" smooth="yes"/>
      <point x="169" y="-24"/>
      <point x="68" y="39"/>
      <point x="27" y="95" type="qcurve" smooth="yes"/>
      <point x="21" y="104"/>
      <point x="21" y="112" type="qcurve" smooth="yes"/>
      <point x="21" y="130"/>
      <point x="49" y="171"/>
      <point x="65" y="171" type="qcurve" smooth="yes"/>
      <point x="80" y="171"/>
      <point x="84" y="160" type="qcurve" smooth="yes"/>
      <point x="139" y="66"/>
      <point x="192" y="58" type="qcurve" smooth="yes"/>
      <point x="221" y="51"/>
      <point x="247" y="51" type="qcurve" smooth="yes"/>
      <point x="328" y="51"/>
      <point x="374" y="116" type="qcurve" smooth="yes"/>
      <point x="394" y="146"/>
      <point x="394" y="184" type="qcurve" smooth="yes"/>
      <point x="394" y="245"/>
      <point x="342" y="314"/>
      <point x="287" y="332" type="qcurve" smooth="yes"/>
      <point x="184" y="365" type="line" smooth="yes"/>
      <point x="47" y="409"/>
      <point x="47" y="526" type="qcurve" smooth="yes"/>
      <point x="47" y="575"/>
      <point x="99" y="662"/>
      <point x="195" y="719"/>
      <point x="258" y="719" type="qcurve" smooth="yes"/>
      <point x="324" y="719"/>
      <point x="443" y="641"/>
      <point x="443" y="609" type="qcurve" smooth="yes"/>
      <point x="443" y="607"/>
      <point x="438" y="581"/>
      <point x="427" y="551"/>
      <point x="410" y="551" type="qcurve" smooth="yes"/>
      <point x="399" y="551"/>
      <point x="384" y="569"/>
      <point x="380" y="573" type="qcurve" smooth="yes"/>
      <point x="326" y="644"/>
      <point x="261" y="644" type="qcurve" smooth="yes"/>
      <point x="221" y="644"/>
      <point x="162" y="610"/>
      <point x="128" y="555"/>
      <point x="128" y="524" type="qcurve" smooth="yes"/>
      <point x="128" y="464"/>
      <point x="215" y="435" type="qcurve" smooth="yes"/>
      <point x="311" y="405" type="line" smooth="yes"/>
      <point x="475" y="357"/>
      <point x="475" y="192" type="qcurve" smooth="yes"/>
      <point x="475" y="133"/>
      <point x="425" y="35"/>
      <point x="322" y="-24"/>
    </contour>
  </outline>
</glyph>
<glyph name="W" format="2">
  <advance height="1000" width="500"/>
  <unicode hex="0057"/>
  <outline>
    <contour>
      <point x="370" y="-22" type="qcurve" smooth="yes"/>
      <point x="346" y="-22"/>
      <point x="300" y="16"/>
      <point x="294" y="45" type="qcurve" smooth="yes"/>
      <point x="264" y="374"/>
      <point x="247" y="508" type="qcurve"/>
      <point x="236" y="394" type="line" smooth="yes"/>
      <point x="202" y="50"/>
      <point x="201" y="7" type="qcurve" smooth="yes"/>
      <point x="198" y="-21"/>
      <point x="166" y="-21" type="qcurve" smooth="yes"/>
      <point x="142" y="-21"/>
      <point x="95" y="15"/>
      <point x="92" y="45" type="qcurve" smooth="yes"/>
      <point x="44" y="634"/>
      <point x="17" y="689" type="qcurve"/>
      <point x="17" y="711"/>
      <point x="47" y="711" type="qcurve" smooth="yes"/>
      <point x="65" y="711"/>
      <point x="106" y="692"/>
      <point x="109" y="678" type="qcurve" smooth="yes"/>
      <point x="110" y="670"/>
      <point x="110" y="655"/>
      <point x="112" y="641"/>
      <point x="112" y="622" type="qcurve" smooth="yes"/>
      <point x="128" y="469"/>
      <point x="148" y="216" type="qcurve"/>
      <point x="168" y="424"/>
      <point x="188" y="601" type="qcurve" smooth="yes"/>
      <point x="193" y="635"/>
      <point x="193" y="664"/>
      <point x="195" y="684"/>
      <point x="222" y="695"/>
      <point x="238" y="695" type="qcurve" smooth="yes"/>
      <point x="258" y="695"/>
      <point x="295" y="680"/>
      <point x="298" y="668" type="qcurve" smooth="yes"/>
      <point x="298" y="664"/>
      <point x="299" y="663" type="qcurve" smooth="yes"/>
      <point x="301" y="624" type="line"/>
      <point x="336" y="372"/>
      <point x="352" y="202" type="qcurve"/>
      <point x="368" y="408"/>
      <point x="388" y="577" type="qcurve" smooth="yes"/>
      <point x="397" y="640"/>
      <point x="397" y="691" type="qcurve" smooth="yes"/>
      <point x="400" y="712"/>
      <point x="427" y="712" type="qcurve" smooth="yes"/>
      <point x="445" y="712"/>
      <point x="483" y="691"/>
      <point x="483" y="671" type="qcurve"/>
      <point x="456" y="551"/>
      <point x="405" y="6" type="qcurve" smooth="yes"/>
      <point x="403" y="-22"/>
    </contour>
  </outline>
</glyph>
<glyph name="X" format="2">
  <advance height="1000" width="500"/>
  <unicode hex="0058"/>
  <outline>
    <contour>
      <point x="99" y="-16" type="qcurve" smooth="yes"/>
      <point x="81" y="-16"/>
      <point x="40" y="3"/>
      <point x="40" y="17" type="qcurve" smooth="yes"/>
      <point x="40" y="22"/>
      <point x="43" y="27" type="qcurve" smooth="yes"/>
      <point x="85" y="94"/>
      <point x="99" y="122" type="qcurve" smooth="yes"/>
      <point x="210" y="353" type="line"/>
      <point x="84" y="627"/>
      <point x="57" y="669" type="qcurve" smooth="yes"/>
      <point x="54" y="675"/>
      <point x="54" y="679" type="qcurve" smooth="yes"/>
      <point x="54" y="693"/>
      <point x="95" y="713"/>
      <point x="112" y="713" type="qcurve" smooth="yes"/>
      <point x="135" y="713"/>
      <point x="139" y="700" type="qcurve" smooth="yes"/>
      <point x="153" y="664"/>
      <point x="254" y="445" type="qcurve"/>
      <point x="354" y="653"/>
      <point x="371" y="694" type="qcurve" smooth="yes"/>
      <point x="375" y="706"/>
      <point x="393" y="706" type="qcurve" smooth="yes"/>
      <point x="411" y="706"/>
      <point x="452" y="679"/>
      <point x="452" y="665" type="qcurve" smooth="yes"/>
      <point x="450" y="657" type="line"/>
      <point x="427" y="625"/>
      <point x="408" y="583" type="qcurve" smooth="yes"/>
      <point x="296" y="352" type="line"/>
      <point x="402" y="121" type="line" smooth="yes"/>
      <point x="421" y="82"/>
      <point x="458" y="27" type="qcurve"/>
      <point x="460" y="21" type="line"/>
      <point x="460" y="7"/>
      <point x="418" y="-16"/>
      <point x="398" y="-16" type="qcurve" smooth="yes"/>
      <point x="378" y="-16"/>
      <point x="370" y="-1" type="qcurve" smooth="yes"/>
      <point x="354" y="40"/>
      <point x="252" y="260" type="qcurve"/>
      <point x="161" y="71"/>
      <point x="155" y="54" type="qcurve" smooth="yes"/>
      <point x="141" y="20"/>
      <point x="131" y="-1" type="qcurve" smooth="yes"/>
      <point x="125" y="-16"/>
    </contour>
  </outline>
</glyph>
<glyph name="bracketleft" format="2">
  <advance height="1000" width="500"/>
  <unicode hex="005B"/>
  <outline>
    <contour>
      <point x="208" y="-157" type="qcurve" smooth="yes"/>
      <point x="193" y="-157"/>
      <point x="164" y="-129"/>
      <point x="164" y="-114" type="qcurve" smooth="yes"/>
      <point x="168" y="-75"/>
      <point x="168" y="314" type="qcurve" smooth="yes"/>
      <point x="168" y="697"/>
      <point x="162" y="726"/>
      <point x="162" y="737" type="qcurve" smooth="yes"/>
      <point x="162" y="755"/>
      <point x="185" y="770"/>
      <point x="216" y="770" type="qcurve" smooth="yes"/>
      <point x="253" y="770"/>
      <point x="312" y="772" type="qcurve" smooth="yes"/>
      <point x="342" y="772" type="line" smooth="yes"/>
      <point x="357" y="772"/>
      <point x="378" y="744"/>
      <point x="378" y="729" type="qcurve" smooth="yes"/>
      <point x="378" y="705"/>
      <point x="358" y="705" type="qcurve" smooth="yes"/>
      <point x="245" y="705" type="line"/>
      <point x="245" y="-89" type="line"/>
      <point x="321" y="-86"/>
      <point x="338" y="-86" type="qcurve" smooth="yes"/>
      <point x="353" y="-86"/>
      <point x="375" y="-115"/>
      <point x="375" y="-130" type="qcurve" smooth="yes"/>
      <point x="375" y="-153"/>
      <point x="356" y="-153" type="qcurve" smooth="yes"/>
      <point x="230" y="-153"/>
    </contour>
  </outline>
</glyph>
<glyph name="backslash" format="2">
  <advance height="1000" width="500"/>
  <unicode hex="005C"/>
  <outline>
    <contour>
      <point x="423" y="-77" type="qcurve" smooth="yes"/>
      <point x="408" y="-77"/>
      <point x="403" y="-64" type="qcurve" smooth="yes"/>
      <point x="393" y="-33"/>
      <point x="377" y="1" type="qcurve" smooth="yes"/>
      <point x="78" y="673" type="line" smooth="yes"/>
      <point x="63" y="704"/>
      <point x="40" y="741" type="qcurve"/>
      <point x="40" y="747" type="line" smooth="yes"/>
      <point x="40" y="756"/>
      <point x="53" y="778"/>
      <point x="76" y="796"/>
      <point x="87" y="796" type="qcurve" smooth="yes"/>
      <point x="105" y="796"/>
      <point x="109" y="781" type="qcurve" smooth="yes"/>
      <point x="141" y="704"/>
      <point x="437" y="34" type="qcurve" smooth="yes"/>
      <point x="449" y="8"/>
      <point x="465" y="-17" type="qcurve" smooth="yes"/>
      <point x="468" y="-22"/>
      <point x="468" y="-29" type="qcurve" smooth="yes"/>
      <point x="468" y="-43"/>
      <point x="439" y="-77"/>
    </contour>
  </outline>
</glyph>
<glyph name="bracketright" format="2">
  <advance height="1000" width="500"/>
  <unicode hex="005D"/>
  <outline>
    <contour>
      <point x="160" y="-156" type="qcurve" smooth="yes"/>
      <point x="143" y="-156"/>
      <point x="122" y="-128"/>
      <point x="122" y="-113" type="qcurve" smooth="yes"/>
      <point x="122" y="-89"/>
      <point x="142" y="-89" type="qcurve" smooth="yes"/>
      <point x="255" y="-89" type="line"/>
      <point x="255" y="705" type="line"/>
      <point x="181" y="702"/>
      <point x="162" y="702" type="qcurve" smooth="yes"/>
      <point x="147" y="702"/>
      <point x="126" y="731"/>
      <point x="126" y="746" type="qcurve" smooth="yes"/>
      <point x="126" y="769"/>
      <point x="144" y="769" type="qcurve" smooth="yes"/>
      <point x="281" y="769"/>
      <point x="291" y="773" type="qcurve"/>
      <point x="308" y="773"/>
      <point x="336" y="745"/>
      <point x="336" y="730" type="qcurve" smooth="yes"/>
      <point x="336" y="714"/>
      <point x="333" y="689" type="qcurve" smooth="yes"/>
      <point x="332" y="676"/>
      <point x="332" y="-62" type="qcurve" smooth="yes"/>
      <point x="332" y="-80"/>
      <point x="338" y="-109"/>
      <point x="338" y="-121" type="qcurve" smooth="yes"/>
      <point x="338" y="-138"/>
      <point x="315" y="-154"/>
      <point x="285" y="-154" type="qcurve" smooth="yes"/>
      <point x="238" y="-154" type="line" smooth="yes"/>
      <point x="211" y="-155"/>
      <point x="168" y="-155"/>
    </contour>
  </outline>
</glyph>
<glyph name="asciicircum" format="2">
  <advance height="1000" width="500"/>
  <unicode hex="005E"/>
  <outline>
    <contour>
      <point x="110" y="457" type="qcurve" smooth="yes"/>
      <point x="94" y="457"/>
      <point x="57" y="474"/>
      <point x="57" y="488" type="qcurve"/>
      <point x="59" y="494" type="line"/>
      <point x="82" y="526"/>
      <point x="98" y="554" type="qcurve" smooth="yes"/>
      <point x="206" y="742" type="line" smooth="yes"/>
      <point x="212" y="753"/>
      <point x="214" y="765" type="qcurve" smooth="yes"/>
      <point x="218" y="790"/>
      <point x="257" y="790" type="qcurve" smooth="yes"/>
      <point x="277" y="790"/>
      <point x="288" y="767"/>
      <point x="294" y="755" type="qcurve" smooth="yes"/>
      <point x="409" y="551" type="line"/>
      <point x="450" y="482" type="line"/>
      <point x="450" y="471"/>
      <point x="421" y="459"/>
      <point x="406" y="459" type="qcurve" smooth="yes"/>
      <point x="376" y="459"/>
      <point x="368" y="475" type="qcurve" smooth="yes"/>
      <point x="357" y="501"/>
      <point x="339" y="534" type="qcurve" smooth="yes"/>
      <point x="253" y="689" type="line"/>
      <point x="162" y="526"/>
      <point x="134" y="467" type="qcurve" smooth="yes"/>
      <point x="129" y="457"/>
    </contour>
  </outline>
</glyph>
<glyph name="c" format="2">
  <advance height="1000" width="500"/>
  <unicode hex="0063"/>
  <outline>
    <contour>
      <point x="237" y="-24" type="qcurve" smooth="yes"/>
      <point x="187" y="-24"/>
      <point x="103" y="28"/>
      <point x="53" y="127"/>
      <point x="53" y="194" type="qcurve" smooth="yes"/>
      <point x="53" y="311"/>
      <point x="128" y="403" type="qcurve"/>
      <point x="207" y="492"/>
      <point x="294" y="492" type="qcurve" smooth="yes"/>
      <point x="365" y="492"/>
      <point x="404" y="450" type="qcurve" smooth="yes"/>
      <point x="433" y="420"/>
      <point x="433" y="401" type="qcurve" smooth="yes"/>
      <point x="433" y="384"/>
      <point x="402" y="349"/>
      <point x="386" y="349" type="qcurve" smooth="yes"/>
      <point x="373" y="349"/>
      <point x="367" y="363" type="qcurve" smooth="yes"/>
      <point x="347" y="421"/>
      <point x="296" y="421" type="qcurve" smooth="yes"/>
      <point x="246" y="421"/>
      <point x="190" y="357" type="qcurve" smooth="yes"/>
      <point x="133" y="288"/>
      <point x="133" y="199" type="qcurve" smooth="yes"/>
      <point x="133" y="147"/>
      <point x="166" y="79"/>
      <point x="215" y="46"/>
      <point x="237" y="46" type="qcurve" smooth="yes"/>
      <point x="326" y="46"/>
      <point x="412" y="143" type="qcurve" smooth="yes"/>
      <point x="428" y="161"/>
      <point x="442" y="161" type="qcurve" smooth="yes"/>
      <point x="458" y="161"/>
      <point x="458" y="143" type="qcurve" smooth="yes"/>
      <point x="458" y="137"/>
      <point x="432" y="84"/>
      <point x="379" y="23"/>
      <point x="296" y="-24"/>
    </contour>
  </outline>
</glyph>
<glyph name="d" format="2">
  <advance height="1000" width="500"/>
  <unicode hex="0064"/>
  <outline>
    <contour>
      <point x="197" y="-24" type="qcurve" smooth="yes"/>
      <point x="126" y="-24"/>
      <point x="40" y="87"/>
      <point x="40" y="186" type="qcurve" smooth="yes"/>
      <point x="40" y="306"/>
      <point x="181" y="492"/>
      <point x="273" y="492" type="qcurve" smooth="yes"/>
      <point x="348" y="492"/>
      <point x="365" y="465" type="qcurve"/>
      <point x="365" y="555"/>
      <point x="361" y="699" type="qcurve" smooth="yes"/>
      <point x="361" y="715"/>
      <point x="388" y="715" type="qcurve" smooth="yes"/>
      <point x="405" y="715"/>
      <point x="444" y="697"/>
      <point x="444" y="681" type="qcurve" smooth="yes"/>
      <point x="444" y="669"/>
      <point x="442" y="618"/>
      <point x="442" y="185" type="qcurve" smooth="yes"/>
      <point x="442" y="84"/>
      <point x="473" y="41" type="qcurve"/>
      <point x="475" y="33" type="line" smooth="yes"/>
      <point x="475" y="19"/>
      <point x="446" y="-18"/>
      <point x="426" y="-18" type="qcurve" smooth="yes"/>
      <point x="398" y="-18"/>
      <point x="383" y="37" type="qcurve" smooth="yes"/>
      <point x="370" y="85"/>
      <point x="368" y="85" type="qcurve"/>
      <point x="368" y="83" type="line"/>
      <point x="311" y="-24"/>
    </contour>
    <contour>
      <point x="197" y="48" type="qcurve" smooth="yes"/>
      <point x="247" y="48"/>
      <point x="365" y="184"/>
      <point x="365" y="276" type="qcurve" smooth="yes"/>
      <point x="365" y="376" type="line"/>
      <point x="365" y="371"/>
      <point x="361" y="371" type="qcurve" smooth="yes"/>
      <point x="356" y="371"/>
      <point x="349" y="379" type="qcurve" smooth="yes"/>
      <point x="316" y="422"/>
      <point x="274" y="422" type="qcurve" smooth="yes"/>
      <point x="214" y="422"/>
      <point x="119" y="277"/>
      <point x="119" y="189" type="qcurve" smooth="yes"/>
      <point x="119" y="117"/>
      <point x="164" y="48"/>
    </contour>
  </outline>
</glyph>
<glyph name="h" format="2">
  <advance height="1000" width="500"/>
  <unicode hex="0068"/>
  <outline>
    <contour>
      <point x="116" y="-17" type="qcurve" smooth="yes"/>
      <point x="99" y="-17"/>
      <point x="61" y="1"/>
      <point x="61" y="17" type="qcurve" smooth="yes"/>
      <point x="62" y="88" type="line"/>
      <point x="62" y="600"/>
      <point x="61" y="642"/>
      <point x="60" y="687"/>
      <point x="60" y="697" type="qcurve" smooth="yes"/>
      <point x="60" y="713"/>
      <point x="86" y="713" type="qcurve" smooth="yes"/>
      <point x="103" y="713"/>
      <point x="142" y="695"/>
      <point x="142" y="679" type="qcurve" smooth="yes"/>
      <point x="140" y="547"/>
      <point x="140" y="409" type="qcurve"/>
      <point x="153" y="432"/>
      <point x="249" y="491"/>
      <point x="302" y="491" type="qcurve" smooth="yes"/>
      <point x="388" y="491"/>
      <point x="421" y="424" type="qcurve" smooth="yes"/>
      <point x="444" y="376"/>
      <point x="444" y="297" type="qcurve" smooth="yes"/>
      <point x="444" y="118"/>
      <point x="447" y="-2" type="qcurve" smooth="yes"/>
      <point x="447" y="-17"/>
      <point x="421" y="-17" type="qcurve" smooth="yes"/>
      <point x="404" y="-17"/>
      <point x="365" y="1"/>
      <point x="365" y="17" type="qcurve" smooth="yes"/>
      <point x="367" y="84" type="line"/>
      <point x="367" y="293" type="line" smooth="yes"/>
      <point x="367" y="351"/>
      <point x="340" y="417"/>
      <point x="302" y="417" type="qcurve" smooth="yes"/>
      <point x="236" y="417"/>
      <point x="192" y="364" type="qcurve" smooth="yes"/>
      <point x="150" y="311"/>
      <point x="145" y="229" type="qcurve" smooth="yes"/>
      <point x="141" y="187"/>
      <point x="140" y="115" type="qcurve" smooth="yes"/>
      <point x="140" y="55"/>
      <point x="141" y="23" type="qcurve" smooth="yes"/>
      <point x="142" y="-2" type="line" smooth="yes"/>
      <point x="142" y="-17"/>
    </contour>
  </outline>
</glyph>
<glyph name="j" format="2">
  <advance height="1000" width="500"/>
  <unicode hex="006A"/>
  <outline>
    <contour>
      <point x="201" y="-181" type="qcurve" smooth="yes"/>
      <point x="95" y="-181"/>
      <point x="51" y="-85" type="qcurve" smooth="yes"/>
      <point x="48" y="-79"/>
      <point x="48" y="-76" type="qcurve" smooth="yes"/>
      <point x="48" y="-61"/>
      <point x="76" y="-22"/>
      <point x="95" y="-22" type="qcurve" smooth="yes"/>
      <point x="116" y="-22"/>
      <point x="120" y="-38" type="qcurve" smooth="yes"/>
      <point x="132" y="-79"/>
      <point x="168" y="-108"/>
      <point x="201" y="-108" type="qcurve" smooth="yes"/>
      <point x="269" y="-108"/>
      <point x="307" y="-37" type="qcurve" smooth="yes"/>
      <point x="324" y="-1"/>
      <point x="324" y="51" type="qcurve" smooth="yes"/>
      <point x="324" y="420" type="line"/>
      <point x="285" y="416"/>
      <point x="189" y="416"/>
      <point x="179" y="415" type="qcurve" smooth="yes"/>
      <point x="158" y="415"/>
      <point x="142" y="459"/>
      <point x="142" y="474" type="qcurve" smooth="yes"/>
      <point x="142" y="497"/>
      <point x="165" y="497" type="qcurve"/>
      <point x="192" y="491"/>
      <point x="229" y="491" type="qcurve" smooth="yes"/>
      <point x="332" y="491"/>
      <point x="360" y="501" type="qcurve"/>
      <point x="389" y="501"/>
      <point x="402" y="466" type="qcurve" smooth="yes"/>
      <point x="407" y="455"/>
      <point x="407" y="449" type="qcurve" smooth="yes"/>
      <point x="407" y="441"/>
      <point x="402" y="428"/>
      <point x="400" y="50" type="qcurve" smooth="yes"/>
      <point x="400" y="-92"/>
      <point x="303" y="-153" type="qcurve" smooth="yes"/>
      <point x="257" y="-181"/>
    </contour>
    <contour>
      <point x="356" y="584" type="qcurve" smooth="yes"/>
      <point x="334" y="584"/>
      <point x="302" y="628"/>
      <point x="302" y="650" type="qcurve" smooth="yes"/>
      <point x="302" y="671"/>
      <point x="329" y="704"/>
      <point x="356" y="704" type="qcurve" smooth="yes"/>
      <point x="378" y="704"/>
      <point x="409" y="659"/>
      <point x="409" y="636" type="qcurve" smooth="yes"/>
      <point x="409" y="616"/>
      <point x="382" y="584"/>
    </contour>
  </outline>
</glyph>
<glyph name="k" format="2">
  <advance height="1000" width="500"/>
  <unicode hex="006B"/>
  <outline>
    <contour>
      <point x="407" y="-20" type="qcurve" smooth="yes"/>
      <point x="391" y="-20"/>
      <point x="344" y="31" type="qcurve" smooth="yes"/>
      <point x="306" y="75"/>
      <point x="196" y="209"/>
      <point x="161" y="248" type="qcurve"/>
      <point x="150" y="241" type="line"/>
      <point x="150" y="103"/>
      <point x="151" y="95" type="qcurve" smooth="yes"/>
      <point x="155" y="46"/>
      <point x="155" y="0" type="qcurve" smooth="yes"/>
      <point x="155" y="-16"/>
      <point x="128" y="-16" type="qcurve" smooth="yes"/>
      <point x="111" y="-16"/>
      <point x="71" y="2"/>
      <point x="71" y="18" type="qcurve" smooth="yes"/>
      <point x="73" y="81" type="line"/>
      <point x="73" y="600"/>
      <point x="72" y="642"/>
      <point x="70" y="687"/>
      <point x="70" y="697" type="qcurve" smooth="yes"/>
      <point x="72" y="713"/>
      <point x="97" y="713" type="qcurve" smooth="yes"/>
      <point x="114" y="713"/>
      <point x="154" y="695"/>
      <point x="154" y="679" type="qcurve" smooth="yes"/>
      <point x="150" y="583"/>
      <point x="150" y="330" type="qcurve"/>
      <point x="303" y="448" type="line" smooth="yes"/>
      <point x="315" y="456"/>
      <point x="334" y="476"/>
      <point x="345" y="490"/>
      <point x="360" y="490" type="qcurve" smooth="yes"/>
      <point x="373" y="490"/>
      <point x="402" y="479"/>
      <point x="424" y="462"/>
      <point x="424" y="452" type="qcurve" smooth="yes"/>
      <point x="424" y="444"/>
      <point x="379" y="416" type="qcurve" smooth="yes"/>
      <point x="358" y="401"/>
      <point x="218" y="292" type="qcurve"/>
      <point x="240" y="268"/>
      <point x="308" y="187"/>
      <point x="409" y="72" type="qcurve" smooth="yes"/>
      <point x="431" y="51"/>
      <point x="459" y="34" type="qcurve" smooth="yes"/>
      <point x="467" y="31"/>
      <point x="467" y="23" type="qcurve" smooth="yes"/>
      <point x="467" y="15"/>
      <point x="448" y="-5"/>
      <point x="421" y="-20"/>
    </contour>
  </outline>
</glyph>
<glyph name="q" format="2">
  <advance height="1000" width="500"/>
  <unicode hex="0071"/>
  <outline>
    <contour>
      <point x="421" y="-182" type="qcurve" smooth="yes"/>
      <point x="404" y="-182"/>
      <point x="364" y="-164"/>
      <point x="364" y="-148" type="qcurve" smooth="yes"/>
      <point x="367" y="-46"/>
      <point x="368" y="75" type="qcurve"/>
      <point x="352" y="42"/>
      <point x="254" y="-24"/>
      <point x="197" y="-24" type="qcurve" smooth="yes"/>
      <point x="126" y="-24"/>
      <point x="41" y="87"/>
      <point x="41" y="186" type="qcurve" smooth="yes"/>
      <point x="41" y="306"/>
      <point x="181" y="492"/>
      <point x="274" y="492" type="qcurve" smooth="yes"/>
      <point x="344" y="492"/>
      <point x="364" y="467" type="qcurve"/>
      <point x="364" y="475" type="line" smooth="yes"/>
      <point x="364" y="491"/>
      <point x="391" y="491" type="qcurve" smooth="yes"/>
      <point x="408" y="491"/>
      <point x="447" y="473"/>
      <point x="447" y="457" type="qcurve" smooth="yes"/>
      <point x="447" y="445"/>
      <point x="445" y="394"/>
      <point x="445" y="-60" type="qcurve" smooth="yes"/>
      <point x="445" y="-91"/>
      <point x="448" y="-149"/>
      <point x="448" y="-166" type="qcurve" smooth="yes"/>
      <point x="448" y="-182"/>
    </contour>
    <contour>
      <point x="197" y="48" type="qcurve" smooth="yes"/>
      <point x="248" y="48"/>
      <point x="366" y="184"/>
      <point x="366" y="276" type="qcurve" smooth="yes"/>
      <point x="366" y="375" type="line"/>
      <point x="366" y="371"/>
      <point x="362" y="371" type="qcurve" smooth="yes"/>
      <point x="358" y="371"/>
      <point x="349" y="379" type="qcurve" smooth="yes"/>
      <point x="317" y="422"/>
      <point x="275" y="422" type="qcurve" smooth="yes"/>
      <point x="215" y="422"/>
      <point x="120" y="277"/>
      <point x="120" y="189" type="qcurve" smooth="yes"/>
      <point x="120" y="117"/>
      <point x="164" y="48"/>
    </contour>
  </outline>
</glyph>
<glyph name="r" format="2">
  <advance height="1000" width="500"/>
  <unicode hex="0072"/>
  <outline>
    <contour>
      <point x="156" y="-16" type="qcurve" smooth="yes"/>
      <point x="139" y="-16"/>
      <point x="97" y="1"/>
      <point x="97" y="18" type="qcurve" smooth="yes"/>
      <point x="99" y="81" type="line"/>
      <point x="99" y="378"/>
      <point x="98" y="398" type="qcurve" smooth="yes"/>
      <point x="96" y="454"/>
      <point x="96" y="474" type="qcurve" smooth="yes"/>
      <point x="98" y="490"/>
      <point x="122" y="490" type="qcurve" smooth="yes"/>
      <point x="139" y="490"/>
      <point x="181" y="473"/>
      <point x="181" y="456" type="qcurve" smooth="yes"/>
      <point x="181" y="436"/>
      <point x="180" y="429" type="qcurve"/>
      <point x="221" y="492"/>
      <point x="320" y="492" type="qcurve" smooth="yes"/>
      <point x="382" y="492"/>
      <point x="423" y="457" type="qcurve" smooth="yes"/>
      <point x="441" y="441"/>
      <point x="441" y="426" type="qcurve" smooth="yes"/>
      <point x="441" y="408"/>
      <point x="415" y="368"/>
      <point x="399" y="368" type="qcurve" smooth="yes"/>
      <point x="389" y="368"/>
      <point x="380" y="381" type="qcurve" smooth="yes"/>
      <point x="370" y="398"/>
      <point x="331" y="415"/>
      <point x="317" y="415" type="qcurve" smooth="yes"/>
      <point x="277" y="415"/>
      <point x="243" y="390" type="qcurve" smooth="yes"/>
      <point x="178" y="343"/>
      <point x="178" y="201" type="qcurve" smooth="yes"/>
      <point x="177" y="163"/>
      <point x="177" y="106" type="qcurve" smooth="yes"/>
      <point x="177" y="75"/>
      <point x="182" y="17"/>
      <point x="182" y="0" type="qcurve" smooth="yes"/>
      <point x="182" y="-16"/>
    </contour>
  </outline>
</glyph>
<glyph name="v" format="2">
  <advance height="1000" width="500"/>
  <unicode hex="0076"/>
  <outline>
    <contour>
      <point x="254" y="-24" type="qcurve" smooth="yes"/>
      <point x="241" y="-24"/>
      <point x="230" y="-16" type="qcurve" smooth="yes"/>
      <point x="208" y="-2"/>
      <point x="202" y="17" type="qcurve" smooth="yes"/>
      <point x="67" y="416"/>
      <point x="48" y="460" type="qcurve"/>
      <point x="48" y="487"/>
      <point x="95" y="487" type="qcurve" smooth="yes"/>
      <point x="130" y="487"/>
      <point x="136" y="468" type="qcurve" smooth="yes"/>
      <point x="151" y="410"/>
      <point x="245" y="116" type="qcurve"/>
      <point x="353" y="406" type="line" smooth="yes"/>
      <point x="365" y="440"/>
      <point x="374" y="477" type="qcurve" smooth="yes"/>
      <point x="379" y="492"/>
      <point x="401" y="492" type="qcurve" smooth="yes"/>
      <point x="419" y="492"/>
      <point x="458" y="472"/>
      <point x="458" y="456" type="qcurve"/>
      <point x="435" y="405"/>
      <point x="305" y="64" type="qcurve" smooth="yes"/>
      <point x="294" y="35"/>
      <point x="277" y="-24"/>
    </contour>
  </outline>
</glyph>
<glyph name="x" format="2">
  <advance height="500" width="500"/>
  <unicode hex="0078"/>
  <outline>
    <contour>
      <point x="103" y="-17" type="qcurve" smooth="yes"/>
      <point x="123" y="-17"/>
      <point x="140" y="2"/>
      <point x="162" y="45"/>
      <point x="251" y="179" type="qcurve"/>
      <point x="350" y="26"/>
      <point x="362" y="2"/>
      <point x="377" y="-15"/>
      <point x="397" y="-15" type="qcurve" smooth="yes"/>
      <point x="415" y="-15"/>
      <point x="453" y="1"/>
      <point x="453" y="13" type="qcurve" smooth="yes"/>
      <point x="453" y="19"/>
      <point x="436" y="40" type="qcurve" smooth="yes"/>
      <point x="405" y="79"/>
      <point x="394" y="94" type="qcurve" smooth="yes"/>
      <point x="294" y="245" type="line"/>
      <point x="392" y="394" type="line" smooth="yes"/>
      <point x="412" y="422"/>
      <point x="439" y="453" type="qcurve"/>
      <point x="442" y="459" type="line"/>
      <point x="442" y="471"/>
      <point x="401" y="489"/>
      <point x="384" y="489" type="qcurve" smooth="yes"/>
      <point x="367" y="489"/>
      <point x="359" y="479" type="qcurve" smooth="yes"/>
      <point x="345" y="452"/>
      <point x="252" y="310" type="qcurve"/>
      <point x="159" y="452"/>
      <point x="148" y="474" type="qcurve" smooth="yes"/>
      <point x="144" y="485"/>
      <point x="124" y="485" type="qcurve" smooth="yes"/>
      <point x="113" y="485"/>
      <point x="86" y="478"/>
      <point x="63" y="464"/>
      <point x="63" y="454" type="qcurve"/>
      <point x="67" y="448" type="line"/>
      <point x="96" y="416"/>
      <point x="114" y="390" type="qcurve" smooth="yes"/>
      <point x="209" y="244" type="line"/>
      <point x="108" y="92" type="line" smooth="yes"/>
      <point x="73" y="44"/>
      <point x="53" y="21" type="qcurve" smooth="yes"/>
      <point x="48" y="17"/>
      <point x="48" y="10" type="qcurve" smooth="yes"/>
      <point x="48" y="-1"/>
      <point x="85" y="-17"/>
    </contour>
  </outline>
</glyph>
<glyph name="braceright" format="2">
  <advance height="1000" width="500"/>
  <unicode hex="007D"/>
  <outline>
    <contour>
      <point x="115" y="-162" type="line"/>
      <point x="95" y="-162"/>
      <point x="95" y="-143" type="qcurve" smooth="yes"/>
      <point x="95" y="-127"/>
      <point x="111" y="-120" type="qcurve" smooth="yes"/>
      <point x="195" y="-81"/>
      <point x="195" y="-4" type="qcurve" smooth="yes"/>
      <point x="192" y="60" type="line" smooth="yes"/>
      <point x="187" y="114"/>
      <point x="187" y="154" type="qcurve" smooth="yes"/>
      <point x="187" y="183"/>
      <point x="202" y="245"/>
      <point x="241" y="300"/>
      <point x="261" y="309" type="qcurve"/>
      <point x="233" y="317"/>
      <point x="187" y="387"/>
      <point x="187" y="430" type="qcurve" smooth="yes"/>
      <point x="187" y="511"/>
      <point x="205" y="613"/>
      <point x="205" y="627" type="qcurve" smooth="yes"/>
      <point x="205" y="708"/>
      <point x="112" y="748" type="qcurve" smooth="yes"/>
      <point x="95" y="757"/>
      <point x="95" y="773" type="qcurve" smooth="yes"/>
      <point x="97" y="788"/>
      <point x="114" y="788" type="qcurve" smooth="yes"/>
      <point x="124" y="788"/>
      <point x="129" y="786"/>
      <point x="130" y="786" type="qcurve" smooth="yes"/>
      <point x="286" y="749"/>
      <point x="286" y="627" type="qcurve" smooth="yes"/>
      <point x="286" y="595"/>
      <point x="268" y="507"/>
      <point x="268" y="434" type="qcurve" smooth="yes"/>
      <point x="268" y="386"/>
      <point x="305" y="359" type="qcurve" smooth="yes"/>
      <point x="327" y="343"/>
      <point x="368" y="341" type="qcurve" smooth="yes"/>
      <point x="385" y="340"/>
      <point x="406" y="312"/>
      <point x="406" y="294" type="qcurve" smooth="yes"/>
      <point x="406" y="271"/>
      <point x="385" y="271" type="qcurve" smooth="yes"/>
      <point x="372" y="271" type="line" smooth="yes"/>
      <point x="269" y="271"/>
      <point x="269" y="151" type="qcurve" smooth="yes"/>
      <point x="269" y="116"/>
      <point x="275" y="42" type="qcurve" smooth="yes"/>
      <point x="277" y="-6" type="line" smooth="yes"/>
      <point x="277" y="-83"/>
      <point x="197" y="-128" type="qcurve" smooth="yes"/>
      <point x="157" y="-152"/>
      <point x="131" y="-157" type="qcurve" smooth="yes"/>
    </contour>
  </outline>
</glyph>
<glyph name="sterling" format="2">
  <advance height="1000" width="500"/>
  <unicode hex="00A3"/>
  <outline>
    <contour>
      <point x="52" y="-23" type="qcurve" smooth="yes"/>
      <point x="15" y="-23"/>
      <point x="15" y="-4" type="qcurve" smooth="yes"/>
      <point x="17" y="12" type="line" smooth="yes"/>
      <point x="25" y="54"/>
      <point x="78" y="54"/>
      <point x="112" y="136"/>
      <point x="112" y="217" type="qcurve" smooth="yes"/>
      <point x="112" y="283"/>
      <point x="109" y="309" type="qcurve"/>
      <point x="83" y="308"/>
      <point x="71" y="302"/>
      <point x="61" y="302" type="qcurve" smooth="yes"/>
      <point x="44" y="302"/>
      <point x="24" y="341"/>
      <point x="24" y="355" type="qcurve" smooth="yes"/>
      <point x="24" y="377"/>
      <point x="44" y="377" type="qcurve" smooth="yes"/>
      <point x="79" y="377"/>
      <point x="100" y="378" type="qcurve" smooth="yes"/>
      <point x="103" y="378" type="line"/>
      <point x="97" y="478" type="line"/>
      <point x="97" y="623"/>
      <point x="186" y="689" type="qcurve" smooth="yes"/>
      <point x="229" y="720"/>
      <point x="284" y="720" type="qcurve" smooth="yes"/>
      <point x="293" y="720"/>
      <point x="343" y="715"/>
      <point x="411" y="682"/>
      <point x="448" y="646" type="qcurve" smooth="yes"/>
      <point x="455" y="638"/>
      <point x="455" y="628" type="qcurve" smooth="yes"/>
      <point x="455" y="613"/>
      <point x="428" y="578"/>
      <point x="411" y="578" type="qcurve" smooth="yes"/>
      <point x="400" y="578"/>
      <point x="394" y="585" type="qcurve" smooth="yes"/>
      <point x="364" y="617"/>
      <point x="317" y="648"/>
      <point x="283" y="648" type="qcurve" smooth="yes"/>
      <point x="246" y="648"/>
      <point x="199" y="599"/>
      <point x="178" y="518"/>
      <point x="178" y="476" type="qcurve" smooth="yes"/>
      <point x="178" y="455"/>
      <point x="183" y="381" type="qcurve"/>
      <point x="358" y="391" type="line" smooth="yes"/>
      <point x="377" y="391"/>
      <point x="396" y="352"/>
      <point x="396" y="337" type="qcurve" smooth="yes"/>
      <point x="396" y="316"/>
      <point x="376" y="316" type="qcurve" smooth="yes"/>
      <point x="365" y="317"/>
      <point x="311" y="317" type="qcurve" smooth="yes"/>
      <point x="284" y="317"/>
      <point x="188" y="312" type="qcurve"/>
      <point x="191" y="290"/>
      <point x="191" y="260" type="qcurve" smooth="yes"/>
      <point x="191" y="129"/>
      <point x="170" y="81" type="qcurve"/>
      <point x="202" y="81"/>
      <point x="231" y="74" type="qcurve" smooth="yes"/>
      <point x="265" y="65"/>
      <point x="324" y="46"/>
      <point x="349" y="46" type="qcurve" smooth="yes"/>
      <point x="399" y="46"/>
      <point x="434" y="67" type="qcurve" smooth="yes"/>
      <point x="449" y="75"/>
      <point x="461" y="75" type="qcurve" smooth="yes"/>
      <point x="484" y="75"/>
      <point x="484" y="57" type="qcurve" smooth="yes"/>
      <point x="484" y="46"/>
      <point x="449" y="7"/>
      <point x="390" y="-23"/>
      <point x="352" y="-23" type="qcurve" smooth="yes"/>
      <point x="314" y="-23"/>
      <point x="264" y="-6" type="qcurve" smooth="yes"/>
      <point x="223" y="9"/>
      <point x="163" y="9" type="qcurve" smooth="yes"/>
      <point x="138" y="9"/>
      <point x="107" y="-5"/>
      <point x="77" y="-23"/>
    </contour>
  </outline>
</glyph>
<glyph name="currency" format="2">
  <advance height="1000" width="500"/>
  <unicode hex="00A4"/>
  <outline>
    <contour>
      <point x="78" y="116" type="qcurve" smooth="yes"/>
      <point x="62" y="116"/>
      <point x="23" y="148"/>
      <point x="23" y="164" type="qcurve" smooth="yes"/>
      <point x="23" y="172"/>
      <point x="30" y="180" type="qcurve" smooth="yes"/>
      <point x="68" y="209"/>
      <point x="98" y="239" type="qcurve"/>
      <point x="73" y="277"/>
      <point x="73" y="331" type="qcurve" smooth="yes"/>
      <point x="73" y="384"/>
      <point x="96" y="419" type="qcurve"/>
      <point x="69" y="448"/>
      <point x="35" y="473" type="qcurve" smooth="yes"/>
      <point x="28" y="479"/>
      <point x="28" y="488" type="qcurve" smooth="yes"/>
      <point x="28" y="505"/>
      <point x="67" y="536"/>
      <point x="83" y="536" type="qcurve" smooth="yes"/>
      <point x="94" y="536"/>
      <point x="100" y="529" type="qcurve" smooth="yes"/>
      <point x="119" y="504"/>
      <point x="145" y="478" type="qcurve"/>
      <point x="195" y="516"/>
      <point x="258" y="516" type="qcurve" smooth="yes"/>
      <point x="320" y="516"/>
      <point x="365" y="481" type="qcurve"/>
      <point x="389" y="505"/>
      <point x="407" y="529" type="qcurve" smooth="yes"/>
      <point x="415" y="536"/>
      <point x="424" y="536" type="qcurve" smooth="yes"/>
      <point x="440" y="536"/>
      <point x="479" y="506"/>
      <point x="479" y="489" type="qcurve" smooth="yes"/>
      <point x="479" y="479"/>
      <point x="472" y="473" type="qcurve" smooth="yes"/>
      <point x="445" y="452"/>
      <point x="417" y="425" type="qcurve"/>
      <point x="443" y="384"/>
      <point x="443" y="331" type="qcurve" smooth="yes"/>
      <point x="443" y="275"/>
      <point x="415" y="234" type="qcurve"/>
      <point x="428" y="221"/>
      <point x="448" y="205" type="qcurve" smooth="yes"/>
      <point x="459" y="196"/>
      <point x="473" y="183"/>
      <point x="484" y="175"/>
      <point x="484" y="164" type="qcurve" smooth="yes"/>
      <point x="484" y="148"/>
      <point x="445" y="116"/>
      <point x="428" y="116" type="qcurve" smooth="yes"/>
      <point x="420" y="116"/>
      <point x="412" y="123" type="qcurve" smooth="yes"/>
      <point x="393" y="151"/>
      <point x="363" y="178" type="qcurve"/>
      <point x="320" y="146"/>
      <point x="258" y="146" type="qcurve" smooth="yes"/>
      <point x="195" y="146"/>
      <point x="148" y="182" type="qcurve"/>
      <point x="116" y="152"/>
      <point x="95" y="123" type="qcurve" smooth="yes"/>
      <point x="89" y="116"/>
    </contour>
    <contour>
      <point x="258" y="219" type="qcurve" smooth="yes"/>
      <point x="305" y="219"/>
      <point x="370" y="284"/>
      <point x="370" y="331" type="qcurve" smooth="yes"/>
      <point x="370" y="379"/>
      <point x="306" y="443"/>
      <point x="258" y="443" type="qcurve" smooth="yes"/>
      <point x="211" y="443"/>
      <point x="146" y="378"/>
      <point x="146" y="331" type="qcurve" smooth="yes"/>
      <point x="146" y="284"/>
      <point x="211" y="219"/>
    </contour>
  </outline>
</glyph>
<glyph name="brokenbar" format="2">
  <advance height="1000" width="500"/>
  <unicode hex="00A6"/>
  <outline>
    <contour>
      <point x="209" y="428" type="line"/>
      <point x="209" y="723" type="line"/>
      <point x="290" y="723" type="line"/>
      <point x="290" y="428" type="line"/>
    </contour>
    <contour>
      <point x="209" y="-22" type="line"/>
      <point x="209" y="273" type="line"/>
      <point x="290" y="273" type="line"/>
      <point x="290" y="-22" type="line"/>
    </contour>
  </outline>
</glyph>
<glyph name="copyright" format="2">
  <advance height="1000" width="500"/>
  <unicode hex="00A9"/>
  <outline>
    <contour>
      <point x="79" y="168" type="qcurve" smooth="yes"/>
      <point x="7" y="238"/>
      <point x="7" y="338" type="qcurve" smooth="yes"/>
      <point x="7" y="439"/>
      <point x="149" y="581"/>
      <point x="249" y="581" type="qcurve" smooth="yes"/>
      <point x="350" y="581"/>
      <point x="492" y="439"/>
      <point x="492" y="239"/>
      <point x="350" y="96"/>
      <point x="148" y="96"/>
    </contour>
    <contour>
      <point x="234" y="183" type="qcurve" smooth="yes"/>
      <point x="200" y="183"/>
      <point x="144" y="216"/>
      <point x="108" y="276"/>
      <point x="108" y="318" type="qcurve" smooth="yes"/>
      <point x="108" y="391"/>
      <point x="212" y="500"/>
      <point x="272" y="500" type="qcurve" smooth="yes"/>
      <point x="307" y="500"/>
      <point x="349" y="477"/>
      <point x="368" y="448"/>
      <point x="368" y="440" type="qcurve" smooth="yes"/>
      <point x="368" y="427"/>
      <point x="345" y="401"/>
      <point x="334" y="401" type="qcurve" smooth="yes"/>
      <point x="321" y="401"/>
      <point x="311" y="426" type="qcurve" smooth="yes"/>
      <point x="309" y="430"/>
      <point x="304" y="433" type="qcurve" smooth="yes"/>
      <point x="289" y="444"/>
      <point x="274" y="444" type="qcurve" smooth="yes"/>
      <point x="249" y="444"/>
      <point x="203" y="413"/>
      <point x="171" y="357"/>
      <point x="171" y="321" type="qcurve" smooth="yes"/>
      <point x="171" y="292"/>
      <point x="191" y="255"/>
      <point x="222" y="239"/>
      <point x="234" y="239" type="qcurve" smooth="yes"/>
      <point x="296" y="239"/>
      <point x="337" y="276" type="qcurve" smooth="yes"/>
      <point x="347" y="283"/>
      <point x="355" y="283" type="qcurve" smooth="yes"/>
      <point x="372" y="283"/>
      <point x="372" y="266" type="qcurve" smooth="yes"/>
      <point x="372" y="259"/>
      <point x="366" y="249" type="qcurve" smooth="yes"/>
      <point x="342" y="214"/>
      <point x="280" y="183"/>
    </contour>
    <contour>
      <point x="62" y="339" type="qcurve" smooth="yes"/>
      <point x="62" y="260"/>
      <point x="172" y="150"/>
      <point x="328" y="150"/>
      <point x="438" y="260"/>
      <point x="438" y="339" type="qcurve" smooth="yes"/>
      <point x="438" y="417"/>
      <point x="328" y="527"/>
      <point x="172" y="527"/>
      <point x="62" y="417"/>
    </contour>
  </outline>
</glyph>
<glyph name="registered" format="2">
  <advance height="1000" width="500"/>
  <unicode hex="00AE"/>
  <outline>
    <contour>
      <point x="79" y="168" type="qcurve" smooth="yes"/>
      <point x="7" y="238"/>
      <point x="7" y="338" type="qcurve" smooth="yes"/>
      <point x="7" y="439"/>
      <point x="149" y="581"/>
      <point x="249" y="581" type="qcurve" smooth="yes"/>
      <point x="350" y="581"/>
      <point x="492" y="439"/>
      <point x="492" y="239"/>
      <point x="350" y="96"/>
      <point x="148" y="96"/>
    </contour>
    <contour>
      <point x="250" y="150" type="qcurve" smooth="yes"/>
      <point x="320" y="150"/>
      <point x="354" y="180" type="qcurve"/>
      <point x="366" y="182"/>
      <point x="366" y="183" type="qcurve"/>
      <point x="364" y="183" type="line" smooth="yes"/>
      <point x="335" y="183"/>
      <point x="312" y="199" type="qcurve" smooth="yes"/>
      <point x="274" y="234"/>
      <point x="239" y="278" type="qcurve" smooth="yes"/>
      <point x="213" y="312"/>
      <point x="213" y="313" type="qcurve"/>
      <point x="213" y="235"/>
      <point x="214" y="222" type="qcurve" smooth="yes"/>
      <point x="214" y="200" type="line" smooth="yes"/>
      <point x="214" y="185"/>
      <point x="190" y="185" type="qcurve" smooth="yes"/>
      <point x="180" y="185"/>
      <point x="153" y="195"/>
      <point x="153" y="208" type="qcurve" smooth="yes"/>
      <point x="154" y="225"/>
      <point x="154" y="442" type="qcurve"/>
      <point x="140" y="453"/>
      <point x="140" y="473" type="qcurve" smooth="yes"/>
      <point x="140" y="491"/>
      <point x="152" y="491" type="qcurve" smooth="yes"/>
      <point x="174" y="495"/>
      <point x="217" y="504"/>
      <point x="259" y="504" type="qcurve" smooth="yes"/>
      <point x="297" y="504"/>
      <point x="343" y="481"/>
      <point x="365" y="443"/>
      <point x="365" y="421" type="qcurve" smooth="yes"/>
      <point x="365" y="393"/>
      <point x="333" y="352"/>
      <point x="282" y="327"/>
      <point x="270" y="327" type="qcurve"/>
      <point x="276" y="321"/>
      <point x="299" y="293" type="qcurve" smooth="yes"/>
      <point x="349" y="232"/>
      <point x="385" y="220"/>
      <point x="390" y="212" type="qcurve"/>
      <point x="438" y="261"/>
      <point x="438" y="338" type="qcurve" smooth="yes"/>
      <point x="438" y="417"/>
      <point x="328" y="527"/>
      <point x="172" y="527"/>
      <point x="62" y="417"/>
      <point x="62" y="339" type="qcurve" smooth="yes"/>
      <point x="62" y="260"/>
      <point x="172" y="150"/>
    </contour>
    <contour>
      <point x="213" y="375" type="line"/>
      <point x="213" y="376"/>
      <point x="214" y="376" type="qcurve" smooth="yes"/>
      <point x="216" y="376"/>
      <point x="217" y="375" type="qcurve" smooth="yes"/>
      <point x="269" y="375"/>
      <point x="306" y="404"/>
      <point x="306" y="420" type="qcurve" smooth="yes"/>
      <point x="306" y="448"/>
      <point x="258" y="448" type="qcurve" smooth="yes"/>
      <point x="230" y="448"/>
      <point x="213" y="443" type="qcurve"/>
    </contour>
  </outline>
</glyph>
<glyph name="macron" format="2">
  <advance height="500" width="500"/>
  <unicode hex="00AF"/>
  <outline>
    <contour>
      <point x="471" y="773" type="line" smooth="yes"/>
      <point x="497" y="773"/>
      <point x="497" y="810" type="qcurve" smooth="yes"/>
      <point x="497" y="846"/>
      <point x="471" y="846" type="qcurve" smooth="yes"/>
      <point x="30" y="846" type="line" smooth="yes"/>
      <point x="4" y="846"/>
      <point x="4" y="810" type="qcurve" smooth="yes"/>
      <point x="4" y="773"/>
      <point x="30" y="773" type="qcurve" smooth="yes"/>
    </contour>
  </outline>
</glyph>
<glyph name="paragraph" format="2">
  <advance height="1000" width="500"/>
  <unicode hex="00B6"/>
  <outline>
    <contour>
      <point x="256" y="-62" type="qcurve" smooth="yes"/>
      <point x="243" y="-62"/>
      <point x="213" y="-49"/>
      <point x="213" y="-34" type="qcurve" smooth="yes"/>
      <point x="215" y="-3"/>
      <point x="215" y="380" type="qcurve"/>
      <point x="203" y="377"/>
      <point x="181" y="377" type="qcurve" smooth="yes"/>
      <point x="141" y="377"/>
      <point x="69" y="414"/>
      <point x="23" y="489"/>
      <point x="23" y="546" type="qcurve" smooth="yes"/>
      <point x="23" y="612"/>
      <point x="80" y="710"/>
      <point x="172" y="769"/>
      <point x="227" y="770" type="qcurve" smooth="yes"/>
      <point x="425" y="780" type="line" smooth="yes"/>
      <point x="449" y="780"/>
      <point x="475" y="747"/>
      <point x="475" y="726" type="qcurve" smooth="yes"/>
      <point x="475" y="-5"/>
      <point x="476" y="-29" type="qcurve" smooth="yes"/>
      <point x="476" y="-51"/>
      <point x="444" y="-51" type="qcurve" smooth="yes"/>
      <point x="430" y="-51"/>
      <point x="400" y="-38"/>
      <point x="400" y="-23" type="qcurve" smooth="yes"/>
      <point x="403" y="8"/>
      <point x="403" y="708" type="qcurve"/>
      <point x="287" y="701" type="line"/>
      <point x="287" y="-17"/>
      <point x="288" y="-40" type="qcurve" smooth="yes"/>
      <point x="288" y="-62"/>
    </contour>
  </outline>
</glyph>
<glyph name="ordmasculine" format="2">
  <advance height="1000" width="500"/>
  <unicode hex="00BA"/>
  <outline>
    <contour>
      <point x="244" y="462" type="qcurve" smooth="yes"/>
      <point x="185" y="462"/>
      <point x="119" y="536"/>
      <point x="119" y="596" type="qcurve" smooth="yes"/>
      <point x="119" y="627"/>
      <point x="144" y="692"/>
      <point x="182" y="739"/>
      <point x="198" y="739" type="qcurve" smooth="yes"/>
      <point x="208" y="739"/>
      <point x="209" y="738" type="qcurve" smooth="yes"/>
      <point x="228" y="754"/>
      <point x="267" y="754" type="qcurve" smooth="yes"/>
      <point x="318" y="754"/>
      <point x="384" y="681"/>
      <point x="384" y="615" type="qcurve" smooth="yes"/>
      <point x="384" y="578"/>
      <point x="352" y="508"/>
      <point x="290" y="462"/>
    </contour>
    <contour>
      <point x="244" y="529" type="qcurve" smooth="yes"/>
      <point x="273" y="529"/>
      <point x="313" y="580"/>
      <point x="313" y="615" type="qcurve" smooth="yes"/>
      <point x="313" y="688"/>
      <point x="264" y="688" type="qcurve" smooth="yes"/>
      <point x="220" y="688"/>
      <point x="200" y="639" type="qcurve" smooth="yes"/>
      <point x="190" y="617"/>
      <point x="190" y="595" type="qcurve" smooth="yes"/>
      <point x="192" y="529"/>
    </contour>
  </outline>
</glyph>
<glyph name="Aacute" format="2">
  <advance height="1000" width="500"/>
  <unicode hex="00C1"/>
  <outline>
    <contour>
      <point x="432" y="-14" type="qcurve" smooth="yes"/>
      <point x="409" y="-14"/>
      <point x="398" y="2" type="qcurve"/>
      <point x="390" y="37"/>
      <point x="338" y="230" type="qcurve"/>
      <point x="160" y="219" type="line"/>
      <point x="151" y="186"/>
      <point x="124" y="97" type="qcurve"/>
      <point x="102" y="9" type="line" smooth="yes"/>
      <point x="94" y="-13"/>
      <point x="56" y="-13" type="qcurve" smooth="yes"/>
      <point x="42" y="-13"/>
      <point x="15" y="-1"/>
      <point x="15" y="12" type="qcurve" smooth="yes"/>
      <point x="15" y="17"/>
      <point x="19" y="25" type="qcurve" smooth="yes"/>
      <point x="53" y="101"/>
      <point x="84" y="211" type="qcurve" smooth="yes"/>
      <point x="85" y="211"/>
      <point x="85" y="212" type="qcurve"/>
      <point x="81" y="212" type="line" smooth="yes"/>
      <point x="69" y="212"/>
      <point x="55" y="234"/>
      <point x="46" y="259"/>
      <point x="46" y="270" type="qcurve" smooth="yes"/>
      <point x="46" y="291"/>
      <point x="65" y="291" type="qcurve" smooth="yes"/>
      <point x="106" y="285" type="line"/>
      <point x="204" y="626"/>
      <point x="211" y="683" type="qcurve" smooth="yes"/>
      <point x="214" y="700"/>
      <point x="226" y="717"/>
      <point x="243" y="717" type="qcurve" smooth="yes"/>
      <point x="260" y="717"/>
      <point x="302" y="697"/>
      <point x="306" y="686" type="qcurve" smooth="yes"/>
      <point x="308" y="684"/>
      <point x="308" y="679" type="qcurve" smooth="yes"/>
      <point x="308" y="674"/>
      <point x="305" y="663"/>
      <point x="305" y="659" type="qcurve" smooth="yes"/>
      <point x="305" y="655"/>
      <point x="321" y="591" type="qcurve" smooth="yes"/>
      <point x="442" y="92"/>
      <point x="481" y="28" type="qcurve" smooth="yes"/>
      <point x="485" y="23"/>
      <point x="485" y="17" type="qcurve" smooth="yes"/>
      <point x="485" y="2"/>
      <point x="449" y="-14"/>
    </contour>
    <contour>
      <point x="178" y="288" type="line"/>
      <point x="321" y="296" type="line"/>
      <point x="255" y="568" type="line"/>
    </contour>
    <contour>
      <point x="182" y="735" type="qcurve" smooth="yes"/>
      <point x="170" y="735"/>
      <point x="157" y="750"/>
      <point x="157" y="758" type="qcurve" smooth="yes"/>
      <point x="157" y="782"/>
      <point x="295" y="883" type="qcurve" smooth="yes"/>
      <point x="300" y="886"/>
      <point x="307" y="886" type="qcurve" smooth="yes"/>
      <point x="320" y="886"/>
      <point x="346" y="864"/>
      <point x="369" y="838"/>
      <point x="369" y="826" type="qcurve" smooth="yes"/>
      <point x="369" y="816"/>
      <point x="358" y="811" type="qcurve" smooth="yes"/>
      <point x="314" y="793"/>
      <point x="227" y="759"/>
      <point x="197" y="740" type="qcurve" smooth="yes"/>
      <point x="189" y="735"/>
    </contour>
  </outline>
</glyph>
<glyph name="Acircumflex" format="2">
  <advance height="1000" width="500"/>
  <unicode hex="00C2"/>
  <outline>
    <contour>
      <point x="432" y="-14" type="qcurve" smooth="yes"/>
      <point x="409" y="-14"/>
      <point x="398" y="2" type="qcurve"/>
      <point x="390" y="37"/>
      <point x="338" y="230" type="qcurve"/>
      <point x="160" y="219" type="line"/>
      <point x="151" y="186"/>
      <point x="124" y="97" type="qcurve"/>
      <point x="102" y="9" type="line" smooth="yes"/>
      <point x="94" y="-13"/>
      <point x="56" y="-13" type="qcurve" smooth="yes"/>
      <point x="42" y="-13"/>
      <point x="15" y="-1"/>
      <point x="15" y="12" type="qcurve" smooth="yes"/>
      <point x="15" y="17"/>
      <point x="19" y="25" type="qcurve" smooth="yes"/>
      <point x="53" y="101"/>
      <point x="84" y="211" type="qcurve" smooth="yes"/>
      <point x="85" y="211"/>
      <point x="85" y="212" type="qcurve"/>
      <point x="81" y="212" type="line" smooth="yes"/>
      <point x="69" y="212"/>
      <point x="55" y="234"/>
      <point x="46" y="259"/>
      <point x="46" y="270" type="qcurve" smooth="yes"/>
      <point x="46" y="291"/>
      <point x="65" y="291" type="qcurve" smooth="yes"/>
      <point x="106" y="285" type="line"/>
      <point x="204" y="626"/>
      <point x="211" y="683" type="qcurve" smooth="yes"/>
      <point x="214" y="700"/>
      <point x="226" y="717"/>
      <point x="243" y="717" type="qcurve" smooth="yes"/>
      <point x="260" y="717"/>
      <point x="302" y="697"/>
      <point x="306" y="686" type="qcurve" smooth="yes"/>
      <point x="308" y="684"/>
      <point x="308" y="679" type="qcurve" smooth="yes"/>
      <point x="308" y="674"/>
      <point x="305" y="663"/>
      <point x="305" y="659" type="qcurve" smooth="yes"/>
      <point x="305" y="655"/>
      <point x="321" y="591" type="qcurve" smooth="yes"/>
      <point x="442" y="92"/>
      <point x="481" y="28" type="qcurve" smooth="yes"/>
      <point x="485" y="23"/>
      <point x="485" y="17" type="qcurve" smooth="yes"/>
      <point x="485" y="2"/>
      <point x="449" y="-14"/>
    </contour>
    <contour>
      <point x="178" y="288" type="line"/>
      <point x="321" y="296" type="line"/>
      <point x="255" y="568" type="line"/>
    </contour>
    <contour>
      <point x="133" y="726" type="qcurve" smooth="yes"/>
      <point x="108" y="726"/>
      <point x="108" y="748" type="qcurve" smooth="yes"/>
      <point x="108" y="754"/>
      <point x="119" y="770" type="qcurve" smooth="yes"/>
      <point x="153" y="820"/>
      <point x="217" y="887" type="qcurve" smooth="yes"/>
      <point x="233" y="898"/>
      <point x="258" y="898" type="qcurve" smooth="yes"/>
      <point x="291" y="898"/>
      <point x="305" y="883" type="qcurve" smooth="yes"/>
      <point x="316" y="871" type="line" smooth="yes"/>
      <point x="413" y="771"/>
      <point x="413" y="748" type="qcurve" smooth="yes"/>
      <point x="413" y="726"/>
      <point x="388" y="726" type="qcurve" smooth="yes"/>
      <point x="377" y="726"/>
      <point x="369" y="734" type="qcurve" smooth="yes"/>
      <point x="322" y="776"/>
      <point x="261" y="815" type="qcurve"/>
      <point x="264" y="817" type="line"/>
      <point x="198" y="774"/>
      <point x="152" y="734" type="qcurve" smooth="yes"/>
      <point x="145" y="726"/>
    </contour>
  </outline>
</glyph>
<glyph name="Adieresis" format="2">
  <advance height="1000" width="500"/>
  <unicode hex="00C4"/>
  <outline>
    <contour>
      <point x="432" y="-14" type="qcurve" smooth="yes"/>
      <point x="409" y="-14"/>
      <point x="398" y="2" type="qcurve"/>
      <point x="390" y="37"/>
      <point x="338" y="230" type="qcurve"/>
      <point x="160" y="219" type="line"/>
      <point x="151" y="186"/>
      <point x="124" y="97" type="qcurve"/>
      <point x="102" y="9" type="line" smooth="yes"/>
      <point x="94" y="-13"/>
      <point x="56" y="-13" type="qcurve" smooth="yes"/>
      <point x="42" y="-13"/>
      <point x="15" y="-1"/>
      <point x="15" y="12" type="qcurve" smooth="yes"/>
      <point x="15" y="17"/>
      <point x="19" y="25" type="qcurve" smooth="yes"/>
      <point x="53" y="101"/>
      <point x="84" y="211" type="qcurve" smooth="yes"/>
      <point x="85" y="211"/>
      <point x="85" y="212" type="qcurve"/>
      <point x="81" y="212" type="line" smooth="yes"/>
      <point x="69" y="212"/>
      <point x="55" y="234"/>
      <point x="46" y="259"/>
      <point x="46" y="270" type="qcurve" smooth="yes"/>
      <point x="46" y="291"/>
      <point x="65" y="291" type="qcurve" smooth="yes"/>
      <point x="106" y="285" type="line"/>
      <point x="204" y="626"/>
      <point x="211" y="683" type="qcurve" smooth="yes"/>
      <point x="214" y="700"/>
      <point x="226" y="717"/>
      <point x="243" y="717" type="qcurve" smooth="yes"/>
      <point x="260" y="717"/>
      <point x="302" y="697"/>
      <point x="306" y="686" type="qcurve" smooth="yes"/>
      <point x="308" y="684"/>
      <point x="308" y="679" type="qcurve" smooth="yes"/>
      <point x="308" y="674"/>
      <point x="305" y="663"/>
      <point x="305" y="659" type="qcurve" smooth="yes"/>
      <point x="305" y="655"/>
      <point x="321" y="591" type="qcurve" smooth="yes"/>
      <point x="442" y="92"/>
      <point x="481" y="28" type="qcurve" smooth="yes"/>
      <point x="485" y="23"/>
      <point x="485" y="17" type="qcurve" smooth="yes"/>
      <point x="485" y="2"/>
      <point x="449" y="-14"/>
    </contour>
    <contour>
      <point x="178" y="288" type="line"/>
      <point x="321" y="296" type="line"/>
      <point x="255" y="568" type="line"/>
    </contour>
    <contour>
      <point x="173" y="753" type="qcurve" smooth="yes"/>
      <point x="148" y="753"/>
      <point x="114" y="799"/>
      <point x="114" y="820" type="qcurve" smooth="yes"/>
      <point x="117" y="874"/>
      <point x="164" y="874" type="qcurve" smooth="yes"/>
      <point x="188" y="874"/>
      <point x="223" y="830"/>
      <point x="223" y="806" type="qcurve" smooth="yes"/>
      <point x="219" y="753"/>
    </contour>
    <contour>
      <point x="338" y="753" type="qcurve" smooth="yes"/>
      <point x="313" y="753"/>
      <point x="279" y="799"/>
      <point x="279" y="820" type="qcurve" smooth="yes"/>
      <point x="282" y="874"/>
      <point x="329" y="874" type="qcurve" smooth="yes"/>
      <point x="352" y="874"/>
      <point x="388" y="830"/>
      <point x="388" y="806" type="qcurve" smooth="yes"/>
      <point x="384" y="753"/>
    </contour>
  </outline>
</glyph>
<glyph name="Ccedilla" format="2">
  <advance height="1000" width="500"/>
  <unicode hex="00C7"/>
  <outline>
    <contour>
      <point x="264" y="-186" type="qcurve" smooth="yes"/>
      <point x="220" y="-186"/>
      <point x="178" y="-162" type="qcurve" smooth="yes"/>
      <point x="166" y="-154"/>
      <point x="166" y="-134" type="qcurve" smooth="yes"/>
      <point x="166" y="-120"/>
      <point x="177" y="-91"/>
      <point x="190" y="-91" type="qcurve" smooth="yes"/>
      <point x="201" y="-91"/>
      <point x="203" y="-96" type="qcurve" smooth="yes"/>
      <point x="219" y="-108"/>
      <point x="244" y="-119"/>
      <point x="264" y="-119" type="qcurve" smooth="yes"/>
      <point x="280" y="-119"/>
      <point x="293" y="-111"/>
      <point x="293" y="-97" type="qcurve" smooth="yes"/>
      <point x="293" y="-78"/>
      <point x="269" y="-78" type="qcurve" smooth="yes"/>
      <point x="259" y="-78"/>
      <point x="237" y="-82" type="qcurve" smooth="yes"/>
      <point x="218" y="-82"/>
      <point x="196" y="-60"/>
      <point x="196" y="-45" type="qcurve" smooth="yes"/>
      <point x="196" y="-40"/>
      <point x="198" y="-35"/>
      <point x="199" y="-31"/>
      <point x="204" y="-22"/>
      <point x="204" y="-18" type="qcurve" smooth="yes"/>
      <point x="203" y="-16" type="line"/>
      <point x="200" y="-18" type="line"/>
      <point x="103" y="-5"/>
      <point x="52" y="127" type="qcurve" smooth="yes"/>
      <point x="29" y="192"/>
      <point x="29" y="293" type="qcurve" smooth="yes"/>
      <point x="29" y="470"/>
      <point x="173" y="718"/>
      <point x="280" y="718" type="qcurve" smooth="yes"/>
      <point x="389" y="718"/>
      <point x="456" y="622" type="qcurve" smooth="yes"/>
      <point x="460" y="617"/>
      <point x="460" y="610" type="qcurve" smooth="yes"/>
      <point x="460" y="595"/>
      <point x="435" y="555"/>
      <point x="419" y="555" type="qcurve" smooth="yes"/>
      <point x="406" y="555"/>
      <point x="399" y="567" type="qcurve" smooth="yes"/>
      <point x="360" y="641"/>
      <point x="277" y="641" type="qcurve" smooth="yes"/>
      <point x="187" y="641"/>
      <point x="132" y="475" type="qcurve" smooth="yes"/>
      <point x="108" y="396"/>
      <point x="108" y="295" type="qcurve" smooth="yes"/>
      <point x="108" y="54"/>
      <point x="251" y="54" type="qcurve" smooth="yes"/>
      <point x="351" y="54"/>
      <point x="425" y="176" type="qcurve" smooth="yes"/>
      <point x="437" y="194"/>
      <point x="453" y="194" type="qcurve" smooth="yes"/>
      <point x="474" y="194"/>
      <point x="474" y="169" type="qcurve" smooth="yes"/>
      <point x="474" y="162"/>
      <point x="462" y="136" type="qcurve" smooth="yes"/>
      <point x="439" y="74"/>
      <point x="365" y="15" type="qcurve" smooth="yes"/>
      <point x="326" y="-14"/>
      <point x="279" y="-19" type="qcurve"/>
      <point x="278" y="-22" type="line"/>
      <point x="368" y="-22"/>
      <point x="368" y="-97" type="qcurve"/>
      <point x="363" y="-186"/>
    </contour>
  </outline>
</glyph>
<glyph name="Igrave" format="2">
  <advance height="1000" width="500"/>
  <unicode hex="00CC"/>
  <outline>
    <contour>
      <point x="107" y="-12" type="qcurve" smooth="yes"/>
      <point x="87" y="-12"/>
      <point x="67" y="30"/>
      <point x="67" y="45" type="qcurve" smooth="yes"/>
      <point x="67" y="69"/>
      <point x="88" y="69" type="qcurve" smooth="yes"/>
      <point x="128" y="68" type="line"/>
      <point x="205" y="69" type="line"/>
      <point x="206" y="107"/>
      <point x="207" y="623" type="qcurve"/>
      <point x="159" y="620"/>
      <point x="122" y="614" type="qcurve" smooth="yes"/>
      <point x="102" y="614"/>
      <point x="82" y="656"/>
      <point x="82" y="671" type="qcurve" smooth="yes"/>
      <point x="82" y="695"/>
      <point x="103" y="695" type="qcurve" smooth="yes"/>
      <point x="110" y="695"/>
      <point x="147" y="693"/>
      <point x="167" y="693" type="qcurve" smooth="yes"/>
      <point x="264" y="693"/>
      <point x="381" y="706" type="qcurve" smooth="yes"/>
      <point x="398" y="706"/>
      <point x="417" y="664"/>
      <point x="417" y="649" type="qcurve" smooth="yes"/>
      <point x="417" y="625"/>
      <point x="397" y="625" type="qcurve" smooth="yes"/>
      <point x="340" y="628"/>
      <point x="325" y="628" type="qcurve" smooth="yes"/>
      <point x="288" y="626" type="line"/>
      <point x="289" y="152"/>
      <point x="290" y="70" type="qcurve"/>
      <point x="384" y="70"/>
      <point x="397" y="71" type="qcurve" smooth="yes"/>
      <point x="416" y="71"/>
      <point x="435" y="27"/>
      <point x="435" y="12" type="qcurve" smooth="yes"/>
      <point x="435" y="-11"/>
      <point x="415" y="-11" type="qcurve" smooth="yes"/>
      <point x="380" y="-5"/>
      <point x="304" y="-5" type="qcurve" smooth="yes"/>
      <point x="172" y="-5"/>
    </contour>
    <contour>
      <point x="329" y="735" type="qcurve" smooth="yes"/>
      <point x="323" y="735"/>
      <point x="313" y="739" type="qcurve" smooth="yes"/>
      <point x="283" y="759"/>
      <point x="198" y="793"/>
      <point x="152" y="811" type="qcurve" smooth="yes"/>
      <point x="142" y="816"/>
      <point x="142" y="826" type="qcurve" smooth="yes"/>
      <point x="142" y="837"/>
      <point x="162" y="864"/>
      <point x="192" y="886"/>
      <point x="204" y="886" type="qcurve" smooth="yes"/>
      <point x="213" y="886"/>
      <point x="216" y="882" type="qcurve" smooth="yes"/>
      <point x="353" y="782"/>
      <point x="353" y="758" type="qcurve" smooth="yes"/>
      <point x="353" y="735"/>
    </contour>
  </outline>
</glyph>
<glyph name="Ocircumflex" format="2">
  <advance height="1000" width="500"/>
  <unicode hex="00D4"/>
  <outline>
    <contour>
      <point x="244" y="-24" type="qcurve" smooth="yes"/>
      <point x="170" y="-24"/>
      <point x="75" y="72"/>
      <point x="30" y="235"/>
      <point x="30" y="337" type="qcurve" smooth="yes"/>
      <point x="30" y="457"/>
      <point x="64" y="557" type="qcurve" smooth="yes"/>
      <point x="98" y="663"/>
      <point x="134" y="663" type="qcurve" smooth="yes"/>
      <point x="149" y="663"/>
      <point x="152" y="660" type="qcurve"/>
      <point x="194" y="719"/>
      <point x="271" y="719" type="qcurve" smooth="yes"/>
      <point x="336" y="719"/>
      <point x="426" y="625"/>
      <point x="471" y="464"/>
      <point x="471" y="363" type="qcurve" smooth="yes"/>
      <point x="471" y="208"/>
      <point x="418" y="93" type="qcurve"/>
      <point x="359" y="-24"/>
    </contour>
    <contour>
      <point x="240" y="54" type="qcurve" smooth="yes"/>
      <point x="391" y="54"/>
      <point x="391" y="371" type="qcurve" smooth="yes"/>
      <point x="391" y="485"/>
      <point x="362" y="562" type="qcurve" smooth="yes"/>
      <point x="331" y="645"/>
      <point x="267" y="645" type="qcurve" smooth="yes"/>
      <point x="234" y="645"/>
      <point x="162" y="582"/>
      <point x="109" y="445"/>
      <point x="109" y="339" type="qcurve" smooth="yes"/>
      <point x="109" y="259"/>
      <point x="134" y="130"/>
      <point x="190" y="54"/>
    </contour>
    <contour>
      <point x="134" y="726" type="qcurve" smooth="yes"/>
      <point x="109" y="726"/>
      <point x="109" y="748" type="qcurve" smooth="yes"/>
      <point x="109" y="754"/>
      <point x="121" y="770" type="qcurve" smooth="yes"/>
      <point x="154" y="820"/>
      <point x="218" y="887" type="qcurve" smooth="yes"/>
      <point x="234" y="898"/>
      <point x="260" y="898" type="qcurve" smooth="yes"/>
      <point x="292" y="898"/>
      <point x="307" y="883" type="qcurve" smooth="yes"/>
      <point x="318" y="871" type="line" smooth="yes"/>
      <point x="414" y="771"/>
      <point x="414" y="748" type="qcurve" smooth="yes"/>
      <point x="414" y="726"/>
      <point x="389" y="726" type="qcurve" smooth="yes"/>
      <point x="378" y="726"/>
      <point x="370" y="734" type="qcurve" smooth="yes"/>
      <point x="323" y="776"/>
      <point x="263" y="815" type="qcurve"/>
      <point x="265" y="817" type="line"/>
      <point x="200" y="774"/>
      <point x="153" y="734" type="qcurve" smooth="yes"/>
      <point x="147" y="726"/>
    </contour>
  </outline>
</glyph>
<glyph name="Thorn" format="2">
  <advance height="1000" width="500"/>
  <unicode hex="00DE"/>
  <outline>
    <contour>
      <point x="108" y="-17" type="qcurve" smooth="yes"/>
      <point x="92" y="-17"/>
      <point x="53" y="1"/>
      <point x="53" y="17" type="qcurve" smooth="yes"/>
      <point x="55" y="116"/>
      <point x="55" y="522" type="qcurve"/>
      <point x="44" y="522"/>
      <point x="16" y="563"/>
      <point x="16" y="577" type="qcurve" smooth="yes"/>
      <point x="16" y="594"/>
      <point x="31" y="594" type="qcurve" smooth="yes"/>
      <point x="55" y="599" type="line"/>
      <point x="53" y="621"/>
      <point x="52" y="695" type="qcurve" smooth="yes"/>
      <point x="52" y="711"/>
      <point x="79" y="711" type="qcurve" smooth="yes"/>
      <point x="96" y="711"/>
      <point x="133" y="693"/>
      <point x="133" y="677" type="qcurve" smooth="yes"/>
      <point x="132" y="617" type="line"/>
      <point x="175" y="627"/>
      <point x="246" y="627" type="qcurve" smooth="yes"/>
      <point x="324" y="627"/>
      <point x="424" y="576"/>
      <point x="473" y="489"/>
      <point x="473" y="437" type="qcurve" smooth="yes"/>
      <point x="473" y="204"/>
      <point x="144" y="204" type="qcurve" smooth="yes"/>
      <point x="131" y="204"/>
      <point x="131" y="202" type="qcurve" smooth="yes"/>
      <point x="133" y="200" type="line"/>
      <point x="133" y="81"/>
      <point x="135" y="16"/>
      <point x="135" y="-1" type="qcurve" smooth="yes"/>
      <point x="135" y="-17"/>
    </contour>
    <contour>
      <point x="133" y="262" type="line"/>
      <point x="134" y="262" type="line"/>
      <point x="283" y="277"/>
      <point x="387" y="368"/>
      <point x="391" y="405" type="qcurve" smooth="yes"/>
      <point x="394" y="431" type="line"/>
      <point x="394" y="486"/>
      <point x="319" y="552"/>
      <point x="244" y="552" type="qcurve" smooth="yes"/>
      <point x="185" y="552"/>
      <point x="133" y="534" type="qcurve"/>
    </contour>
  </outline>
</glyph>
<glyph name="adieresis" format="2">
  <advance height="1000" width="500"/>
  <unicode hex="00E4"/>
  <outline>
    <contour>
      <point x="195" y="-24" type="qcurve" smooth="yes"/>
      <point x="124" y="-24"/>
      <point x="41" y="80"/>
      <point x="41" y="175" type="qcurve" smooth="yes"/>
      <point x="41" y="304"/>
      <point x="185" y="492"/>
      <point x="273" y="492" type="qcurve" smooth="yes"/>
      <point x="349" y="492"/>
      <point x="363" y="461" type="qcurve"/>
      <point x="363" y="475" type="line" smooth="yes"/>
      <point x="363" y="491"/>
      <point x="391" y="491" type="qcurve" smooth="yes"/>
      <point x="408" y="491"/>
      <point x="449" y="474"/>
      <point x="449" y="458" type="qcurve" smooth="yes"/>
      <point x="444" y="411"/>
      <point x="440" y="306" type="qcurve" smooth="yes"/>
      <point x="437" y="225"/>
      <point x="437" y="193" type="qcurve" smooth="yes"/>
      <point x="437" y="93"/>
      <point x="469" y="36" type="qcurve"/>
      <point x="471" y="29" type="line" smooth="yes"/>
      <point x="471" y="17"/>
      <point x="443" y="-19"/>
      <point x="422" y="-19" type="qcurve" smooth="yes"/>
      <point x="402" y="-19"/>
      <point x="379" y="28"/>
      <point x="373" y="57" type="qcurve" smooth="yes"/>
      <point x="368" y="86" type="line"/>
      <point x="348" y="45"/>
      <point x="249" y="-24"/>
    </contour>
    <contour>
      <point x="194" y="48" type="qcurve" smooth="yes"/>
      <point x="234" y="48"/>
      <point x="270" y="77" type="qcurve" smooth="yes"/>
      <point x="361" y="150"/>
      <point x="361" y="330" type="qcurve" smooth="yes"/>
      <point x="361" y="358" type="line" smooth="yes"/>
      <point x="363" y="360"/>
      <point x="363" y="362" type="qcurve" smooth="yes"/>
      <point x="363" y="365"/>
      <point x="346" y="365"/>
      <point x="341" y="373" type="qcurve" smooth="yes"/>
      <point x="314" y="422"/>
      <point x="273" y="422" type="qcurve" smooth="yes"/>
      <point x="223" y="422"/>
      <point x="121" y="286"/>
      <point x="121" y="180" type="qcurve" smooth="yes"/>
      <point x="121" y="48"/>
    </contour>
    <contour>
      <point x="174" y="586" type="qcurve" smooth="yes"/>
      <point x="148" y="586"/>
      <point x="114" y="632"/>
      <point x="114" y="653" type="qcurve" smooth="yes"/>
      <point x="117" y="707"/>
      <point x="165" y="707" type="qcurve" smooth="yes"/>
      <point x="188" y="707"/>
      <point x="223" y="663"/>
      <point x="223" y="639" type="qcurve" smooth="yes"/>
      <point x="219" y="586"/>
    </contour>
    <contour>
      <point x="338" y="586" type="qcurve" smooth="yes"/>
      <point x="313" y="586"/>
      <point x="279" y="632"/>
      <point x="279" y="653" type="qcurve" smooth="yes"/>
      <point x="282" y="707"/>
      <point x="329" y="707" type="qcurve" smooth="yes"/>
      <point x="353" y="707"/>
      <point x="388" y="663"/>
      <point x="388" y="639" type="qcurve" smooth="yes"/>
      <point x="384" y="586"/>
    </contour>
  </outline>
</glyph>
<glyph name="aring" format="2">
  <advance height="1000" width="500"/>
  <unicode hex="00E5"/>
  <outline>
    <contour>
      <point x="187" y="-24" type="qcurve" smooth="yes"/>
      <point x="116" y="-24"/>
      <point x="33" y="80"/>
      <point x="33" y="175" type="qcurve" smooth="yes"/>
      <point x="33" y="304"/>
      <point x="177" y="492"/>
      <point x="265" y="492" type="qcurve" smooth="yes"/>
      <point x="340" y="492"/>
      <point x="355" y="461" type="qcurve"/>
      <point x="355" y="475" type="line" smooth="yes"/>
      <point x="355" y="491"/>
      <point x="382" y="491" type="qcurve" smooth="yes"/>
      <point x="400" y="491"/>
      <point x="441" y="474"/>
      <point x="441" y="458" type="qcurve" smooth="yes"/>
      <point x="436" y="411"/>
      <point x="432" y="306" type="qcurve" smooth="yes"/>
      <point x="429" y="225"/>
      <point x="429" y="193" type="qcurve" smooth="yes"/>
      <point x="429" y="93"/>
      <point x="460" y="36" type="qcurve"/>
      <point x="463" y="29" type="line"/>
      <point x="463" y="17"/>
      <point x="435" y="-19"/>
      <point x="414" y="-19" type="qcurve" smooth="yes"/>
      <point x="394" y="-19"/>
      <point x="371" y="28"/>
      <point x="365" y="57" type="qcurve" smooth="yes"/>
      <point x="360" y="86" type="line"/>
      <point x="340" y="45"/>
      <point x="241" y="-24"/>
    </contour>
    <contour>
      <point x="186" y="48" type="qcurve" smooth="yes"/>
      <point x="225" y="48"/>
      <point x="262" y="77" type="qcurve" smooth="yes"/>
      <point x="353" y="150"/>
      <point x="353" y="330" type="qcurve" smooth="yes"/>
      <point x="353" y="358" type="line" smooth="yes"/>
      <point x="355" y="360"/>
      <point x="355" y="362" type="qcurve" smooth="yes"/>
      <point x="355" y="365"/>
      <point x="338" y="365"/>
      <point x="333" y="373" type="qcurve" smooth="yes"/>
      <point x="306" y="422"/>
      <point x="265" y="422" type="qcurve" smooth="yes"/>
      <point x="215" y="422"/>
      <point x="112" y="286"/>
      <point x="112" y="180" type="qcurve" smooth="yes"/>
      <point x="112" y="48"/>
    </contour>
    <contour>
      <point x="257" y="546" type="qcurve" smooth="yes"/>
      <point x="218" y="546"/>
      <point x="164" y="607"/>
      <point x="164" y="646" type="qcurve" smooth="yes"/>
      <point x="164" y="685"/>
      <point x="218" y="746"/>
      <point x="257" y="746" type="qcurve" smooth="yes"/>
      <point x="297" y="746"/>
      <point x="351" y="685"/>
      <point x="351" y="646" type="qcurve" smooth="yes"/>
      <point x="351" y="607"/>
      <point x="297" y="546"/>
    </contour>
    <contour>
      <point x="257" y="606" type="qcurve" smooth="yes"/>
      <point x="270" y="606"/>
      <point x="290" y="628"/>
      <point x="290" y="646" type="qcurve" smooth="yes"/>
      <point x="286" y="686"/>
      <point x="257" y="686" type="qcurve" smooth="yes"/>
      <point x="245" y="686"/>
      <point x="225" y="664"/>
      <point x="225" y="646" type="qcurve" smooth="yes"/>
      <point x="225" y="628"/>
      <point x="245" y="606"/>
    </contour>
  </outline>
</glyph>
<glyph name="ccedilla" format="2">
  <advance height="1000" width="500"/>
  <unicode hex="00E7"/>
  <outline>
    <contour>
      <point x="268" y="-186" type="qcurve" smooth="yes"/>
      <point x="224" y="-186"/>
      <point x="182" y="-162" type="qcurve" smooth="yes"/>
      <point x="170" y="-154"/>
      <point x="170" y="-134" type="qcurve" smooth="yes"/>
      <point x="170" y="-121"/>
      <point x="181" y="-91"/>
      <point x="194" y="-91" type="qcurve" smooth="yes"/>
      <point x="205" y="-91"/>
      <point x="207" y="-96" type="qcurve" smooth="yes"/>
      <point x="223" y="-109"/>
      <point x="247" y="-119"/>
      <point x="268" y="-119" type="qcurve" smooth="yes"/>
      <point x="283" y="-119"/>
      <point x="297" y="-111"/>
      <point x="297" y="-97" type="qcurve" smooth="yes"/>
      <point x="297" y="-78"/>
      <point x="273" y="-78" type="qcurve" smooth="yes"/>
      <point x="263" y="-78"/>
      <point x="241" y="-82" type="qcurve" smooth="yes"/>
      <point x="221" y="-82"/>
      <point x="200" y="-59"/>
      <point x="200" y="-45" type="qcurve" smooth="yes"/>
      <point x="201" y="-35"/>
      <point x="207" y="-22" type="qcurve"/>
      <point x="123" y="-9"/>
      <point x="77" y="84" type="qcurve" smooth="yes"/>
      <point x="55" y="131"/>
      <point x="55" y="194" type="qcurve" smooth="yes"/>
      <point x="55" y="314"/>
      <point x="208" y="492"/>
      <point x="296" y="492" type="qcurve" smooth="yes"/>
      <point x="367" y="492"/>
      <point x="406" y="450" type="qcurve" smooth="yes"/>
      <point x="435" y="420"/>
      <point x="435" y="401" type="qcurve" smooth="yes"/>
      <point x="435" y="384"/>
      <point x="404" y="349"/>
      <point x="388" y="349" type="qcurve" smooth="yes"/>
      <point x="376" y="349"/>
      <point x="369" y="363" type="qcurve" smooth="yes"/>
      <point x="349" y="421"/>
      <point x="297" y="421" type="qcurve" smooth="yes"/>
      <point x="248" y="421"/>
      <point x="192" y="357" type="qcurve" smooth="yes"/>
      <point x="134" y="287"/>
      <point x="134" y="199" type="qcurve" smooth="yes"/>
      <point x="134" y="147"/>
      <point x="168" y="79"/>
      <point x="217" y="46"/>
      <point x="239" y="46" type="qcurve" smooth="yes"/>
      <point x="275" y="46"/>
      <point x="338" y="74"/>
      <point x="395" y="120"/>
      <point x="413" y="143" type="qcurve" smooth="yes"/>
      <point x="430" y="161"/>
      <point x="443" y="161" type="qcurve" smooth="yes"/>
      <point x="460" y="161"/>
      <point x="460" y="143" type="qcurve" smooth="yes"/>
      <point x="460" y="137"/>
      <point x="449" y="114" type="qcurve" smooth="yes"/>
      <point x="427" y="63"/>
      <point x="359" y="12" type="qcurve" smooth="yes"/>
      <point x="323" y="-13"/>
      <point x="282" y="-20" type="qcurve"/>
      <point x="281" y="-22" type="line"/>
      <point x="372" y="-22"/>
      <point x="372" y="-97" type="qcurve"/>
      <point x="367" y="-186"/>
    </contour>
  </outline>
</glyph>
<glyph name="igrave" format="2">
  <advance height="1000" width="500"/>
  <unicode hex="00EC"/>
  <outline>
    <contour>
      <point x="107" y="-12" type="qcurve" smooth="yes"/>
      <point x="87" y="-12"/>
      <point x="67" y="30"/>
      <point x="67" y="45" type="qcurve" smooth="yes"/>
      <point x="67" y="69"/>
      <point x="88" y="69" type="qcurve" smooth="yes"/>
      <point x="128" y="68" type="line"/>
      <point x="210" y="69" type="line"/>
      <point x="211" y="110"/>
      <point x="211" y="420" type="qcurve"/>
      <point x="181" y="416"/>
      <point x="135" y="416"/>
      <point x="123" y="415" type="qcurve" smooth="yes"/>
      <point x="104" y="415"/>
      <point x="85" y="459"/>
      <point x="85" y="474" type="qcurve" smooth="yes"/>
      <point x="85" y="497"/>
      <point x="105" y="497" type="qcurve" smooth="yes"/>
      <point x="139" y="491"/>
      <point x="148" y="491" type="qcurve" smooth="yes"/>
      <point x="216" y="491"/>
      <point x="250" y="501" type="qcurve"/>
      <point x="278" y="501"/>
      <point x="293" y="469" type="qcurve" smooth="yes"/>
      <point x="300" y="457"/>
      <point x="300" y="449" type="qcurve" smooth="yes"/>
      <point x="300" y="441"/>
      <point x="294" y="428"/>
      <point x="294" y="416" type="qcurve" smooth="yes"/>
      <point x="294" y="129"/>
      <point x="295" y="70" type="qcurve"/>
      <point x="384" y="70"/>
      <point x="397" y="71" type="qcurve" smooth="yes"/>
      <point x="416" y="71"/>
      <point x="435" y="27"/>
      <point x="435" y="12" type="qcurve" smooth="yes"/>
      <point x="435" y="-11"/>
      <point x="415" y="-11" type="qcurve" smooth="yes"/>
      <point x="380" y="-5"/>
      <point x="304" y="-5" type="qcurve" smooth="yes"/>
      <point x="172" y="-5"/>
    </contour>
    <contour>
      <point x="330" y="568" type="qcurve" smooth="yes"/>
      <point x="323" y="568"/>
      <point x="314" y="572" type="qcurve" smooth="yes"/>
      <point x="284" y="592"/>
      <point x="198" y="626"/>
      <point x="153" y="644" type="qcurve" smooth="yes"/>
      <point x="142" y="649"/>
      <point x="142" y="659" type="qcurve" smooth="yes"/>
      <point x="142" y="670"/>
      <point x="163" y="697"/>
      <point x="193" y="719"/>
      <point x="205" y="719" type="qcurve" smooth="yes"/>
      <point x="214" y="719"/>
      <point x="217" y="715" type="qcurve" smooth="yes"/>
      <point x="354" y="615"/>
      <point x="354" y="591" type="qcurve" smooth="yes"/>
      <point x="354" y="568"/>
    </contour>
  </outline>
</glyph>
<glyph name="ntilde" format="2">
  <advance height="1000" width="500"/>
  <unicode hex="00F1"/>
  <outline>
    <contour>
      <point x="115" y="-17" type="qcurve" smooth="yes"/>
      <point x="98" y="-17"/>
      <point x="59" y="1"/>
      <point x="59" y="17" type="qcurve" smooth="yes"/>
      <point x="59" y="44"/>
      <point x="61" y="88" type="qcurve" smooth="yes"/>
      <point x="61" y="395" type="line" smooth="yes"/>
      <point x="58" y="458"/>
      <point x="58" y="471" type="qcurve" smooth="yes"/>
      <point x="58" y="487"/>
      <point x="84" y="487" type="qcurve" smooth="yes"/>
      <point x="101" y="487"/>
      <point x="140" y="469"/>
      <point x="140" y="453" type="qcurve" smooth="yes"/>
      <point x="139" y="411" type="line"/>
      <point x="151" y="432"/>
      <point x="247" y="491"/>
      <point x="300" y="491" type="qcurve" smooth="yes"/>
      <point x="387" y="491"/>
      <point x="419" y="424" type="qcurve" smooth="yes"/>
      <point x="442" y="375"/>
      <point x="442" y="297" type="qcurve" smooth="yes"/>
      <point x="442" y="99"/>
      <point x="443" y="78" type="qcurve" smooth="yes"/>
      <point x="445" y="33"/>
      <point x="445" y="-2" type="qcurve" smooth="yes"/>
      <point x="445" y="-17"/>
      <point x="419" y="-17" type="qcurve" smooth="yes"/>
      <point x="402" y="-17"/>
      <point x="363" y="1"/>
      <point x="363" y="17" type="qcurve" smooth="yes"/>
      <point x="364" y="25"/>
      <point x="364" y="64"/>
      <point x="365" y="84" type="qcurve" smooth="yes"/>
      <point x="365" y="293" type="line" smooth="yes"/>
      <point x="365" y="352"/>
      <point x="338" y="417"/>
      <point x="300" y="417" type="qcurve" smooth="yes"/>
      <point x="234" y="417"/>
      <point x="190" y="364" type="qcurve" smooth="yes"/>
      <point x="148" y="311"/>
      <point x="143" y="229" type="qcurve" smooth="yes"/>
      <point x="139" y="183"/>
      <point x="139" y="79" type="qcurve" smooth="yes"/>
      <point x="139" y="56"/>
      <point x="141" y="-2" type="qcurve" smooth="yes"/>
      <point x="141" y="-17"/>
    </contour>
    <contour>
      <point x="124" y="583" type="qcurve" smooth="yes"/>
      <point x="115" y="583"/>
      <point x="102" y="596"/>
      <point x="102" y="606" type="qcurve" smooth="yes"/>
      <point x="102" y="621"/>
      <point x="123" y="665"/>
      <point x="166" y="706"/>
      <point x="197" y="706" type="qcurve" smooth="yes"/>
      <point x="226" y="706"/>
      <point x="263" y="682"/>
      <point x="294" y="655"/>
      <point x="304" y="655" type="qcurve" smooth="yes"/>
      <point x="336" y="655"/>
      <point x="353" y="693" type="qcurve" smooth="yes"/>
      <point x="360" y="709"/>
      <point x="376" y="709" type="qcurve" smooth="yes"/>
      <point x="385" y="709"/>
      <point x="398" y="696"/>
      <point x="398" y="686" type="qcurve" smooth="yes"/>
      <point x="398" y="654"/>
      <point x="367" y="616" type="qcurve" smooth="yes"/>
      <point x="342" y="586"/>
      <point x="303" y="586" type="qcurve" smooth="yes"/>
      <point x="273" y="586"/>
      <point x="233" y="612"/>
      <point x="206" y="637"/>
      <point x="196" y="637" type="qcurve" smooth="yes"/>
      <point x="164" y="637"/>
      <point x="148" y="600" type="qcurve" smooth="yes"/>
      <point x="141" y="583"/>
    </contour>
  </outline>
</glyph>
<glyph name="oacute" format="2">
  <advance height="1000" width="500"/>
  <unicode hex="00F3"/>
  <outline>
    <contour>
      <point x="236" y="-24" type="qcurve" smooth="yes"/>
      <point x="141" y="-24"/>
      <point x="37" y="102"/>
      <point x="37" y="207" type="qcurve" smooth="yes"/>
      <point x="37" y="251"/>
      <point x="64" y="339"/>
      <point x="101" y="412"/>
      <point x="141" y="460"/>
      <point x="155" y="460" type="qcurve" smooth="yes"/>
      <point x="171" y="460"/>
      <point x="173" y="457" type="qcurve"/>
      <point x="212" y="492"/>
      <point x="277" y="492" type="qcurve" smooth="yes"/>
      <point x="386" y="492"/>
      <point x="438" y="376" type="qcurve" smooth="yes"/>
      <point x="460" y="323"/>
      <point x="460" y="245" type="qcurve" smooth="yes"/>
      <point x="460" y="148"/>
      <point x="405" y="64" type="qcurve"/>
      <point x="342" y="-24"/>
    </contour>
    <contour>
      <point x="236" y="49" type="qcurve" smooth="yes"/>
      <point x="318" y="49"/>
      <point x="362" y="143" type="qcurve" smooth="yes"/>
      <point x="382" y="189"/>
      <point x="382" y="245" type="qcurve" smooth="yes"/>
      <point x="382" y="327"/>
      <point x="326" y="420"/>
      <point x="271" y="420" type="qcurve" smooth="yes"/>
      <point x="206" y="420"/>
      <point x="116" y="285"/>
      <point x="116" y="208" type="qcurve" smooth="yes"/>
      <point x="116" y="49"/>
    </contour>
    <contour>
      <point x="179" y="568" type="qcurve" smooth="yes"/>
      <point x="167" y="568"/>
      <point x="154" y="583"/>
      <point x="154" y="591" type="qcurve" smooth="yes"/>
      <point x="154" y="615"/>
      <point x="292" y="716" type="qcurve" smooth="yes"/>
      <point x="297" y="719"/>
      <point x="304" y="719" type="qcurve" smooth="yes"/>
      <point x="317" y="719"/>
      <point x="343" y="697"/>
      <point x="366" y="671"/>
      <point x="366" y="659" type="qcurve" smooth="yes"/>
      <point x="366" y="649"/>
      <point x="355" y="644" type="qcurve" smooth="yes"/>
      <point x="311" y="626"/>
      <point x="224" y="592"/>
      <point x="194" y="573" type="qcurve" smooth="yes"/>
      <point x="186" y="568"/>
    </contour>
  </outline>
</glyph>
<glyph name="ocircumflex" format="2">
  <advance height="1000" width="500"/>
  <unicode hex="00F4"/>
  <outline>
    <contour>
      <point x="236" y="-24" type="qcurve" smooth="yes"/>
      <point x="141" y="-24"/>
      <point x="37" y="102"/>
      <point x="37" y="207" type="qcurve" smooth="yes"/>
      <point x="37" y="251"/>
      <point x="64" y="339"/>
      <point x="101" y="412"/>
      <point x="141" y="460"/>
      <point x="155" y="460" type="qcurve" smooth="yes"/>
      <point x="171" y="460"/>
      <point x="173" y="457" type="qcurve"/>
      <point x="212" y="492"/>
      <point x="277" y="492" type="qcurve" smooth="yes"/>
      <point x="386" y="492"/>
      <point x="438" y="376" type="qcurve" smooth="yes"/>
      <point x="460" y="323"/>
      <point x="460" y="245" type="qcurve" smooth="yes"/>
      <point x="460" y="148"/>
      <point x="405" y="64" type="qcurve"/>
      <point x="342" y="-24"/>
    </contour>
    <contour>
      <point x="236" y="49" type="qcurve" smooth="yes"/>
      <point x="318" y="49"/>
      <point x="362" y="143" type="qcurve" smooth="yes"/>
      <point x="382" y="189"/>
      <point x="382" y="245" type="qcurve" smooth="yes"/>
      <point x="382" y="327"/>
      <point x="326" y="420"/>
      <point x="271" y="420" type="qcurve" smooth="yes"/>
      <point x="206" y="420"/>
      <point x="116" y="285"/>
      <point x="116" y="208" type="qcurve" smooth="yes"/>
      <point x="116" y="49"/>
    </contour>
    <contour>
      <point x="123" y="559" type="qcurve" smooth="yes"/>
      <point x="98" y="559"/>
      <point x="98" y="581" type="qcurve" smooth="yes"/>
      <point x="98" y="587"/>
      <point x="109" y="603" type="qcurve" smooth="yes"/>
      <point x="143" y="653"/>
      <point x="207" y="720" type="qcurve" smooth="yes"/>
      <point x="223" y="731"/>
      <point x="248" y="731" type="qcurve" smooth="yes"/>
      <point x="280" y="731"/>
      <point x="295" y="716" type="qcurve" smooth="yes"/>
      <point x="306" y="704" type="line" smooth="yes"/>
      <point x="403" y="604"/>
      <point x="403" y="581" type="qcurve" smooth="yes"/>
      <point x="403" y="559"/>
      <point x="377" y="559" type="qcurve" smooth="yes"/>
      <point x="367" y="559"/>
      <point x="359" y="567" type="qcurve" smooth="yes"/>
      <point x="311" y="609"/>
      <point x="251" y="648" type="qcurve"/>
      <point x="253" y="650" type="line"/>
      <point x="188" y="607"/>
      <point x="142" y="567" type="qcurve" smooth="yes"/>
      <point x="135" y="559"/>
    </contour>
  </outline>
</glyph>
<glyph name="otilde" format="2">
  <advance height="1000" width="500"/>
  <unicode hex="00F5"/>
  <outline>
    <contour>
      <point x="238" y="-24" type="qcurve" smooth="yes"/>
      <point x="143" y="-24"/>
      <point x="39" y="102"/>
      <point x="39" y="207" type="qcurve" smooth="yes"/>
      <point x="39" y="251"/>
      <point x="65" y="339"/>
      <point x="103" y="412"/>
      <point x="143" y="460"/>
      <point x="157" y="460" type="qcurve" smooth="yes"/>
      <point x="173" y="460"/>
      <point x="175" y="457" type="qcurve"/>
      <point x="214" y="492"/>
      <point x="278" y="492" type="qcurve" smooth="yes"/>
      <point x="388" y="492"/>
      <point x="440" y="376" type="qcurve" smooth="yes"/>
      <point x="462" y="323"/>
      <point x="462" y="245" type="qcurve" smooth="yes"/>
      <point x="462" y="148"/>
      <point x="406" y="64" type="qcurve" smooth="yes"/>
      <point x="344" y="-24"/>
    </contour>
    <contour>
      <point x="238" y="49" type="qcurve" smooth="yes"/>
      <point x="320" y="49"/>
      <point x="363" y="143" type="qcurve" smooth="yes"/>
      <point x="384" y="189"/>
      <point x="384" y="245" type="qcurve" smooth="yes"/>
      <point x="384" y="327"/>
      <point x="328" y="420"/>
      <point x="273" y="420" type="qcurve" smooth="yes"/>
      <point x="208" y="420"/>
      <point x="117" y="285"/>
      <point x="117" y="208" type="qcurve" smooth="yes"/>
      <point x="117" y="49"/>
    </contour>
    <contour>
      <point x="140" y="583" type="qcurve" smooth="yes"/>
      <point x="131" y="583"/>
      <point x="117" y="596"/>
      <point x="117" y="606" type="qcurve" smooth="yes"/>
      <point x="117" y="621"/>
      <point x="139" y="665"/>
      <point x="181" y="706"/>
      <point x="213" y="706" type="qcurve" smooth="yes"/>
      <point x="241" y="706"/>
      <point x="279" y="682"/>
      <point x="310" y="655"/>
      <point x="320" y="655" type="qcurve" smooth="yes"/>
      <point x="351" y="655"/>
      <point x="368" y="693" type="qcurve" smooth="yes"/>
      <point x="375" y="709"/>
      <point x="391" y="709" type="qcurve" smooth="yes"/>
      <point x="400" y="709"/>
      <point x="413" y="696"/>
      <point x="413" y="686" type="qcurve" smooth="yes"/>
      <point x="413" y="654"/>
      <point x="382" y="616" type="qcurve" smooth="yes"/>
      <point x="357" y="586"/>
      <point x="318" y="586" type="qcurve" smooth="yes"/>
      <point x="288" y="586"/>
      <point x="248" y="612"/>
      <point x="222" y="637"/>
      <point x="211" y="637" type="qcurve" smooth="yes"/>
      <point x="180" y="637"/>
      <point x="163" y="600" type="qcurve" smooth="yes"/>
      <point x="157" y="583"/>
    </contour>
  </outline>
</glyph>
<glyph name="thorn" format="2">
  <advance height="1000" width="500"/>
  <unicode hex="00FE"/>
  <outline>
    <contour>
      <point x="121" y="-178" type="qcurve" smooth="yes"/>
      <point x="104" y="-178"/>
      <point x="64" y="-160"/>
      <point x="64" y="-144" type="qcurve" smooth="yes"/>
      <point x="64" y="-132"/>
      <point x="66" y="-80"/>
      <point x="66" y="271" type="qcurve" smooth="yes"/>
      <point x="66" y="631"/>
      <point x="63" y="700" type="qcurve" smooth="yes"/>
      <point x="63" y="716"/>
      <point x="89" y="716" type="qcurve" smooth="yes"/>
      <point x="107" y="716"/>
      <point x="147" y="698"/>
      <point x="147" y="682" type="qcurve" smooth="yes"/>
      <point x="147" y="674"/>
      <point x="146" y="661"/>
      <point x="143" y="621"/>
      <point x="143" y="403" type="qcurve"/>
      <point x="191" y="492"/>
      <point x="305" y="492" type="qcurve" smooth="yes"/>
      <point x="377" y="492"/>
      <point x="467" y="381"/>
      <point x="467" y="278" type="qcurve" smooth="yes"/>
      <point x="467" y="108"/>
      <point x="360" y="18" type="qcurve" smooth="yes"/>
      <point x="309" y="-23"/>
      <point x="243" y="-23" type="qcurve" smooth="yes"/>
      <point x="209" y="-23"/>
      <point x="145" y="11"/>
      <point x="143" y="11" type="qcurve"/>
      <point x="143" y="-87"/>
      <point x="148" y="-145"/>
      <point x="148" y="-162" type="qcurve" smooth="yes"/>
      <point x="148" y="-178"/>
    </contour>
    <contour>
      <point x="241" y="47" type="qcurve" smooth="yes"/>
      <point x="284" y="47"/>
      <point x="335" y="105" type="qcurve" smooth="yes"/>
      <point x="388" y="169"/>
      <point x="388" y="276" type="qcurve" smooth="yes"/>
      <point x="388" y="328"/>
      <point x="363" y="391"/>
      <point x="324" y="420"/>
      <point x="305" y="420" type="qcurve" smooth="yes"/>
      <point x="234" y="420"/>
      <point x="183" y="341" type="qcurve" smooth="yes"/>
      <point x="160" y="303"/>
      <point x="150" y="253" type="qcurve" smooth="yes"/>
      <point x="143" y="213"/>
      <point x="143" y="109" type="qcurve"/>
      <point x="156" y="107"/>
      <point x="167" y="89" type="qcurve" smooth="yes"/>
      <point x="195" y="47"/>
    </contour>
  </outline>
</glyph>
<glyph name="ydieresis" format="2">
  <advance height="500" width="500"/>
  <unicode hex="00FF"/>
  <outline>
    <contour>
      <point x="170" y="586" type="qcurve" smooth="yes"/>
      <point x="216" y="586"/>
      <point x="220" y="639" type="qcurve" smooth="yes"/>
      <point x="220" y="663"/>
      <point x="184" y="707"/>
      <point x="161" y="707" type="qcurve" smooth="yes"/>
      <point x="114" y="707"/>
      <point x="111" y="653" type="qcurve" smooth="yes"/>
      <point x="111" y="632"/>
      <point x="145" y="586"/>
    </contour>
    <contour>
      <point x="335" y="586" type="qcurve" smooth="yes"/>
      <point x="380" y="586"/>
      <point x="384" y="639" type="qcurve" smooth="yes"/>
      <point x="384" y="663"/>
      <point x="349" y="707"/>
      <point x="326" y="707" type="qcurve" smooth="yes"/>
      <point x="279" y="707"/>
      <point x="276" y="653" type="qcurve" smooth="yes"/>
      <point x="276" y="632"/>
      <point x="310" y="586"/>
    </contour>
    <contour>
      <point x="127" y="-170" type="line" smooth="yes"/>
      <point x="166" y="-170"/>
      <point x="216" y="-127"/>
      <point x="235" y="-83" type="qcurve" smooth="yes"/>
      <point x="433" y="379"/>
      <point x="459" y="432" type="qcurve" smooth="yes"/>
      <point x="463" y="440"/>
      <point x="463" y="447" type="qcurve" smooth="yes"/>
      <point x="463" y="465"/>
      <point x="427" y="491"/>
      <point x="410" y="491" type="qcurve" smooth="yes"/>
      <point x="391" y="491"/>
      <point x="385" y="477" type="qcurve" smooth="yes"/>
      <point x="372" y="428"/>
      <point x="353" y="384" type="qcurve" smooth="yes"/>
      <point x="252" y="147" type="line"/>
      <point x="139" y="436"/>
      <point x="129" y="468" type="qcurve" smooth="yes"/>
      <point x="122" y="486"/>
      <point x="85" y="486" type="qcurve" smooth="yes"/>
      <point x="40" y="486"/>
      <point x="40" y="464" type="qcurve"/>
      <point x="42" y="457" type="line"/>
      <point x="60" y="423"/>
      <point x="210" y="46" type="qcurve"/>
      <point x="170" y="-45" type="line" smooth="yes"/>
      <point x="149" y="-95"/>
      <point x="124" y="-95" type="qcurve" smooth="yes"/>
      <point x="97" y="-95"/>
      <point x="82" y="-79" type="qcurve" smooth="yes"/>
      <point x="75" y="-69"/>
      <point x="62" y="-69" type="qcurve" smooth="yes"/>
      <point x="44" y="-69"/>
      <point x="24" y="-109"/>
      <point x="24" y="-124" type="qcurve" smooth="yes"/>
      <point x="24" y="-132"/>
      <point x="29" y="-140" type="qcurve" smooth="yes"/>
      <point x="65" y="-170"/>
      <point x="118" y="-170" type="qcurve" smooth="yes"/>
    </contour>
  </outline>
</glyph>
<glyph name="Amacron" format="2">
  <advance height="1000" width="500"/>
  <unicode hex="0100"/>
  <outline>
    <contour>
      <point x="432" y="-14" type="qcurve" smooth="yes"/>
      <point x="409" y="-14"/>
      <point x="398" y="2" type="qcurve"/>
      <point x="390" y="37"/>
      <point x="338" y="230" type="qcurve"/>
      <point x="160" y="219" type="line"/>
      <point x="151" y="186"/>
      <point x="124" y="97" type="qcurve"/>
      <point x="102" y="9" type="line" smooth="yes"/>
      <point x="94" y="-13"/>
      <point x="56" y="-13" type="qcurve" smooth="yes"/>
      <point x="42" y="-13"/>
      <point x="15" y="-1"/>
      <point x="15" y="12" type="qcurve" smooth="yes"/>
      <point x="15" y="17"/>
      <point x="19" y="25" type="qcurve" smooth="yes"/>
      <point x="53" y="101"/>
      <point x="84" y="211" type="qcurve" smooth="yes"/>
      <point x="85" y="211"/>
      <point x="85" y="212" type="qcurve"/>
      <point x="81" y="212" type="line" smooth="yes"/>
      <point x="69" y="212"/>
      <point x="55" y="234"/>
      <point x="46" y="259"/>
      <point x="46" y="270" type="qcurve" smooth="yes"/>
      <point x="46" y="291"/>
      <point x="65" y="291" type="qcurve" smooth="yes"/>
      <point x="106" y="285" type="line"/>
      <point x="204" y="626"/>
      <point x="211" y="683" type="qcurve" smooth="yes"/>
      <point x="214" y="700"/>
      <point x="226" y="717"/>
      <point x="243" y="717" type="qcurve" smooth="yes"/>
      <point x="260" y="717"/>
      <point x="302" y="697"/>
      <point x="306" y="686" type="qcurve" smooth="yes"/>
      <point x="308" y="684"/>
      <point x="308" y="679" type="qcurve" smooth="yes"/>
      <point x="308" y="674"/>
      <point x="305" y="663"/>
      <point x="305" y="659" type="qcurve" smooth="yes"/>
      <point x="305" y="655"/>
      <point x="321" y="591" type="qcurve" smooth="yes"/>
      <point x="442" y="92"/>
      <point x="481" y="28" type="qcurve" smooth="yes"/>
      <point x="485" y="23"/>
      <point x="485" y="17" type="qcurve" smooth="yes"/>
      <point x="485" y="2"/>
      <point x="449" y="-14"/>
    </contour>
    <contour>
      <point x="178" y="288" type="line"/>
      <point x="321" y="296" type="line"/>
      <point x="255" y="568" type="line"/>
    </contour>
    <contour>
      <point x="147" y="778" type="line" smooth="yes"/>
      <point x="122" y="778"/>
      <point x="122" y="816" type="qcurve" smooth="yes"/>
      <point x="122" y="852"/>
      <point x="148" y="852" type="qcurve" smooth="yes"/>
      <point x="353" y="852" type="line" smooth="yes"/>
      <point x="379" y="852"/>
      <point x="379" y="815" type="qcurve" smooth="yes"/>
      <point x="379" y="778"/>
      <point x="353" y="778" type="qcurve" smooth="yes"/>
    </contour>
  </outline>
</glyph>
<glyph name="Abreve" format="2">
  <advance height="1000" width="500"/>
  <unicode hex="0102"/>
  <outline>
    <contour>
      <point x="432" y="-14" type="qcurve" smooth="yes"/>
      <point x="409" y="-14"/>
      <point x="398" y="2" type="qcurve"/>
      <point x="390" y="37"/>
      <point x="338" y="230" type="qcurve"/>
      <point x="160" y="219" type="line"/>
      <point x="151" y="186"/>
      <point x="124" y="97" type="qcurve"/>
      <point x="102" y="9" type="line" smooth="yes"/>
      <point x="94" y="-13"/>
      <point x="56" y="-13" type="qcurve" smooth="yes"/>
      <point x="42" y="-13"/>
      <point x="15" y="-1"/>
      <point x="15" y="12" type="qcurve" smooth="yes"/>
      <point x="15" y="17"/>
      <point x="19" y="25" type="qcurve" smooth="yes"/>
      <point x="53" y="101"/>
      <point x="84" y="211" type="qcurve" smooth="yes"/>
      <point x="85" y="211"/>
      <point x="85" y="212" type="qcurve"/>
      <point x="81" y="212" type="line" smooth="yes"/>
      <point x="69" y="212"/>
      <point x="55" y="234"/>
      <point x="46" y="259"/>
      <point x="46" y="270" type="qcurve" smooth="yes"/>
      <point x="46" y="291"/>
      <point x="65" y="291" type="qcurve" smooth="yes"/>
      <point x="106" y="285" type="line"/>
      <point x="204" y="626"/>
      <point x="211" y="683" type="qcurve" smooth="yes"/>
      <point x="214" y="700"/>
      <point x="226" y="717"/>
      <point x="243" y="717" type="qcurve" smooth="yes"/>
      <point x="260" y="717"/>
      <point x="302" y="697"/>
      <point x="306" y="686" type="qcurve" smooth="yes"/>
      <point x="308" y="684"/>
      <point x="308" y="679" type="qcurve" smooth="yes"/>
      <point x="308" y="674"/>
      <point x="305" y="663"/>
      <point x="305" y="659" type="qcurve" smooth="yes"/>
      <point x="305" y="655"/>
      <point x="321" y="591" type="qcurve" smooth="yes"/>
      <point x="442" y="92"/>
      <point x="481" y="28" type="qcurve" smooth="yes"/>
      <point x="485" y="23"/>
      <point x="485" y="17" type="qcurve" smooth="yes"/>
      <point x="485" y="2"/>
      <point x="449" y="-14"/>
    </contour>
    <contour>
      <point x="178" y="288" type="line"/>
      <point x="321" y="296" type="line"/>
      <point x="255" y="568" type="line"/>
    </contour>
    <contour>
      <point x="264" y="767" type="qcurve" smooth="yes"/>
      <point x="192" y="767"/>
      <point x="107" y="847"/>
      <point x="107" y="867" type="qcurve" smooth="yes"/>
      <point x="107" y="877"/>
      <point x="132" y="899"/>
      <point x="146" y="899" type="qcurve" smooth="yes"/>
      <point x="163" y="899"/>
      <point x="170" y="885" type="qcurve" smooth="yes"/>
      <point x="181" y="863"/>
      <point x="231" y="837"/>
      <point x="263" y="837" type="qcurve" smooth="yes"/>
      <point x="294" y="837"/>
      <point x="344" y="863"/>
      <point x="355" y="885" type="qcurve" smooth="yes"/>
      <point x="362" y="899"/>
      <point x="379" y="899" type="qcurve" smooth="yes"/>
      <point x="393" y="899"/>
      <point x="418" y="877"/>
      <point x="418" y="868" type="qcurve" smooth="yes"/>
      <point x="418" y="849"/>
      <point x="383" y="812" type="qcurve" smooth="yes"/>
      <point x="337" y="767"/>
    </contour>
  </outline>
</glyph>
<glyph name="Cacute" format="2">
  <advance height="1000" width="500"/>
  <unicode hex="0106"/>
  <outline>
    <contour>
      <point x="247" y="-22" type="qcurve" smooth="yes"/>
      <point x="184" y="-22"/>
      <point x="86" y="43"/>
      <point x="29" y="183"/>
      <point x="29" y="293" type="qcurve" smooth="yes"/>
      <point x="29" y="470"/>
      <point x="173" y="718"/>
      <point x="280" y="718" type="qcurve" smooth="yes"/>
      <point x="389" y="718"/>
      <point x="456" y="622" type="qcurve" smooth="yes"/>
      <point x="460" y="617"/>
      <point x="460" y="610" type="qcurve" smooth="yes"/>
      <point x="460" y="595"/>
      <point x="435" y="555"/>
      <point x="419" y="555" type="qcurve" smooth="yes"/>
      <point x="406" y="555"/>
      <point x="399" y="567" type="qcurve" smooth="yes"/>
      <point x="360" y="641"/>
      <point x="277" y="641" type="qcurve" smooth="yes"/>
      <point x="187" y="641"/>
      <point x="132" y="475" type="qcurve" smooth="yes"/>
      <point x="108" y="396"/>
      <point x="108" y="295" type="qcurve" smooth="yes"/>
      <point x="108" y="54"/>
      <point x="251" y="54" type="qcurve" smooth="yes"/>
      <point x="351" y="54"/>
      <point x="425" y="176" type="qcurve" smooth="yes"/>
      <point x="437" y="194"/>
      <point x="453" y="194" type="qcurve" smooth="yes"/>
      <point x="474" y="194"/>
      <point x="474" y="169" type="qcurve" smooth="yes"/>
      <point x="474" y="162"/>
      <point x="466" y="142" type="qcurve" smooth="yes"/>
      <point x="449" y="97"/>
      <point x="395" y="41" type="qcurve" smooth="yes"/>
      <point x="331" y="-22"/>
    </contour>
    <contour>
      <point x="200" y="735" type="qcurve" smooth="yes"/>
      <point x="190" y="735"/>
      <point x="177" y="750"/>
      <point x="177" y="758" type="qcurve" smooth="yes"/>
      <point x="177" y="781"/>
      <point x="316" y="883" type="qcurve" smooth="yes"/>
      <point x="320" y="886"/>
      <point x="330" y="886" type="qcurve" smooth="yes"/>
      <point x="340" y="886"/>
      <point x="355" y="874" type="qcurve" smooth="yes"/>
      <point x="389" y="848"/>
      <point x="389" y="826" type="qcurve" smooth="yes"/>
      <point x="389" y="817"/>
      <point x="379" y="811" type="qcurve" smooth="yes"/>
      <point x="334" y="792"/>
      <point x="248" y="760"/>
      <point x="210" y="735"/>
    </contour>
  </outline>
</glyph>
<glyph name="cdotaccent" format="2">
  <advance height="1000" width="500"/>
  <unicode hex="010B"/>
  <outline>
    <contour>
      <point x="237" y="-24" type="qcurve" smooth="yes"/>
      <point x="187" y="-24"/>
      <point x="102" y="28"/>
      <point x="53" y="126"/>
      <point x="53" y="190" type="qcurve" smooth="yes"/>
      <point x="53" y="254"/>
      <point x="95" y="362"/>
      <point x="162" y="444"/>
      <point x="249" y="492"/>
      <point x="291" y="492" type="qcurve" smooth="yes"/>
      <point x="333" y="492"/>
      <point x="388" y="467"/>
      <point x="419" y="433"/>
      <point x="433" y="404"/>
      <point x="433" y="401" type="qcurve" smooth="yes"/>
      <point x="433" y="384"/>
      <point x="402" y="349"/>
      <point x="389" y="349" type="qcurve" smooth="yes"/>
      <point x="374" y="349"/>
      <point x="370" y="358" type="qcurve" smooth="yes"/>
      <point x="354" y="395"/>
      <point x="343" y="403" type="qcurve" smooth="yes"/>
      <point x="320" y="421"/>
      <point x="296" y="421" type="qcurve" smooth="yes"/>
      <point x="243" y="421"/>
      <point x="189" y="357" type="qcurve" smooth="yes"/>
      <point x="133" y="287"/>
      <point x="133" y="199" type="qcurve" smooth="yes"/>
      <point x="133" y="147"/>
      <point x="150" y="114" type="qcurve" smooth="yes"/>
      <point x="183" y="46"/>
      <point x="243" y="46" type="qcurve" smooth="yes"/>
      <point x="324" y="46"/>
      <point x="413" y="144" type="qcurve" smooth="yes"/>
      <point x="428" y="161"/>
      <point x="442" y="161" type="qcurve" smooth="yes"/>
      <point x="458" y="161"/>
      <point x="458" y="146" type="qcurve" smooth="yes"/>
      <point x="458" y="137"/>
      <point x="432" y="84"/>
      <point x="406" y="53" type="qcurve" smooth="yes"/>
      <point x="339" y="-24"/>
    </contour>
    <contour>
      <point x="277" y="584" type="qcurve" smooth="yes"/>
      <point x="252" y="584"/>
      <point x="221" y="628"/>
      <point x="221" y="649" type="qcurve" smooth="yes"/>
      <point x="221" y="671"/>
      <point x="247" y="704"/>
      <point x="272" y="704" type="qcurve" smooth="yes"/>
      <point x="296" y="704"/>
      <point x="328" y="659"/>
      <point x="328" y="638" type="qcurve" smooth="yes"/>
      <point x="328" y="616"/>
      <point x="301" y="584"/>
    </contour>
  </outline>
</glyph>
<glyph name="eogonek" format="2">
  <advance height="1000" width="500"/>
  <unicode hex="0119"/>
  <outline>
    <contour>
      <point x="385" y="-132" type="qcurve" smooth="yes"/>
      <point x="344" y="-132"/>
      <point x="296" y="-80"/>
      <point x="296" y="-43" type="qcurve" smooth="yes"/>
      <point x="296" y="-22"/>
      <point x="298" y="-15" type="qcurve"/>
      <point x="273" y="-24"/>
      <point x="225" y="-24" type="qcurve" smooth="yes"/>
      <point x="176" y="-24"/>
      <point x="97" y="30"/>
      <point x="53" y="129"/>
      <point x="53" y="207" type="qcurve"/>
      <point x="34" y="223"/>
      <point x="34" y="241" type="qcurve" smooth="yes"/>
      <point x="34" y="260"/>
      <point x="59" y="260" type="qcurve" smooth="yes"/>
      <point x="60" y="260" type="line"/>
      <point x="72" y="336"/>
      <point x="204" y="492"/>
      <point x="293" y="492" type="qcurve" smooth="yes"/>
      <point x="352" y="492"/>
      <point x="388" y="468" type="qcurve" smooth="yes"/>
      <point x="451" y="427"/>
      <point x="451" y="340" type="qcurve" smooth="yes"/>
      <point x="451" y="305"/>
      <point x="441" y="263"/>
      <point x="421" y="250" type="qcurve" smooth="yes"/>
      <point x="333" y="190"/>
      <point x="129" y="190" type="qcurve"/>
      <point x="129" y="122"/>
      <point x="186" y="47"/>
      <point x="232" y="47" type="qcurve" smooth="yes"/>
      <point x="340" y="47"/>
      <point x="407" y="128" type="qcurve" smooth="yes"/>
      <point x="422" y="146"/>
      <point x="436" y="146" type="qcurve" smooth="yes"/>
      <point x="454" y="146"/>
      <point x="454" y="130" type="qcurve" smooth="yes"/>
      <point x="454" y="102"/>
      <point x="408" y="51" type="qcurve" smooth="yes"/>
      <point x="376" y="11"/>
      <point x="376" y="-38" type="qcurve" smooth="yes"/>
      <point x="376" y="-65"/>
      <point x="404" y="-65" type="qcurve" smooth="yes"/>
      <point x="436" y="-65"/>
      <point x="463" y="-39" type="qcurve" smooth="yes"/>
      <point x="475" y="-25"/>
      <point x="490" y="-25" type="qcurve" smooth="yes"/>
      <point x="508" y="-25"/>
      <point x="508" y="-42" type="qcurve" smooth="yes"/>
      <point x="508" y="-55"/>
      <point x="476" y="-97"/>
      <point x="425" y="-132"/>
    </contour>
    <contour>
      <point x="138" y="258" type="qcurve"/>
      <point x="145" y="258" type="line" smooth="yes"/>
      <point x="244" y="258"/>
      <point x="328" y="283" type="qcurve" smooth="yes"/>
      <point x="357" y="293"/>
      <point x="374" y="316"/>
      <point x="374" y="341" type="qcurve" smooth="yes"/>
      <point x="374" y="422"/>
      <point x="292" y="422" type="qcurve" smooth="yes"/>
      <point x="235" y="422"/>
      <point x="149" y="311"/>
    </contour>
  </outline>
</glyph>
<glyph name="gbreve" format="2">
  <advance height="1000" width="500"/>
  <unicode hex="011F"/>
  <outline>
    <contour>
      <point x="207" y="-181" type="qcurve" smooth="yes"/>
      <point x="142" y="-181"/>
      <point x="64" y="-131"/>
      <point x="39" y="-87" type="qcurve" smooth="yes"/>
      <point x="35" y="-81"/>
      <point x="35" y="-71" type="qcurve" smooth="yes"/>
      <point x="35" y="-60"/>
      <point x="67" y="-22"/>
      <point x="83" y="-22" type="qcurve" smooth="yes"/>
      <point x="101" y="-22"/>
      <point x="105" y="-37" type="qcurve" smooth="yes"/>
      <point x="121" y="-76"/>
      <point x="166" y="-108"/>
      <point x="208" y="-108" type="qcurve" smooth="yes"/>
      <point x="251" y="-108"/>
      <point x="320" y="-71"/>
      <point x="362" y="1"/>
      <point x="362" y="51" type="qcurve" smooth="yes"/>
      <point x="362" y="85" type="line"/>
      <point x="345" y="55"/>
      <point x="247" y="1"/>
      <point x="196" y="1" type="qcurve" smooth="yes"/>
      <point x="120" y="1"/>
      <point x="32" y="110"/>
      <point x="32" y="213" type="qcurve" smooth="yes"/>
      <point x="32" y="316"/>
      <point x="96" y="403" type="qcurve" smooth="yes"/>
      <point x="166" y="492"/>
      <point x="255" y="492" type="qcurve" smooth="yes"/>
      <point x="345" y="492"/>
      <point x="361" y="461" type="qcurve"/>
      <point x="360" y="475" type="line" smooth="yes"/>
      <point x="360" y="491"/>
      <point x="384" y="491" type="qcurve" smooth="yes"/>
      <point x="403" y="491"/>
      <point x="442" y="473"/>
      <point x="442" y="457" type="qcurve" smooth="yes"/>
      <point x="438" y="381"/>
      <point x="438" y="358" type="qcurve" smooth="yes"/>
      <point x="438" y="50" type="line" smooth="yes"/>
      <point x="438" y="-24"/>
      <point x="375" y="-127"/>
      <point x="271" y="-181"/>
    </contour>
    <contour>
      <point x="189" y="73" type="qcurve" smooth="yes"/>
      <point x="266" y="73"/>
      <point x="319" y="141" type="qcurve" smooth="yes"/>
      <point x="359" y="189"/>
      <point x="362" y="263" type="qcurve" smooth="yes"/>
      <point x="363" y="290"/>
      <point x="363" y="362" type="qcurve" smooth="yes"/>
      <point x="365" y="366"/>
      <point x="365" y="368" type="qcurve" smooth="yes"/>
      <point x="365" y="373"/>
      <point x="356" y="373" type="qcurve" smooth="yes"/>
      <point x="342" y="373"/>
      <point x="335" y="383" type="qcurve" smooth="yes"/>
      <point x="310" y="421"/>
      <point x="254" y="421" type="qcurve" smooth="yes"/>
      <point x="229" y="421"/>
      <point x="175" y="387"/>
      <point x="156" y="356" type="qcurve" smooth="yes"/>
      <point x="111" y="290"/>
      <point x="111" y="212" type="qcurve" smooth="yes"/>
      <point x="111" y="73"/>
    </contour>
    <contour>
      <point x="261" y="535" type="qcurve" smooth="yes"/>
      <point x="189" y="535"/>
      <point x="140" y="580" type="qcurve" smooth="yes"/>
      <point x="101" y="615"/>
      <point x="101" y="637" type="qcurve" smooth="yes"/>
      <point x="101" y="647"/>
      <point x="128" y="670"/>
      <point x="144" y="670" type="qcurve" smooth="yes"/>
      <point x="161" y="670"/>
      <point x="168" y="656" type="qcurve" smooth="yes"/>
      <point x="195" y="606"/>
      <point x="259" y="606" type="qcurve" smooth="yes"/>
      <point x="291" y="606"/>
      <point x="335" y="627"/>
      <point x="350" y="656" type="qcurve" smooth="yes"/>
      <point x="357" y="670"/>
      <point x="375" y="670" type="qcurve" smooth="yes"/>
      <point x="390" y="670"/>
      <point x="417" y="647"/>
      <point x="417" y="637" type="qcurve" smooth="yes"/>
      <point x="417" y="614"/>
      <point x="333" y="535"/>
    </contour>
  </outline>
</glyph>
<glyph name="Hbar" format="2">
  <advance height="1000" width="500"/>
  <unicode hex="0126"/>
  <outline>
    <contour>
      <point x="114" y="-17" type="qcurve" smooth="yes"/>
      <point x="97" y="-17"/>
      <point x="57" y="1"/>
      <point x="57" y="17" type="qcurve" smooth="yes"/>
      <point x="57" y="29"/>
      <point x="58" y="55" type="qcurve" smooth="yes"/>
      <point x="59" y="81"/>
      <point x="59" y="327" type="qcurve"/>
      <point x="56" y="327"/>
      <point x="53" y="328" type="qcurve"/>
      <point x="59" y="327" type="line"/>
      <point x="59" y="336" type="line"/>
      <point x="49" y="330" type="line"/>
      <point x="38" y="335"/>
      <point x="33" y="349" type="qcurve" smooth="yes"/>
      <point x="23" y="370"/>
      <point x="23" y="385" type="qcurve" smooth="yes"/>
      <point x="23" y="408"/>
      <point x="43" y="408" type="qcurve" smooth="yes"/>
      <point x="59" y="407" type="line"/>
      <point x="59" y="510" type="line"/>
      <point x="44" y="510"/>
      <point x="24" y="552"/>
      <point x="24" y="567" type="qcurve" smooth="yes"/>
      <point x="24" y="591"/>
      <point x="45" y="591" type="qcurve" smooth="yes"/>
      <point x="59" y="590" type="line"/>
      <point x="56" y="695" type="line" smooth="yes"/>
      <point x="56" y="711"/>
      <point x="83" y="711" type="qcurve" smooth="yes"/>
      <point x="101" y="711"/>
      <point x="140" y="693"/>
      <point x="140" y="677" type="qcurve" smooth="yes"/>
      <point x="138" y="590" type="line"/>
      <point x="343" y="602"/>
      <point x="365" y="606" type="qcurve"/>
      <point x="365" y="650" type="line" smooth="yes"/>
      <point x="363" y="678"/>
      <point x="363" y="695" type="qcurve" smooth="yes"/>
      <point x="363" y="711"/>
      <point x="390" y="711" type="qcurve" smooth="yes"/>
      <point x="408" y="711"/>
      <point x="448" y="693"/>
      <point x="448" y="677" type="qcurve" smooth="yes"/>
      <point x="447" y="614" type="line"/>
      <point x="461" y="614"/>
      <point x="479" y="572"/>
      <point x="479" y="557" type="qcurve" smooth="yes"/>
      <point x="479" y="533"/>
      <point x="459" y="533" type="qcurve" smooth="yes"/>
      <point x="446" y="534" type="line"/>
      <point x="446" y="75"/>
      <point x="449" y="17"/>
      <point x="449" y="0" type="qcurve" smooth="yes"/>
      <point x="449" y="-16"/>
      <point x="422" y="-16" type="qcurve" smooth="yes"/>
      <point x="405" y="-16"/>
      <point x="364" y="2"/>
      <point x="364" y="18" type="qcurve" smooth="yes"/>
      <point x="364" y="30"/>
      <point x="366" y="82"/>
      <point x="366" y="341" type="qcurve"/>
      <point x="334" y="344"/>
      <point x="310" y="344" type="qcurve" smooth="yes"/>
      <point x="138" y="336" type="line"/>
      <point x="138" y="74"/>
      <point x="141" y="16"/>
      <point x="141" y="-1" type="qcurve" smooth="yes"/>
      <point x="141" y="-17"/>
    </contour>
    <contour>
      <point x="53" y="328" type="line"/>
      <point x="47" y="329" type="line"/>
      <point x="49" y="330" type="line"/>
    </contour>
    <contour>
      <point x="138" y="407" type="line"/>
      <point x="286" y="414" type="line" smooth="yes"/>
      <point x="323" y="417"/>
      <point x="360" y="422" type="qcurve"/>
      <point x="366" y="422" type="line"/>
      <point x="366" y="534" type="line"/>
      <point x="138" y="519" type="line"/>
    </contour>
  </outline>
</glyph>
<glyph name="Itilde" format="2">
  <advance height="1000" width="500"/>
  <unicode hex="0128"/>
  <outline>
    <contour>
      <point x="107" y="-12" type="qcurve" smooth="yes"/>
      <point x="87" y="-12"/>
      <point x="67" y="30"/>
      <point x="67" y="45" type="qcurve" smooth="yes"/>
      <point x="67" y="69"/>
      <point x="88" y="69" type="qcurve" smooth="yes"/>
      <point x="128" y="68" type="line"/>
      <point x="205" y="69" type="line"/>
      <point x="206" y="107"/>
      <point x="207" y="623" type="qcurve"/>
      <point x="159" y="620"/>
      <point x="122" y="614" type="qcurve" smooth="yes"/>
      <point x="102" y="614"/>
      <point x="82" y="656"/>
      <point x="82" y="671" type="qcurve" smooth="yes"/>
      <point x="82" y="695"/>
      <point x="103" y="695" type="qcurve" smooth="yes"/>
      <point x="110" y="695"/>
      <point x="147" y="693"/>
      <point x="167" y="693" type="qcurve" smooth="yes"/>
      <point x="264" y="693"/>
      <point x="381" y="706" type="qcurve" smooth="yes"/>
      <point x="398" y="706"/>
      <point x="417" y="664"/>
      <point x="417" y="649" type="qcurve" smooth="yes"/>
      <point x="417" y="625"/>
      <point x="397" y="625" type="qcurve" smooth="yes"/>
      <point x="340" y="628"/>
      <point x="325" y="628" type="qcurve" smooth="yes"/>
      <point x="288" y="626" type="line"/>
      <point x="289" y="152"/>
      <point x="290" y="70" type="qcurve"/>
      <point x="384" y="70"/>
      <point x="397" y="71" type="qcurve" smooth="yes"/>
      <point x="416" y="71"/>
      <point x="435" y="27"/>
      <point x="435" y="12" type="qcurve" smooth="yes"/>
      <point x="435" y="-11"/>
      <point x="415" y="-11" type="qcurve" smooth="yes"/>
      <point x="380" y="-5"/>
      <point x="304" y="-5" type="qcurve" smooth="yes"/>
      <point x="172" y="-5"/>
    </contour>
    <contour>
      <point x="125" y="750" type="qcurve" smooth="yes"/>
      <point x="116" y="750"/>
      <point x="103" y="763"/>
      <point x="103" y="773" type="qcurve" smooth="yes"/>
      <point x="103" y="788"/>
      <point x="124" y="832"/>
      <point x="167" y="873"/>
      <point x="198" y="873" type="qcurve" smooth="yes"/>
      <point x="227" y="873"/>
      <point x="264" y="849"/>
      <point x="295" y="822"/>
      <point x="305" y="822" type="qcurve" smooth="yes"/>
      <point x="337" y="822"/>
      <point x="354" y="860" type="qcurve" smooth="yes"/>
      <point x="361" y="876"/>
      <point x="376" y="876" type="qcurve" smooth="yes"/>
      <point x="386" y="876"/>
      <point x="399" y="863"/>
      <point x="399" y="853" type="qcurve" smooth="yes"/>
      <point x="399" y="821"/>
      <point x="368" y="783" type="qcurve" smooth="yes"/>
      <point x="343" y="753"/>
      <point x="304" y="753" type="qcurve" smooth="yes"/>
      <point x="274" y="753"/>
      <point x="234" y="779"/>
      <point x="207" y="804"/>
      <point x="196" y="804" type="qcurve" smooth="yes"/>
      <point x="165" y="804"/>
      <point x="148" y="767" type="qcurve" smooth="yes"/>
      <point x="142" y="750"/>
    </contour>
  </outline>
</glyph>
<glyph name="Imacron" format="2">
  <advance height="1000" width="500"/>
  <unicode hex="012A"/>
  <outline>
    <contour>
      <point x="107" y="-12" type="qcurve" smooth="yes"/>
      <point x="87" y="-12"/>
      <point x="67" y="30"/>
      <point x="67" y="45" type="qcurve" smooth="yes"/>
      <point x="67" y="69"/>
      <point x="88" y="69" type="qcurve" smooth="yes"/>
      <point x="128" y="68" type="line"/>
      <point x="205" y="69" type="line"/>
      <point x="206" y="107"/>
      <point x="207" y="623" type="qcurve"/>
      <point x="159" y="620"/>
      <point x="122" y="614" type="qcurve" smooth="yes"/>
      <point x="102" y="614"/>
      <point x="82" y="656"/>
      <point x="82" y="671" type="qcurve" smooth="yes"/>
      <point x="82" y="695"/>
      <point x="103" y="695" type="qcurve" smooth="yes"/>
      <point x="110" y="695"/>
      <point x="147" y="693"/>
      <point x="167" y="693" type="qcurve" smooth="yes"/>
      <point x="264" y="693"/>
      <point x="381" y="706" type="qcurve" smooth="yes"/>
      <point x="398" y="706"/>
      <point x="417" y="664"/>
      <point x="417" y="649" type="qcurve" smooth="yes"/>
      <point x="417" y="625"/>
      <point x="397" y="625" type="qcurve" smooth="yes"/>
      <point x="340" y="628"/>
      <point x="325" y="628" type="qcurve" smooth="yes"/>
      <point x="288" y="626" type="line"/>
      <point x="289" y="152"/>
      <point x="290" y="70" type="qcurve"/>
      <point x="384" y="70"/>
      <point x="397" y="71" type="qcurve" smooth="yes"/>
      <point x="416" y="71"/>
      <point x="435" y="27"/>
      <point x="435" y="12" type="qcurve" smooth="yes"/>
      <point x="435" y="-11"/>
      <point x="415" y="-11" type="qcurve" smooth="yes"/>
      <point x="380" y="-5"/>
      <point x="304" y="-5" type="qcurve" smooth="yes"/>
      <point x="172" y="-5"/>
    </contour>
    <contour>
      <point x="147" y="778" type="line" smooth="yes"/>
      <point x="122" y="778"/>
      <point x="122" y="816" type="qcurve" smooth="yes"/>
      <point x="122" y="852"/>
      <point x="148" y="852" type="qcurve" smooth="yes"/>
      <point x="353" y="852" type="line" smooth="yes"/>
      <point x="378" y="852"/>
      <point x="378" y="815" type="qcurve" smooth="yes"/>
      <point x="378" y="778"/>
      <point x="352" y="778" type="qcurve" smooth="yes"/>
    </contour>
  </outline>
</glyph>
<glyph name="Iogonek" format="2">
  <advance height="1000" width="500"/>
  <unicode hex="012E"/>
  <outline>
    <contour>
      <point x="255" y="-186" type="qcurve" smooth="yes"/>
      <point x="213" y="-186"/>
      <point x="160" y="-136"/>
      <point x="160" y="-40"/>
      <point x="187" y="-6" type="qcurve"/>
      <point x="163" y="-6"/>
      <point x="107" y="-12" type="qcurve" smooth="yes"/>
      <point x="87" y="-12"/>
      <point x="67" y="30"/>
      <point x="67" y="47" type="qcurve" smooth="yes"/>
      <point x="67" y="69"/>
      <point x="88" y="69" type="qcurve" smooth="yes"/>
      <point x="128" y="68" type="line"/>
      <point x="205" y="69" type="line"/>
      <point x="206" y="107"/>
      <point x="207" y="623" type="qcurve"/>
      <point x="159" y="620"/>
      <point x="122" y="614" type="qcurve" smooth="yes"/>
      <point x="102" y="614"/>
      <point x="82" y="656"/>
      <point x="82" y="673" type="qcurve" smooth="yes"/>
      <point x="82" y="695"/>
      <point x="103" y="695" type="qcurve" smooth="yes"/>
      <point x="167" y="693" type="line" smooth="yes"/>
      <point x="264" y="693"/>
      <point x="381" y="706" type="qcurve" smooth="yes"/>
      <point x="398" y="706"/>
      <point x="417" y="664"/>
      <point x="417" y="647" type="qcurve" smooth="yes"/>
      <point x="417" y="625"/>
      <point x="397" y="625" type="qcurve" smooth="yes"/>
      <point x="340" y="628"/>
      <point x="325" y="628" type="qcurve" smooth="yes"/>
      <point x="288" y="626" type="line"/>
      <point x="289" y="152"/>
      <point x="290" y="70" type="qcurve"/>
      <point x="400" y="70" type="line" smooth="yes"/>
      <point x="416" y="70"/>
      <point x="435" y="27"/>
      <point x="435" y="11" type="qcurve" smooth="yes"/>
      <point x="435" y="-11"/>
      <point x="415" y="-11" type="qcurve" smooth="yes"/>
      <point x="380" y="-5"/>
      <point x="293" y="-5" type="qcurve"/>
      <point x="289" y="-16"/>
      <point x="266" y="-16" type="qcurve"/>
      <point x="240" y="-50"/>
      <point x="240" y="-92" type="qcurve" smooth="yes"/>
      <point x="240" y="-119"/>
      <point x="314" y="-119"/>
      <point x="345" y="-92" type="qcurve" smooth="yes"/>
      <point x="358" y="-79"/>
      <point x="371" y="-79" type="qcurve" smooth="yes"/>
      <point x="387" y="-79"/>
      <point x="387" y="-96" type="qcurve" smooth="yes"/>
      <point x="387" y="-110"/>
      <point x="370" y="-132" type="qcurve" smooth="yes"/>
      <point x="325" y="-186"/>
    </contour>
  </outline>
</glyph>
<glyph name="IJ" format="2">
  <advance height="1000" width="500"/>
  <unicode hex="0132"/>
  <outline>
    <contour>
      <point x="346" y="-23" type="qcurve" smooth="yes"/>
      <point x="283" y="-23"/>
      <point x="251" y="46" type="qcurve" smooth="yes"/>
      <point x="228" y="97"/>
      <point x="228" y="122" type="qcurve" smooth="yes"/>
      <point x="228" y="133"/>
      <point x="237" y="156"/>
      <point x="257" y="179"/>
      <point x="273" y="179" type="qcurve" smooth="yes"/>
      <point x="297" y="179"/>
      <point x="298" y="161" type="qcurve" smooth="yes"/>
      <point x="312" y="55"/>
      <point x="343" y="55" type="qcurve" smooth="yes"/>
      <point x="381" y="55"/>
      <point x="381" y="180" type="qcurve" smooth="yes"/>
      <point x="381" y="623"/>
      <point x="379" y="695" type="qcurve" smooth="yes"/>
      <point x="379" y="711"/>
      <point x="405" y="711" type="qcurve" smooth="yes"/>
      <point x="420" y="711"/>
      <point x="456" y="693"/>
      <point x="456" y="677" type="qcurve" smooth="yes"/>
      <point x="454" y="603"/>
      <point x="454" y="177" type="qcurve" smooth="yes"/>
      <point x="454" y="-23"/>
    </contour>
    <contour>
      <point x="81" y="-12" type="line"/>
      <point x="42" y="-12"/>
      <point x="42" y="45" type="qcurve" smooth="yes"/>
      <point x="42" y="69"/>
      <point x="68" y="69" type="qcurve" smooth="yes"/>
      <point x="92" y="68" type="line"/>
      <point x="102" y="69" type="line"/>
      <point x="103" y="107"/>
      <point x="104" y="622" type="qcurve"/>
      <point x="91" y="621" type="line" smooth="yes"/>
      <point x="51" y="621"/>
      <point x="51" y="671" type="qcurve" smooth="yes"/>
      <point x="51" y="695"/>
      <point x="77" y="695" type="qcurve" smooth="yes"/>
      <point x="82" y="695"/>
      <point x="105" y="693"/>
      <point x="116" y="693" type="qcurve" smooth="yes"/>
      <point x="148" y="693"/>
      <point x="195" y="706" type="qcurve"/>
      <point x="234" y="706"/>
      <point x="234" y="649" type="qcurve" smooth="yes"/>
      <point x="234" y="625"/>
      <point x="208" y="625" type="qcurve" smooth="yes"/>
      <point x="178" y="625" type="line"/>
      <point x="179" y="152"/>
      <point x="180" y="70" type="qcurve"/>
      <point x="199" y="70"/>
      <point x="207" y="71" type="qcurve" smooth="yes"/>
      <point x="245" y="71"/>
      <point x="245" y="12" type="qcurve" smooth="yes"/>
      <point x="245" y="-11"/>
      <point x="217" y="-11" type="qcurve"/>
      <point x="195" y="-5"/>
      <point x="176" y="-5" type="qcurve" smooth="yes"/>
      <point x="120" y="-5"/>
      <point x="112" y="-7" type="qcurve" smooth="yes"/>
    </contour>
  </outline>
</glyph>
<glyph name="ij" format="2">
  <advance height="1000" width="500"/>
  <unicode hex="0133"/>
  <outline>
    <contour>
      <point x="267" y="-168" type="qcurve" smooth="yes"/>
      <point x="221" y="-168"/>
      <point x="160" y="-135"/>
      <point x="160" y="-114" type="qcurve" smooth="yes"/>
      <point x="160" y="-96"/>
      <point x="183" y="-60"/>
      <point x="197" y="-60" type="qcurve" smooth="yes"/>
      <point x="211" y="-60"/>
      <point x="238" y="-94"/>
      <point x="269" y="-94" type="qcurve" smooth="yes"/>
      <point x="298" y="-94"/>
      <point x="298" y="-31" type="qcurve" smooth="yes"/>
      <point x="298" y="364"/>
      <point x="295" y="475" type="qcurve" smooth="yes"/>
      <point x="295" y="491"/>
      <point x="319" y="491" type="qcurve" smooth="yes"/>
      <point x="338" y="491"/>
      <point x="380" y="474"/>
      <point x="380" y="457" type="qcurve" smooth="yes"/>
      <point x="378" y="364"/>
      <point x="378" y="-30" type="qcurve" smooth="yes"/>
      <point x="378" y="-108"/>
      <point x="337" y="-145" type="qcurve" smooth="yes"/>
      <point x="313" y="-168"/>
    </contour>
    <contour>
      <point x="187" y="-16" type="qcurve" smooth="yes"/>
      <point x="168" y="-16"/>
      <point x="124" y="1"/>
      <point x="124" y="17" type="qcurve" smooth="yes"/>
      <point x="126" y="105" type="line"/>
      <point x="126" y="368"/>
      <point x="123" y="475" type="qcurve" smooth="yes"/>
      <point x="123" y="490"/>
      <point x="147" y="490" type="qcurve" smooth="yes"/>
      <point x="166" y="490"/>
      <point x="209" y="473"/>
      <point x="209" y="457" type="qcurve" smooth="yes"/>
      <point x="207" y="368" type="line"/>
      <point x="207" y="105"/>
      <point x="210" y="-1" type="qcurve" smooth="yes"/>
      <point x="210" y="-16"/>
    </contour>
    <contour>
      <point x="168" y="584" type="qcurve" smooth="yes"/>
      <point x="144" y="584"/>
      <point x="110" y="627"/>
      <point x="110" y="650" type="qcurve" smooth="yes"/>
      <point x="110" y="672"/>
      <point x="138" y="704"/>
      <point x="163" y="704" type="qcurve" smooth="yes"/>
      <point x="187" y="704"/>
      <point x="221" y="660"/>
      <point x="221" y="638" type="qcurve" smooth="yes"/>
      <point x="221" y="615"/>
      <point x="192" y="584"/>
    </contour>
    <contour>
      <point x="341" y="584" type="qcurve" smooth="yes"/>
      <point x="317" y="584"/>
      <point x="283" y="627"/>
      <point x="283" y="650" type="qcurve" smooth="yes"/>
      <point x="283" y="672"/>
      <point x="311" y="704"/>
      <point x="336" y="704" type="qcurve" smooth="yes"/>
      <point x="360" y="704"/>
      <point x="394" y="660"/>
      <point x="394" y="638" type="qcurve" smooth="yes"/>
      <point x="394" y="615"/>
      <point x="365" y="584"/>
    </contour>
  </outline>
</glyph>
<glyph name="lcaron" format="2">
  <advance height="1000" width="500"/>
  <unicode hex="013E"/>
  <outline>
    <contour>
      <point x="287" y="-24" type="qcurve" smooth="yes"/>
      <point x="231" y="-24"/>
      <point x="183" y="43"/>
      <point x="183" y="110" type="qcurve" smooth="yes"/>
      <point x="182" y="640" type="line"/>
      <point x="149" y="635"/>
      <point x="98" y="635"/>
      <point x="85" y="634" type="qcurve" smooth="yes"/>
      <point x="69" y="634"/>
      <point x="48" y="677"/>
      <point x="48" y="693" type="qcurve" smooth="yes"/>
      <point x="48" y="716"/>
      <point x="63" y="716" type="qcurve" smooth="yes"/>
      <point x="101" y="710"/>
      <point x="112" y="710" type="qcurve" smooth="yes"/>
      <point x="182" y="710"/>
      <point x="222" y="720" type="qcurve"/>
      <point x="246" y="720"/>
      <point x="261" y="690" type="qcurve" smooth="yes"/>
      <point x="269" y="678"/>
      <point x="269" y="668" type="qcurve" smooth="yes"/>
      <point x="269" y="658"/>
      <point x="262" y="645"/>
      <point x="262" y="108" type="qcurve" smooth="yes"/>
      <point x="262" y="71"/>
      <point x="274" y="52"/>
      <point x="297" y="52" type="qcurve" smooth="yes"/>
      <point x="342" y="52"/>
      <point x="403" y="92" type="qcurve" smooth="yes"/>
      <point x="421" y="106"/>
      <point x="432" y="106" type="qcurve" smooth="yes"/>
      <point x="446" y="106"/>
      <point x="446" y="89" type="qcurve" smooth="yes"/>
      <point x="446" y="77"/>
      <point x="419" y="41"/>
      <point x="374" y="3"/>
      <point x="312" y="-24"/>
    </contour>
    <contour>
      <point x="360" y="475" type="qcurve" smooth="yes"/>
      <point x="329" y="475"/>
      <point x="326" y="493" type="qcurve" smooth="yes"/>
      <point x="322" y="670" type="line" smooth="yes"/>
      <point x="322" y="682"/>
      <point x="347" y="694"/>
      <point x="359" y="694" type="qcurve" smooth="yes"/>
      <point x="396" y="694"/>
      <point x="396" y="671" type="qcurve" smooth="yes"/>
      <point x="391" y="494" type="line" smooth="yes"/>
      <point x="391" y="475"/>
    </contour>
  </outline>
</glyph>
<glyph name="napostrophe" format="2">
  <advance height="1000" width="500"/>
  <unicode hex="0149"/>
  <outline>
    <contour>
      <point x="116" y="-17" type="qcurve" smooth="yes"/>
      <point x="97" y="-17"/>
      <point x="58" y="1"/>
      <point x="58" y="17" type="qcurve" smooth="yes"/>
      <point x="60" y="115" type="line"/>
      <point x="60" y="364"/>
      <point x="57" y="471" type="qcurve" smooth="yes"/>
      <point x="57" y="487"/>
      <point x="81" y="487" type="qcurve" smooth="yes"/>
      <point x="100" y="487"/>
      <point x="139" y="469"/>
      <point x="139" y="453" type="qcurve" smooth="yes"/>
      <point x="139" y="439" type="line"/>
      <point x="137" y="409" type="line"/>
      <point x="150" y="432"/>
      <point x="246" y="491"/>
      <point x="295" y="491" type="qcurve" smooth="yes"/>
      <point x="385" y="491"/>
      <point x="417" y="424" type="qcurve" smooth="yes"/>
      <point x="441" y="376"/>
      <point x="441" y="297" type="qcurve" smooth="yes"/>
      <point x="441" y="105"/>
      <point x="444" y="-1" type="qcurve" smooth="yes"/>
      <point x="444" y="-17"/>
      <point x="420" y="-17" type="qcurve" smooth="yes"/>
      <point x="401" y="-17"/>
      <point x="362" y="1"/>
      <point x="362" y="17" type="qcurve" smooth="yes"/>
      <point x="364" y="34"/>
      <point x="364" y="293" type="qcurve" smooth="yes"/>
      <point x="364" y="352"/>
      <point x="337" y="417"/>
      <point x="299" y="417" type="qcurve" smooth="yes"/>
      <point x="142" y="417"/>
      <point x="139" y="162" type="qcurve"/>
      <point x="137" y="97" type="line" smooth="yes"/>
      <point x="137" y="59"/>
      <point x="140" y="-1" type="qcurve" smooth="yes"/>
      <point x="140" y="-17"/>
    </contour>
    <contour>
      <point x="39" y="521" type="qcurve" smooth="yes"/>
      <point x="17" y="521"/>
      <point x="17" y="541" type="qcurve" smooth="yes"/>
      <point x="17" y="551"/>
      <point x="26" y="557" type="qcurve" smooth="yes"/>
      <point x="67" y="588"/>
      <point x="73" y="619" type="qcurve"/>
      <point x="63" y="619"/>
      <point x="53" y="631" type="qcurve" smooth="yes"/>
      <point x="32" y="652"/>
      <point x="32" y="676" type="qcurve" smooth="yes"/>
      <point x="32" y="702"/>
      <point x="65" y="730"/>
      <point x="88" y="730" type="qcurve" smooth="yes"/>
      <point x="137" y="730"/>
      <point x="144" y="655" type="qcurve" smooth="yes"/>
      <point x="144" y="620"/>
      <point x="90" y="543"/>
      <point x="51" y="525" type="qcurve" smooth="yes"/>
      <point x="46" y="521"/>
    </contour>
  </outline>
</glyph>
<glyph name="Eng" format="2">
  <advance height="1000" width="500"/>
  <unicode hex="014A"/>
  <outline>
    <contour>
      <point x="346" y="-168" type="qcurve" smooth="yes"/>
      <point x="301" y="-168"/>
      <point x="244" y="-133"/>
      <point x="244" y="-112" type="qcurve" smooth="yes"/>
      <point x="244" y="-97"/>
      <point x="266" y="-60"/>
      <point x="283" y="-60" type="qcurve" smooth="yes"/>
      <point x="297" y="-60"/>
      <point x="317" y="-88"/>
      <point x="336" y="-94"/>
      <point x="346" y="-94" type="qcurve" smooth="yes"/>
      <point x="369" y="-94"/>
      <point x="369" y="-10" type="qcurve"/>
      <point x="358" y="-2"/>
      <point x="341" y="34" type="qcurve" smooth="yes"/>
      <point x="216" y="299"/>
      <point x="126" y="521" type="qcurve"/>
      <point x="126" y="74"/>
      <point x="129" y="16"/>
      <point x="129" y="-1" type="qcurve" smooth="yes"/>
      <point x="129" y="-8"/>
      <point x="113" y="-18"/>
      <point x="102" y="-18" type="qcurve" smooth="yes"/>
      <point x="86" y="-18"/>
      <point x="49" y="1"/>
      <point x="49" y="17" type="qcurve" smooth="yes"/>
      <point x="49" y="29"/>
      <point x="51" y="81"/>
      <point x="51" y="641" type="qcurve" smooth="yes"/>
      <point x="51" y="649"/>
      <point x="45" y="668"/>
      <point x="45" y="681" type="qcurve"/>
      <point x="50" y="695"/>
      <point x="92" y="714"/>
      <point x="112" y="714" type="qcurve" smooth="yes"/>
      <point x="133" y="710"/>
      <point x="145" y="683" type="qcurve" smooth="yes"/>
      <point x="249" y="415"/>
      <point x="369" y="159" type="qcurve"/>
      <point x="371" y="589" type="line" smooth="yes"/>
      <point x="371" y="631"/>
      <point x="369" y="659" type="qcurve" smooth="yes"/>
      <point x="369" y="695" type="line" smooth="yes"/>
      <point x="369" y="702"/>
      <point x="385" y="712"/>
      <point x="396" y="712" type="qcurve" smooth="yes"/>
      <point x="411" y="712"/>
      <point x="449" y="693"/>
      <point x="449" y="677" type="qcurve" smooth="yes"/>
      <point x="448" y="640"/>
      <point x="448" y="-30" type="qcurve" smooth="yes"/>
      <point x="448" y="-59"/>
      <point x="440" y="-90" type="qcurve" smooth="yes"/>
      <point x="419" y="-168"/>
    </contour>
  </outline>
</glyph>
<glyph name="omacron" format="2">
  <advance height="1000" width="500"/>
  <unicode hex="014D"/>
  <outline>
    <contour>
      <point x="238" y="-24" type="qcurve" smooth="yes"/>
      <point x="143" y="-24"/>
      <point x="39" y="102"/>
      <point x="39" y="207" type="qcurve" smooth="yes"/>
      <point x="39" y="251"/>
      <point x="65" y="339"/>
      <point x="103" y="412"/>
      <point x="143" y="460"/>
      <point x="157" y="460" type="qcurve" smooth="yes"/>
      <point x="173" y="460"/>
      <point x="175" y="457" type="qcurve"/>
      <point x="214" y="492"/>
      <point x="278" y="492" type="qcurve" smooth="yes"/>
      <point x="388" y="492"/>
      <point x="440" y="376" type="qcurve" smooth="yes"/>
      <point x="462" y="323"/>
      <point x="462" y="245" type="qcurve" smooth="yes"/>
      <point x="462" y="148"/>
      <point x="406" y="64" type="qcurve" smooth="yes"/>
      <point x="344" y="-24"/>
    </contour>
    <contour>
      <point x="238" y="49" type="qcurve" smooth="yes"/>
      <point x="320" y="49"/>
      <point x="363" y="143" type="qcurve" smooth="yes"/>
      <point x="384" y="189"/>
      <point x="384" y="245" type="qcurve" smooth="yes"/>
      <point x="384" y="327"/>
      <point x="328" y="420"/>
      <point x="273" y="420" type="qcurve" smooth="yes"/>
      <point x="208" y="420"/>
      <point x="117" y="285"/>
      <point x="117" y="208" type="qcurve" smooth="yes"/>
      <point x="117" y="49"/>
    </contour>
    <contour>
      <point x="166" y="611" type="line" smooth="yes"/>
      <point x="141" y="611"/>
      <point x="141" y="649" type="qcurve" smooth="yes"/>
      <point x="141" y="685"/>
      <point x="167" y="685" type="qcurve" smooth="yes"/>
      <point x="372" y="685" type="line" smooth="yes"/>
      <point x="397" y="685"/>
      <point x="397" y="648" type="qcurve" smooth="yes"/>
      <point x="397" y="611"/>
      <point x="371" y="611" type="qcurve" smooth="yes"/>
    </contour>
  </outline>
</glyph>
<glyph name="Obreve" format="2">
  <advance height="1000" width="500"/>
  <unicode hex="014E"/>
  <outline>
    <contour>
      <point x="244" y="-24" type="qcurve" smooth="yes"/>
      <point x="170" y="-24"/>
      <point x="75" y="72"/>
      <point x="30" y="235"/>
      <point x="30" y="337" type="qcurve" smooth="yes"/>
      <point x="30" y="457"/>
      <point x="64" y="557" type="qcurve" smooth="yes"/>
      <point x="98" y="663"/>
      <point x="134" y="663" type="qcurve" smooth="yes"/>
      <point x="149" y="663"/>
      <point x="152" y="660" type="qcurve"/>
      <point x="194" y="719"/>
      <point x="271" y="719" type="qcurve" smooth="yes"/>
      <point x="336" y="719"/>
      <point x="426" y="625"/>
      <point x="471" y="464"/>
      <point x="471" y="363" type="qcurve" smooth="yes"/>
      <point x="471" y="208"/>
      <point x="418" y="93" type="qcurve"/>
      <point x="359" y="-24"/>
    </contour>
    <contour>
      <point x="240" y="54" type="qcurve" smooth="yes"/>
      <point x="391" y="54"/>
      <point x="391" y="371" type="qcurve" smooth="yes"/>
      <point x="391" y="485"/>
      <point x="362" y="562" type="qcurve" smooth="yes"/>
      <point x="331" y="645"/>
      <point x="267" y="645" type="qcurve" smooth="yes"/>
      <point x="234" y="645"/>
      <point x="162" y="582"/>
      <point x="109" y="445"/>
      <point x="109" y="339" type="qcurve" smooth="yes"/>
      <point x="109" y="259"/>
      <point x="134" y="130"/>
      <point x="190" y="54"/>
    </contour>
    <contour>
      <point x="269" y="767" type="qcurve" smooth="yes"/>
      <point x="196" y="767"/>
      <point x="111" y="847"/>
      <point x="111" y="867" type="qcurve" smooth="yes"/>
      <point x="111" y="877"/>
      <point x="136" y="899"/>
      <point x="150" y="899" type="qcurve" smooth="yes"/>
      <point x="167" y="899"/>
      <point x="174" y="885" type="qcurve" smooth="yes"/>
      <point x="186" y="863"/>
      <point x="236" y="837"/>
      <point x="267" y="837" type="qcurve" smooth="yes"/>
      <point x="299" y="837"/>
      <point x="348" y="863"/>
      <point x="359" y="885" type="qcurve" smooth="yes"/>
      <point x="366" y="899"/>
      <point x="383" y="899" type="qcurve" smooth="yes"/>
      <point x="398" y="899"/>
      <point x="422" y="877"/>
      <point x="422" y="868" type="qcurve" smooth="yes"/>
      <point x="422" y="849"/>
      <point x="387" y="812" type="qcurve" smooth="yes"/>
      <point x="341" y="767"/>
    </contour>
  </outline>
</glyph>
<glyph name="obreve" format="2">
  <advance height="1000" width="500"/>
  <unicode hex="014F"/>
  <outline>
    <contour>
      <point x="243" y="-24" type="qcurve" smooth="yes"/>
      <point x="143" y="-24"/>
      <point x="39" y="102"/>
      <point x="39" y="207" type="qcurve" smooth="yes"/>
      <point x="39" y="287"/>
      <point x="85" y="376" type="qcurve" smooth="yes"/>
      <point x="127" y="460"/>
      <point x="157" y="460" type="qcurve" smooth="yes"/>
      <point x="171" y="460"/>
      <point x="174" y="456" type="qcurve"/>
      <point x="218" y="492"/>
      <point x="276" y="492" type="qcurve" smooth="yes"/>
      <point x="333" y="492"/>
      <point x="376" y="461" type="qcurve" smooth="yes"/>
      <point x="462" y="398"/>
      <point x="462" y="245" type="qcurve" smooth="yes"/>
      <point x="462" y="142"/>
      <point x="405" y="64" type="qcurve" smooth="yes"/>
      <point x="343" y="-24"/>
    </contour>
    <contour>
      <point x="238" y="49" type="qcurve" smooth="yes"/>
      <point x="278" y="49"/>
      <point x="343" y="99"/>
      <point x="384" y="188"/>
      <point x="384" y="258" type="qcurve" smooth="yes"/>
      <point x="384" y="327"/>
      <point x="329" y="420"/>
      <point x="268" y="420" type="qcurve" smooth="yes"/>
      <point x="208" y="420"/>
      <point x="117" y="288"/>
      <point x="117" y="207" type="qcurve" smooth="yes"/>
      <point x="117" y="127"/>
      <point x="181" y="49"/>
    </contour>
    <contour>
      <point x="269" y="535" type="qcurve" smooth="yes"/>
      <point x="197" y="535"/>
      <point x="149" y="580" type="qcurve" smooth="yes"/>
      <point x="109" y="615"/>
      <point x="109" y="637" type="qcurve" smooth="yes"/>
      <point x="109" y="647"/>
      <point x="137" y="670"/>
      <point x="152" y="670" type="qcurve" smooth="yes"/>
      <point x="170" y="670"/>
      <point x="177" y="656" type="qcurve" smooth="yes"/>
      <point x="203" y="606"/>
      <point x="268" y="606" type="qcurve" smooth="yes"/>
      <point x="300" y="606"/>
      <point x="343" y="627"/>
      <point x="358" y="656" type="qcurve" smooth="yes"/>
      <point x="365" y="670"/>
      <point x="383" y="670" type="qcurve" smooth="yes"/>
      <point x="398" y="670"/>
      <point x="425" y="647"/>
      <point x="425" y="637" type="qcurve" smooth="yes"/>
      <point x="425" y="614"/>
      <point x="341" y="535"/>
    </contour>
  </outline>
</glyph>
<glyph name="sacute" format="2">
  <advance height="1000" width="500"/>
  <unicode hex="015B"/>
  <outline>
    <contour>
      <point x="255" y="-24" type="qcurve" smooth="yes"/>
      <point x="161" y="-24"/>
      <point x="106" y="26" type="qcurve" smooth="yes"/>
      <point x="65" y="63"/>
      <point x="65" y="90" type="qcurve" smooth="yes"/>
      <point x="65" y="101"/>
      <point x="95" y="139"/>
      <point x="108" y="139" type="qcurve" smooth="yes"/>
      <point x="123" y="139"/>
      <point x="128" y="127" type="qcurve" smooth="yes"/>
      <point x="134" y="108"/>
      <point x="148" y="88" type="qcurve" smooth="yes"/>
      <point x="175" y="46"/>
      <point x="255" y="46" type="qcurve" smooth="yes"/>
      <point x="306" y="46"/>
      <point x="359" y="94"/>
      <point x="359" y="126" type="qcurve" smooth="yes"/>
      <point x="359" y="160"/>
      <point x="329" y="201"/>
      <point x="238" y="224"/>
      <point x="193" y="236" type="qcurve" smooth="yes"/>
      <point x="87" y="264"/>
      <point x="87" y="356" type="qcurve" smooth="yes"/>
      <point x="87" y="396"/>
      <point x="110" y="427" type="qcurve" smooth="yes"/>
      <point x="160" y="492"/>
      <point x="258" y="492" type="qcurve" smooth="yes"/>
      <point x="356" y="492"/>
      <point x="411" y="426" type="qcurve" smooth="yes"/>
      <point x="415" y="422"/>
      <point x="415" y="411" type="qcurve" smooth="yes"/>
      <point x="415" y="400"/>
      <point x="393" y="363"/>
      <point x="380" y="363" type="qcurve" smooth="yes"/>
      <point x="366" y="363"/>
      <point x="355" y="380" type="qcurve" smooth="yes"/>
      <point x="328" y="425"/>
      <point x="260" y="425" type="qcurve" smooth="yes"/>
      <point x="212" y="425"/>
      <point x="163" y="384"/>
      <point x="163" y="360" type="qcurve" smooth="yes"/>
      <point x="163" y="335"/>
      <point x="184" y="310"/>
      <point x="219" y="302" type="qcurve" smooth="yes"/>
      <point x="305" y="279" type="line" smooth="yes"/>
      <point x="437" y="246"/>
      <point x="437" y="128" type="qcurve" smooth="yes"/>
      <point x="437" y="87"/>
      <point x="392" y="18"/>
      <point x="310" y="-24"/>
    </contour>
    <contour>
      <point x="183" y="568" type="qcurve" smooth="yes"/>
      <point x="173" y="568"/>
      <point x="160" y="583"/>
      <point x="160" y="591" type="qcurve" smooth="yes"/>
      <point x="160" y="614"/>
      <point x="299" y="716" type="qcurve" smooth="yes"/>
      <point x="303" y="719"/>
      <point x="313" y="719" type="qcurve" smooth="yes"/>
      <point x="323" y="719"/>
      <point x="337" y="708" type="qcurve" smooth="yes"/>
      <point x="372" y="681"/>
      <point x="372" y="659" type="qcurve" smooth="yes"/>
      <point x="372" y="650"/>
      <point x="362" y="644" type="qcurve" smooth="yes"/>
      <point x="317" y="625"/>
      <point x="231" y="593"/>
      <point x="193" y="568"/>
    </contour>
  </outline>
</glyph>
<glyph name="scircumflex" format="2">
  <advance height="1000" width="500"/>
  <unicode hex="015D"/>
  <outline>
    <contour>
      <point x="255" y="-24" type="qcurve" smooth="yes"/>
      <point x="161" y="-24"/>
      <point x="106" y="26" type="qcurve" smooth="yes"/>
      <point x="65" y="63"/>
      <point x="65" y="90" type="qcurve" smooth="yes"/>
      <point x="65" y="101"/>
      <point x="95" y="139"/>
      <point x="108" y="139" type="qcurve" smooth="yes"/>
      <point x="123" y="139"/>
      <point x="128" y="127" type="qcurve" smooth="yes"/>
      <point x="134" y="108"/>
      <point x="148" y="88" type="qcurve" smooth="yes"/>
      <point x="175" y="46"/>
      <point x="255" y="46" type="qcurve" smooth="yes"/>
      <point x="306" y="46"/>
      <point x="359" y="94"/>
      <point x="359" y="126" type="qcurve" smooth="yes"/>
      <point x="359" y="160"/>
      <point x="329" y="201"/>
      <point x="238" y="224"/>
      <point x="193" y="236" type="qcurve" smooth="yes"/>
      <point x="87" y="264"/>
      <point x="87" y="356" type="qcurve" smooth="yes"/>
      <point x="87" y="396"/>
      <point x="110" y="427" type="qcurve" smooth="yes"/>
      <point x="160" y="492"/>
      <point x="258" y="492" type="qcurve" smooth="yes"/>
      <point x="356" y="492"/>
      <point x="411" y="426" type="qcurve" smooth="yes"/>
      <point x="415" y="422"/>
      <point x="415" y="411" type="qcurve" smooth="yes"/>
      <point x="415" y="400"/>
      <point x="393" y="363"/>
      <point x="380" y="363" type="qcurve" smooth="yes"/>
      <point x="366" y="363"/>
      <point x="355" y="380" type="qcurve" smooth="yes"/>
      <point x="328" y="425"/>
      <point x="260" y="425" type="qcurve" smooth="yes"/>
      <point x="212" y="425"/>
      <point x="163" y="384"/>
      <point x="163" y="360" type="qcurve" smooth="yes"/>
      <point x="163" y="335"/>
      <point x="184" y="310"/>
      <point x="219" y="302" type="qcurve" smooth="yes"/>
      <point x="305" y="279" type="line" smooth="yes"/>
      <point x="437" y="246"/>
      <point x="437" y="128" type="qcurve" smooth="yes"/>
      <point x="437" y="87"/>
      <point x="392" y="18"/>
      <point x="310" y="-24"/>
    </contour>
    <contour>
      <point x="132" y="559" type="qcurve" smooth="yes"/>
      <point x="106" y="559"/>
      <point x="106" y="580" type="qcurve" smooth="yes"/>
      <point x="106" y="601"/>
      <point x="209" y="714" type="qcurve" smooth="yes"/>
      <point x="221" y="727"/>
      <point x="244" y="731"/>
      <point x="266" y="731" type="qcurve" smooth="yes"/>
      <point x="291" y="731"/>
      <point x="314" y="704"/>
      <point x="332" y="685" type="qcurve" smooth="yes"/>
      <point x="411" y="599"/>
      <point x="411" y="581" type="qcurve" smooth="yes"/>
      <point x="411" y="559"/>
      <point x="386" y="559" type="qcurve" smooth="yes"/>
      <point x="375" y="559"/>
      <point x="341" y="592"/>
      <point x="259" y="649" type="qcurve"/>
      <point x="175" y="589"/>
      <point x="143" y="559"/>
    </contour>
  </outline>
</glyph>
<glyph name="scedilla" format="2">
  <advance height="1000" width="500"/>
  <unicode hex="015F"/>
  <outline>
    <contour>
      <point x="288" y="-206" type="qcurve" smooth="yes"/>
      <point x="241" y="-206"/>
      <point x="200" y="-182" type="qcurve" smooth="yes"/>
      <point x="187" y="-174"/>
      <point x="187" y="-156" type="qcurve" smooth="yes"/>
      <point x="187" y="-141"/>
      <point x="199" y="-111"/>
      <point x="210" y="-111" type="qcurve" smooth="yes"/>
      <point x="219" y="-111"/>
      <point x="233" y="-121" type="qcurve" smooth="yes"/>
      <point x="255" y="-139"/>
      <point x="278" y="-139" type="qcurve" smooth="yes"/>
      <point x="301" y="-139"/>
      <point x="315" y="-131"/>
      <point x="315" y="-118" type="qcurve" smooth="yes"/>
      <point x="315" y="-98"/>
      <point x="291" y="-98" type="qcurve" smooth="yes"/>
      <point x="280" y="-98"/>
      <point x="259" y="-102" type="qcurve" smooth="yes"/>
      <point x="239" y="-102"/>
      <point x="218" y="-79"/>
      <point x="218" y="-69" type="qcurve" smooth="yes"/>
      <point x="218" y="-59"/>
      <point x="231" y="-24" type="qcurve"/>
      <point x="156" y="-20"/>
      <point x="106" y="26" type="qcurve" smooth="yes"/>
      <point x="65" y="63"/>
      <point x="65" y="90" type="qcurve" smooth="yes"/>
      <point x="65" y="101"/>
      <point x="95" y="139"/>
      <point x="108" y="139" type="qcurve" smooth="yes"/>
      <point x="123" y="139"/>
      <point x="128" y="127" type="qcurve" smooth="yes"/>
      <point x="134" y="108"/>
      <point x="148" y="88" type="qcurve" smooth="yes"/>
      <point x="175" y="46"/>
      <point x="255" y="46" type="qcurve" smooth="yes"/>
      <point x="306" y="46"/>
      <point x="359" y="94"/>
      <point x="359" y="126" type="qcurve" smooth="yes"/>
      <point x="359" y="160"/>
      <point x="329" y="201"/>
      <point x="238" y="224"/>
      <point x="193" y="236" type="qcurve" smooth="yes"/>
      <point x="87" y="264"/>
      <point x="87" y="356" type="qcurve" smooth="yes"/>
      <point x="87" y="396"/>
      <point x="110" y="427" type="qcurve" smooth="yes"/>
      <point x="160" y="492"/>
      <point x="258" y="492" type="qcurve" smooth="yes"/>
      <point x="356" y="492"/>
      <point x="411" y="426" type="qcurve" smooth="yes"/>
      <point x="415" y="422"/>
      <point x="415" y="411" type="qcurve" smooth="yes"/>
      <point x="415" y="400"/>
      <point x="393" y="363"/>
      <point x="380" y="363" type="qcurve" smooth="yes"/>
      <point x="366" y="363"/>
      <point x="355" y="380" type="qcurve" smooth="yes"/>
      <point x="328" y="425"/>
      <point x="260" y="425" type="qcurve" smooth="yes"/>
      <point x="212" y="425"/>
      <point x="163" y="384"/>
      <point x="163" y="360" type="qcurve" smooth="yes"/>
      <point x="163" y="335"/>
      <point x="184" y="310"/>
      <point x="219" y="302" type="qcurve" smooth="yes"/>
      <point x="305" y="279" type="line" smooth="yes"/>
      <point x="437" y="246"/>
      <point x="437" y="128" type="qcurve" smooth="yes"/>
      <point x="437" y="87"/>
      <point x="392" y="18"/>
      <point x="352" y="-2" type="qcurve" smooth="yes"/>
      <point x="331" y="-14"/>
      <point x="311" y="-18" type="qcurve"/>
      <point x="304" y="-40" type="line"/>
      <point x="301" y="-40" type="line"/>
      <point x="390" y="-40"/>
      <point x="390" y="-119" type="qcurve" smooth="yes"/>
      <point x="390" y="-158"/>
      <point x="334" y="-206"/>
    </contour>
  </outline>
</glyph>
<glyph name="Scaron" format="2">
  <advance height="1000" width="500"/>
  <unicode hex="0160"/>
  <outline>
    <contour>
      <point x="246" y="-24" type="qcurve" smooth="yes"/>
      <point x="169" y="-24"/>
      <point x="68" y="39"/>
      <point x="27" y="95" type="qcurve" smooth="yes"/>
      <point x="21" y="104"/>
      <point x="21" y="112" type="qcurve" smooth="yes"/>
      <point x="21" y="130"/>
      <point x="49" y="171"/>
      <point x="65" y="171" type="qcurve" smooth="yes"/>
      <point x="80" y="171"/>
      <point x="84" y="160" type="qcurve" smooth="yes"/>
      <point x="139" y="66"/>
      <point x="192" y="58" type="qcurve" smooth="yes"/>
      <point x="221" y="51"/>
      <point x="247" y="51" type="qcurve" smooth="yes"/>
      <point x="328" y="51"/>
      <point x="374" y="116" type="qcurve" smooth="yes"/>
      <point x="394" y="146"/>
      <point x="394" y="184" type="qcurve" smooth="yes"/>
      <point x="394" y="245"/>
      <point x="342" y="314"/>
      <point x="287" y="332" type="qcurve" smooth="yes"/>
      <point x="184" y="365" type="line" smooth="yes"/>
      <point x="47" y="409"/>
      <point x="47" y="526" type="qcurve" smooth="yes"/>
      <point x="47" y="575"/>
      <point x="99" y="662"/>
      <point x="195" y="719"/>
      <point x="258" y="719" type="qcurve" smooth="yes"/>
      <point x="324" y="719"/>
      <point x="443" y="641"/>
      <point x="443" y="609" type="qcurve" smooth="yes"/>
      <point x="443" y="607"/>
      <point x="438" y="581"/>
      <point x="427" y="551"/>
      <point x="410" y="551" type="qcurve" smooth="yes"/>
      <point x="399" y="551"/>
      <point x="384" y="569"/>
      <point x="380" y="573" type="qcurve" smooth="yes"/>
      <point x="326" y="644"/>
      <point x="261" y="644" type="qcurve" smooth="yes"/>
      <point x="221" y="644"/>
      <point x="162" y="610"/>
      <point x="128" y="555"/>
      <point x="128" y="524" type="qcurve" smooth="yes"/>
      <point x="128" y="464"/>
      <point x="215" y="435" type="qcurve" smooth="yes"/>
      <point x="311" y="405" type="line" smooth="yes"/>
      <point x="475" y="357"/>
      <point x="475" y="192" type="qcurve" smooth="yes"/>
      <point x="475" y="133"/>
      <point x="425" y="35"/>
      <point x="322" y="-24"/>
    </contour>
    <contour>
      <point x="251" y="730" type="qcurve" smooth="yes"/>
      <point x="226" y="730"/>
      <point x="210" y="741" type="qcurve"/>
      <point x="175" y="778"/>
      <point x="101" y="868"/>
      <point x="101" y="880" type="qcurve" smooth="yes"/>
      <point x="101" y="902"/>
      <point x="126" y="902" type="qcurve" smooth="yes"/>
      <point x="138" y="902"/>
      <point x="145" y="894" type="qcurve" smooth="yes"/>
      <point x="168" y="874"/>
      <point x="229" y="831"/>
      <point x="254" y="813" type="qcurve"/>
      <point x="279" y="831"/>
      <point x="339" y="874"/>
      <point x="361" y="894" type="qcurve" smooth="yes"/>
      <point x="370" y="902"/>
      <point x="382" y="902" type="qcurve" smooth="yes"/>
      <point x="406" y="902"/>
      <point x="406" y="880" type="qcurve" smooth="yes"/>
      <point x="406" y="873"/>
      <point x="393" y="855" type="qcurve" smooth="yes"/>
      <point x="355" y="803"/>
      <point x="309" y="757" type="qcurve" smooth="yes"/>
      <point x="297" y="744" type="line" smooth="yes"/>
      <point x="285" y="730"/>
    </contour>
  </outline>
</glyph>
<glyph name="scaron" format="2">
  <advance height="1000" width="500"/>
  <unicode hex="0161"/>
  <outline>
    <contour>
      <point x="255" y="-24" type="qcurve" smooth="yes"/>
      <point x="200" y="-24"/>
      <point x="127" y="6"/>
      <point x="85" y="45"/>
      <point x="65" y="80"/>
      <point x="65" y="85" type="qcurve" smooth="yes"/>
      <point x="65" y="101"/>
      <point x="95" y="139"/>
      <point x="110" y="139" type="qcurve" smooth="yes"/>
      <point x="125" y="139"/>
      <point x="128" y="127" type="qcurve" smooth="yes"/>
      <point x="135" y="107"/>
      <point x="160" y="70"/>
      <point x="209" y="46"/>
      <point x="255" y="46" type="qcurve" smooth="yes"/>
      <point x="305" y="46"/>
      <point x="359" y="94"/>
      <point x="359" y="126" type="qcurve" smooth="yes"/>
      <point x="359" y="160"/>
      <point x="329" y="201"/>
      <point x="238" y="224"/>
      <point x="194" y="236" type="qcurve" smooth="yes"/>
      <point x="87" y="261"/>
      <point x="87" y="356" type="qcurve" smooth="yes"/>
      <point x="87" y="396"/>
      <point x="134" y="457"/>
      <point x="214" y="492"/>
      <point x="260" y="492" type="qcurve" smooth="yes"/>
      <point x="358" y="492"/>
      <point x="411" y="427" type="qcurve" smooth="yes"/>
      <point x="415" y="425"/>
      <point x="415" y="414" type="qcurve" smooth="yes"/>
      <point x="415" y="400"/>
      <point x="393" y="363"/>
      <point x="377" y="363" type="qcurve" smooth="yes"/>
      <point x="366" y="363"/>
      <point x="355" y="380" type="qcurve" smooth="yes"/>
      <point x="332" y="417"/>
      <point x="288" y="423" type="qcurve" smooth="yes"/>
      <point x="274" y="425"/>
      <point x="260" y="425" type="qcurve" smooth="yes"/>
      <point x="212" y="425"/>
      <point x="163" y="384"/>
      <point x="163" y="354" type="qcurve" smooth="yes"/>
      <point x="163" y="335"/>
      <point x="185" y="311"/>
      <point x="218" y="302" type="qcurve" smooth="yes"/>
      <point x="305" y="279" type="line" smooth="yes"/>
      <point x="437" y="248"/>
      <point x="437" y="128" type="qcurve" smooth="yes"/>
      <point x="437" y="46"/>
      <point x="352" y="-3" type="qcurve" smooth="yes"/>
      <point x="311" y="-24"/>
    </contour>
    <contour>
      <point x="248" y="563" type="qcurve" smooth="yes"/>
      <point x="222" y="563"/>
      <point x="206" y="574" type="qcurve"/>
      <point x="172" y="611"/>
      <point x="97" y="701"/>
      <point x="97" y="713" type="qcurve" smooth="yes"/>
      <point x="97" y="735"/>
      <point x="123" y="735" type="qcurve" smooth="yes"/>
      <point x="135" y="735"/>
      <point x="142" y="727" type="qcurve" smooth="yes"/>
      <point x="164" y="707"/>
      <point x="226" y="664"/>
      <point x="250" y="646" type="qcurve"/>
      <point x="275" y="664"/>
      <point x="336" y="707"/>
      <point x="358" y="727" type="qcurve" smooth="yes"/>
      <point x="367" y="735"/>
      <point x="379" y="735" type="qcurve" smooth="yes"/>
      <point x="402" y="735"/>
      <point x="402" y="713" type="qcurve" smooth="yes"/>
      <point x="402" y="706"/>
      <point x="390" y="688" type="qcurve" smooth="yes"/>
      <point x="352" y="636"/>
      <point x="306" y="590" type="qcurve" smooth="yes"/>
      <point x="294" y="577" type="line" smooth="yes"/>
      <point x="281" y="563"/>
    </contour>
  </outline>
</glyph>
